<?xml version="1.0" standalone="no"?>
<!DOCTYPE svg PUBLIC "-//W3C//DTD SVG 1.1//EN" "http://www.w3.org/Graphics/SVG/1.1/DTD/svg11.dtd" >
<svg xmlns="http://www.w3.org/2000/svg">
<metadata></metadata>
<defs>
<font id="terminalregular" horiz-adv-x="1406" >
<font-face units-per-em="2048" ascent="1638" descent="-410" />
<missing-glyph horiz-adv-x="500" />
<glyph horiz-adv-x="2048" />
<glyph horiz-adv-x="2048" />
<glyph unicode="&#xd;" horiz-adv-x="2048" />
<glyph unicode=" " d="M0 0z" />
<glyph unicode="!" d="M649 109q0 44 32.5 76t78.5 32q44 0 74 -31.5t30 -76.5t-30 -78t-74 -33q-45 0 -78 33t-33 78zM649 756q0 44 32.5 74t78.5 30q44 0 74 -30t30 -74q0 -46 -30 -78.5t-74 -32.5q-46 0 -78.5 32.5t-32.5 78.5zM649 971q0 45 32.5 76.5t78.5 31.5q44 0 74 -31t30 -77 q0 -45 -30 -77t-74 -32q-50 0 -80.5 33t-30.5 76zM649 1186q0 44 32.5 76t78.5 32q44 0 74 -31.5t30 -76.5t-30 -77t-74 -32q-46 0 -78.5 32.5t-32.5 76.5zM649 1401q0 45 32.5 77.5t78.5 32.5q44 0 74 -32.5t30 -77.5t-30 -77t-74 -32q-46 0 -78.5 32.5t-32.5 76.5z" />
<glyph unicode="&#x22;" d="M406 971q0 45 31.5 76.5t76.5 31.5q44 0 75.5 -31.5t31.5 -76.5q0 -44 -31.5 -76.5t-75.5 -32.5t-76 32.5t-32 76.5zM406 1186q0 44 32 76t76 32t75.5 -32t31.5 -76t-31.5 -76.5t-75.5 -32.5t-76 32.5t-32 76.5zM406 1401q0 44 32 77t76 33t75.5 -32.5t31.5 -77.5 q0 -44 -31.5 -76.5t-75.5 -32.5t-76 32.5t-32 76.5zM836 971q0 51 32.5 79.5t75.5 28.5q46 0 76.5 -31t30.5 -77q0 -45 -31 -77t-76 -32q-44 0 -76 32.5t-32 76.5zM836 1186q0 49 33 78.5t75 29.5q48 0 77.5 -32.5t29.5 -75.5q0 -49 -32 -79t-75 -30q-45 0 -76.5 32.5 t-31.5 76.5zM836 1401q0 50 33 80t75 30q45 0 76 -32.5t31 -77.5q0 -48 -32 -78.5t-75 -30.5q-45 0 -76.5 32.5t-31.5 76.5z" />
<glyph unicode="#" d="M98 539q0 49 33 77.5t76 28.5q49 0 77.5 -30.5t28.5 -75.5q0 -46 -31 -76.5t-75 -30.5q-48 0 -78.5 32.5t-30.5 74.5zM98 971q0 51 33 79.5t76 28.5q49 0 77.5 -32t28.5 -76q0 -47 -31.5 -78t-74.5 -31q-49 0 -79 33.5t-30 75.5zM311 109q0 46 33.5 77t77.5 31 q46 0 76 -32.5t30 -75.5q0 -45 -32 -78t-74 -33q-46 0 -78.5 34t-32.5 77zM311 324q0 48 33.5 80t77.5 32t75 -34.5t31 -77.5q0 -44 -32 -76.5t-74 -32.5q-46 0 -78.5 34t-32.5 75zM311 539q0 48 33 77t78 29q48 0 77 -31.5t29 -74.5q0 -44 -31.5 -75.5t-74.5 -31.5 q-49 0 -80 32.5t-31 74.5zM311 756q0 44 33.5 74t77.5 30q48 0 77 -31.5t29 -72.5q0 -46 -31.5 -78.5t-74.5 -32.5q-49 0 -80 33.5t-31 77.5zM311 971q0 48 33 78t78 30q47 0 76.5 -32.5t29.5 -75.5q0 -44 -31.5 -76.5t-74.5 -32.5q-50 0 -80.5 34t-30.5 75zM311 1186 q0 46 33.5 77t77.5 31q47 0 76.5 -33t29.5 -75q0 -45 -32 -77t-74 -32q-46 0 -78.5 33.5t-32.5 75.5zM311 1401q0 48 33.5 79t77.5 31t75 -33.5t31 -76.5q0 -45 -32 -77t-74 -32q-46 0 -78.5 33.5t-32.5 75.5zM526 539q0 48 33.5 77t77.5 29q50 0 80.5 -31.5t30.5 -74.5 q0 -44 -32.5 -75.5t-78.5 -31.5q-49 0 -80 32.5t-31 74.5zM526 971q0 49 33.5 78.5t77.5 29.5q50 0 80.5 -32t30.5 -76t-32.5 -76.5t-78.5 -32.5q-50 0 -80.5 34t-30.5 75zM745 539q0 47 32.5 76.5t74.5 29.5q50 0 80.5 -31t30.5 -75q0 -45 -33 -76t-78 -31q-47 0 -77 32.5 t-30 74.5zM745 971q0 47 32.5 77.5t74.5 30.5q49 0 80 -32.5t31 -75.5q0 -45 -33 -77t-78 -32q-48 0 -77.5 33.5t-29.5 75.5zM961 109q0 46 32 77t76 31q48 0 79.5 -32.5t31.5 -75.5q0 -45 -34 -78t-77 -33q-45 0 -76.5 34t-31.5 77zM961 324q0 48 32 80t76 32 q46 0 78.5 -34.5t32.5 -77.5q0 -44 -34 -76.5t-77 -32.5q-44 0 -76 34t-32 75zM961 539q0 48 31.5 77t76.5 29q49 0 80 -31.5t31 -74.5t-21 -90q-49 -17 -90 -17q-47 0 -77.5 32.5t-30.5 74.5zM961 756q0 45 32 74.5t76 29.5q50 0 80.5 -31.5t30.5 -72.5q0 -45 -33 -78 t-78 -33q-47 0 -77.5 33.5t-30.5 77.5zM961 971q0 48 32 78t76 30q49 0 80 -32.5t31 -75.5q0 -44 -33.5 -76.5t-77.5 -32.5q-48 0 -78 34t-30 75zM961 1186q0 46 32 77t76 31q49 0 80 -33t31 -75q0 -45 -33.5 -77t-77.5 -32q-45 0 -76.5 33.5t-31.5 75.5zM961 1401 q0 48 32 79t76 31q46 0 78.5 -33.5t32.5 -76.5q0 -45 -33.5 -77t-77.5 -32q-45 0 -76.5 33.5t-31.5 75.5zM1176 539q0 50 32.5 78t75.5 28q48 0 77.5 -31t29.5 -75q0 -46 -32 -76.5t-75 -30.5q-47 0 -77.5 32.5t-30.5 74.5zM1176 971q0 51 32.5 79.5t75.5 28.5 q48 0 77.5 -32.5t29.5 -75.5q0 -46 -32.5 -77.5t-74.5 -31.5q-48 0 -78 33t-30 76z" />
<glyph unicode="$" d="M217 324q0 50 34 80t77 30t75.5 -33.5t32.5 -76.5q0 -46 -33.5 -77.5t-76.5 -31.5q-44 0 -76.5 33.5t-32.5 75.5zM217 971q0 50 33.5 79t75.5 29q48 0 79 -32.5t31 -75.5q0 -46 -33.5 -77.5t-76.5 -31.5q-47 0 -78 33.5t-31 75.5zM436 324q0 50 33 81t74 31q46 0 76 -34 t30 -78q0 -46 -31.5 -77.5t-74.5 -31.5q-45 0 -76 33.5t-31 75.5zM436 756q0 47 32.5 75.5t74.5 28.5q49 0 77.5 -31t28.5 -73q0 -48 -31 -79.5t-75 -31.5q-47 0 -77 33.5t-30 77.5zM436 1186q0 49 32.5 78.5t74.5 29.5q47 0 76.5 -32.5t29.5 -75.5q0 -48 -31 -78.5 t-75 -30.5q-45 0 -76 32.5t-31 76.5zM649 109q0 49 33.5 78.5t77.5 29.5q45 0 74.5 -32t29.5 -76q0 -49 -31 -80t-73 -31q-46 0 -78.5 33.5t-32.5 77.5zM649 324q0 50 34 81t77 31q44 0 74 -33.5t30 -78.5q0 -48 -31 -78.5t-73 -30.5q-46 0 -78.5 33.5t-32.5 75.5zM649 539 q0 50 33 78t78 28q46 0 75 -31t29 -75q0 -48 -31 -77.5t-73 -29.5q-49 0 -80 32.5t-31 74.5zM649 756q0 47 33.5 75.5t77.5 28.5q47 0 75.5 -31t28.5 -73q0 -49 -31 -80t-73 -31q-49 0 -80 33.5t-31 77.5zM649 971q0 51 33 79.5t78 28.5q46 0 75 -32t29 -76q0 -48 -31 -78.5 t-73 -30.5q-50 0 -80.5 33t-30.5 76zM649 1186q0 49 33.5 78.5t77.5 29.5q46 0 75 -32.5t29 -75.5q0 -49 -31 -79t-73 -30q-46 0 -78.5 32.5t-32.5 76.5zM649 1401q0 50 34 80t77 30q44 0 74 -32.5t30 -77.5q0 -48 -31 -78.5t-73 -30.5q-46 0 -78.5 32.5t-32.5 76.5z M866 324q0 51 33.5 81.5t75.5 30.5q46 0 77 -34t31 -78q0 -46 -32.5 -77.5t-75.5 -31.5q-45 0 -77 33.5t-32 75.5zM866 756q0 48 33 76t76 28q51 0 79.5 -30.5t28.5 -73.5q0 -48 -32 -79.5t-76 -31.5q-48 0 -78.5 34t-30.5 77zM866 1186q0 49 33.5 78.5t75.5 29.5 q49 0 78.5 -32t29.5 -76q0 -48 -32.5 -78.5t-75.5 -30.5q-45 0 -77 33t-32 76zM1081 539q0 47 32.5 76.5t76.5 29.5q48 0 78 -31.5t30 -74.5q0 -44 -32 -75.5t-76 -31.5q-49 0 -79 32.5t-30 74.5zM1081 1186q0 46 33 77t76 31q47 0 77.5 -33t30.5 -75q0 -45 -32.5 -77 t-75.5 -32q-46 0 -77.5 33t-31.5 76z" />
<glyph unicode="%" d="M98 109q0 48 33 78t76 30q47 0 76.5 -32.5t29.5 -75.5q0 -48 -31 -79.5t-75 -31.5q-45 0 -77 33.5t-32 77.5zM98 971q0 51 33 79.5t76 28.5q49 0 77.5 -32t28.5 -76q0 -47 -31.5 -78t-74.5 -31q-49 0 -79 33.5t-30 75.5zM98 1186q0 48 33 78t76 30q49 0 77.5 -32 t28.5 -76q0 -48 -31 -78.5t-75 -30.5q-45 0 -77 33t-32 76zM311 324q0 48 33.5 80t77.5 32t75 -34.5t31 -77.5q0 -44 -32 -76.5t-74 -32.5q-46 0 -78.5 34t-32.5 75zM311 971q0 48 33 78t78 30q47 0 76.5 -32.5t29.5 -75.5q0 -44 -31.5 -76.5t-74.5 -32.5q-50 0 -80.5 34 t-30.5 75zM311 1186q0 46 33.5 77t77.5 31q47 0 76.5 -33t29.5 -75q0 -45 -32 -77t-74 -32q-46 0 -78.5 33.5t-32.5 75.5zM526 539q0 48 33.5 77t77.5 29q50 0 80.5 -31.5t30.5 -74.5q0 -44 -32.5 -75.5t-78.5 -31.5q-49 0 -80 32.5t-31 74.5zM745 756q0 44 32 74t75 30 q50 0 80.5 -31t30.5 -73q0 -47 -33 -79t-78 -32q-47 0 -77 33.5t-30 77.5zM961 109q0 46 32 77t76 31q48 0 79.5 -32.5t31.5 -75.5q0 -45 -34 -78t-77 -33q-45 0 -76.5 34t-31.5 77zM961 324q0 48 32 80t76 32q46 0 78.5 -34.5t32.5 -77.5q0 -44 -34 -76.5t-77 -32.5 q-44 0 -76 34t-32 75zM961 971q0 48 32 78t76 30q49 0 80 -32.5t31 -75.5q0 -44 -33.5 -76.5t-77.5 -32.5q-48 0 -78 34t-30 75zM1176 109q0 49 33 78.5t75 29.5q46 0 76.5 -32.5t30.5 -75.5q0 -48 -32 -79.5t-75 -31.5q-45 0 -76.5 33.5t-31.5 77.5zM1176 324q0 50 33.5 81 t74.5 31q45 0 76 -34t31 -78q0 -46 -32.5 -77.5t-74.5 -31.5q-45 0 -76.5 33.5t-31.5 75.5zM1176 1186q0 49 33 78.5t75 29.5q48 0 77.5 -32.5t29.5 -75.5q0 -48 -32 -78.5t-75 -30.5q-45 0 -76.5 32.5t-31.5 76.5z" />
<glyph unicode="&#x26;" d="M98 324q0 50 34 81t75 31q46 0 76 -34t30 -78q0 -46 -31.5 -77.5t-74.5 -31.5q-45 0 -77 33.5t-32 75.5zM98 539q0 49 33 77.5t76 28.5q49 0 77.5 -30.5t28.5 -75.5q0 -46 -31 -76.5t-75 -30.5q-48 0 -78.5 32.5t-30.5 74.5zM98 971q0 51 33 79.5t76 28.5q49 0 77.5 -32 t28.5 -76q0 -47 -31.5 -78t-74.5 -31q-49 0 -79 33.5t-30 75.5zM98 1186q0 48 33 78t76 30q49 0 77.5 -32t28.5 -76q0 -48 -31 -78.5t-75 -30.5q-45 0 -77 33t-32 76zM311 109q0 46 33.5 77t77.5 31q46 0 76 -32.5t30 -75.5q0 -45 -32 -78t-74 -33q-46 0 -78.5 34t-32.5 77z M311 756q0 44 33.5 74t77.5 30q48 0 77 -31.5t29 -72.5q0 -46 -31.5 -78.5t-74.5 -32.5q-49 0 -80 33.5t-31 77.5zM311 1401q0 48 33.5 79t77.5 31t75 -33.5t31 -76.5q0 -45 -32 -77t-74 -32q-46 0 -78.5 33.5t-32.5 75.5zM526 109q0 47 33.5 77.5t77.5 30.5q49 0 80 -32.5 t31 -75.5q0 -45 -33 -78t-78 -33q-46 0 -78.5 34t-32.5 77zM526 756q0 45 34 74.5t77 29.5q52 0 81.5 -31t29.5 -73q0 -46 -32.5 -78.5t-78.5 -32.5q-49 0 -80 33.5t-31 77.5zM526 1401q0 48 34 79t77 31q48 0 79.5 -33.5t31.5 -76.5q0 -45 -33 -77t-78 -32 q-46 0 -78.5 33.5t-32.5 75.5zM745 109q0 46 33 77t74 31q48 0 79.5 -32.5t31.5 -75.5q0 -46 -33.5 -78.5t-77.5 -32.5t-75.5 34t-31.5 77zM745 539q0 47 32.5 76.5t74.5 29.5q50 0 80.5 -31t30.5 -75q0 -45 -33 -76t-78 -31q-47 0 -77 32.5t-30 74.5zM745 971 q0 47 32.5 77.5t74.5 30.5q49 0 80 -32.5t31 -75.5q0 -45 -33 -77t-78 -32q-48 0 -77.5 33.5t-29.5 75.5zM745 1186q0 46 33 77t74 31q49 0 80 -32.5t31 -75.5q0 -46 -33.5 -77.5t-77.5 -31.5q-45 0 -76 33.5t-31 75.5zM961 324q0 48 32 80t76 32q46 0 78.5 -34.5 t32.5 -77.5q0 -44 -34 -76.5t-77 -32.5q-44 0 -76 34t-32 75zM1176 109q0 49 33 78.5t75 29.5q46 0 76.5 -32.5t30.5 -75.5q0 -48 -32 -79.5t-75 -31.5q-45 0 -76.5 33.5t-31.5 77.5zM1176 539q0 50 32.5 78t75.5 28q48 0 77.5 -31t29.5 -75q0 -46 -32 -76.5t-75 -30.5 q-47 0 -77.5 32.5t-30.5 74.5z" />
<glyph unicode="'" d="M602 971q0 45 31 76.5t76 31.5q46 0 77 -31t31 -77q0 -45 -31.5 -77t-76.5 -32q-44 0 -75.5 32.5t-31.5 76.5zM602 1186q0 44 31.5 76t75.5 32q45 0 76.5 -31.5t31.5 -76.5t-31.5 -77t-76.5 -32q-44 0 -75.5 32.5t-31.5 76.5zM602 1401q0 45 31.5 77.5t75.5 32.5 q45 0 76.5 -32.5t31.5 -77.5t-31.5 -77t-76.5 -32q-44 0 -75.5 32.5t-31.5 76.5z" />
<glyph unicode="(" d="M436 539q0 50 32 78t75 28q48 0 77 -31t29 -75q0 -46 -31 -76.5t-75 -30.5q-47 0 -77 32.5t-30 74.5zM436 756q0 47 32.5 75.5t74.5 28.5q49 0 77.5 -31t28.5 -73q0 -48 -31 -79.5t-75 -31.5q-47 0 -77 33.5t-30 77.5zM436 971q0 51 32 79.5t75 28.5q47 0 76.5 -32.5 t29.5 -75.5q0 -47 -31.5 -78t-74.5 -31q-48 0 -77.5 33t-29.5 76zM649 324q0 50 34 81t77 31q44 0 74 -33.5t30 -78.5q0 -48 -31 -78.5t-73 -30.5q-46 0 -78.5 33.5t-32.5 75.5zM649 1186q0 49 33.5 78.5t77.5 29.5q46 0 75 -32.5t29 -75.5q0 -49 -31 -79t-73 -30 q-46 0 -78.5 32.5t-32.5 76.5zM866 109q0 49 33.5 78.5t75.5 29.5q48 0 78 -32.5t30 -75.5q0 -48 -32.5 -79.5t-75.5 -31.5q-45 0 -77 33.5t-32 77.5zM866 1401q0 51 33.5 80.5t75.5 29.5q46 0 77 -33t31 -77q0 -46 -32.5 -77.5t-75.5 -31.5q-45 0 -77 33t-32 76z" />
<glyph unicode=")" d="M455 109q0 44 29.5 76t78.5 32q42 0 74.5 -29.5t32.5 -78.5q0 -44 -31 -77.5t-76 -33.5q-44 0 -76 31.5t-32 79.5zM455 1401q0 45 30 77.5t78 32.5q42 0 74.5 -29.5t32.5 -80.5q0 -44 -31 -76.5t-76 -32.5q-44 0 -76 31.5t-32 77.5zM672 324q0 45 31 78.5t75 33.5 q41 0 75 -31t34 -81q0 -42 -32 -75.5t-77 -33.5q-42 0 -74 30.5t-32 78.5zM672 1186q0 43 30 75.5t76 32.5q43 0 76 -30t33 -78q0 -43 -32 -76t-77 -33q-42 0 -74 30t-32 79zM887 539q0 44 30 75t78 31q42 0 74.5 -28.5t32.5 -77.5q0 -42 -30.5 -74.5t-76.5 -32.5 q-44 0 -76 30.5t-32 76.5zM887 756q0 42 29.5 73t78.5 31q41 0 74 -28.5t33 -75.5q0 -43 -30.5 -77t-76.5 -34q-44 0 -76 31.5t-32 79.5zM887 971q0 43 30 75.5t78 32.5q42 0 74.5 -28.5t32.5 -79.5q0 -42 -30 -75.5t-77 -33.5q-44 0 -76 31.5t-32 77.5z" />
<glyph unicode="*" d="M217 324q0 49 34.5 80.5t74.5 31.5q45 0 77.5 -34t32.5 -78q0 -46 -33.5 -77.5t-76.5 -31.5q-44 0 -76.5 33.5t-32.5 75.5zM217 756q0 47 33.5 75.5t75.5 28.5q49 0 79.5 -31t30.5 -73q0 -48 -33.5 -79.5t-76.5 -31.5q-46 0 -77.5 34t-31.5 77zM217 1186q0 48 34 78 t75 30q48 0 79 -32.5t31 -75.5q0 -48 -33.5 -78.5t-76.5 -30.5q-44 0 -76.5 33t-32.5 76zM436 539q0 50 32 78t75 28q48 0 77 -31t29 -75q0 -46 -31 -76.5t-75 -30.5q-47 0 -77 32.5t-30 74.5zM436 756q0 47 32.5 75.5t74.5 28.5q49 0 77.5 -31t28.5 -73q0 -48 -31 -79.5 t-75 -31.5q-47 0 -77 33.5t-30 77.5zM436 971q0 51 32 79.5t75 28.5q47 0 76.5 -32.5t29.5 -75.5q0 -47 -31.5 -78t-74.5 -31q-48 0 -77.5 33t-29.5 76zM649 109q0 49 33.5 78.5t77.5 29.5q45 0 74.5 -32t29.5 -76q0 -49 -31 -80t-73 -31q-46 0 -78.5 33.5t-32.5 77.5z M649 324q0 50 34 81t77 31q44 0 74 -33.5t30 -78.5q0 -48 -31 -78.5t-73 -30.5q-46 0 -78.5 33.5t-32.5 75.5zM649 539q0 50 33 78t78 28q46 0 75 -31t29 -75q0 -48 -31 -77.5t-73 -29.5q-49 0 -80 32.5t-31 74.5zM649 756q0 47 33.5 75.5t77.5 28.5q47 0 75.5 -31t28.5 -73 q0 -49 -31 -80t-73 -31q-49 0 -80 33.5t-31 77.5zM649 971q0 51 33 79.5t78 28.5q46 0 75 -32t29 -76q0 -48 -31 -78.5t-73 -30.5q-50 0 -80.5 33t-30.5 76zM649 1186q0 49 33.5 78.5t77.5 29.5q46 0 75 -32.5t29 -75.5q0 -49 -31 -79t-73 -30q-46 0 -78.5 32.5t-32.5 76.5z M649 1401q0 50 34 80t77 30q44 0 74 -32.5t30 -77.5q0 -48 -31 -78.5t-73 -30.5q-46 0 -78.5 32.5t-32.5 76.5zM866 539q0 49 33.5 77.5t75.5 28.5q49 0 78.5 -30.5t29.5 -75.5q0 -46 -32 -76.5t-76 -30.5q-48 0 -78.5 32.5t-30.5 74.5zM866 756q0 48 33 76t76 28 q51 0 79.5 -30.5t28.5 -73.5q0 -48 -32 -79.5t-76 -31.5q-48 0 -78.5 34t-30.5 77zM866 971q0 52 33 80t76 28q49 0 78.5 -32t29.5 -76q0 -46 -32 -77.5t-76 -31.5q-49 0 -79 33.5t-30 75.5zM1081 324q0 48 33 80t76 32q46 0 77 -34.5t31 -77.5q0 -44 -32.5 -76.5 t-75.5 -32.5q-46 0 -77.5 33.5t-31.5 75.5zM1081 756q0 45 32.5 74.5t76.5 29.5q49 0 78.5 -31.5t29.5 -72.5q0 -46 -32 -78.5t-76 -32.5q-49 0 -79 33.5t-30 77.5zM1081 1186q0 46 33 77t76 31q47 0 77.5 -33t30.5 -75q0 -45 -32.5 -77t-75.5 -32q-46 0 -77.5 33t-31.5 76z " />
<glyph unicode="+" d="M217 756q0 47 33.5 75.5t75.5 28.5q49 0 79.5 -31t30.5 -73q0 -48 -33.5 -79.5t-76.5 -31.5q-46 0 -77.5 34t-31.5 77zM436 756q0 47 32.5 75.5t74.5 28.5q49 0 77.5 -31t28.5 -73q0 -48 -31 -79.5t-75 -31.5q-47 0 -77 33.5t-30 77.5zM649 324q0 50 34 81t77 31 q44 0 74 -33.5t30 -78.5q0 -48 -31 -78.5t-73 -30.5q-46 0 -78.5 33.5t-32.5 75.5zM649 539q0 50 33 78t78 28q46 0 75 -31t29 -75q0 -48 -31 -77.5t-73 -29.5q-49 0 -80 32.5t-31 74.5zM649 756q0 47 33.5 75.5t77.5 28.5q47 0 75.5 -31t28.5 -73q0 -49 -31 -80t-73 -31 q-49 0 -80 33.5t-31 77.5zM649 971q0 51 33 79.5t78 28.5q46 0 75 -32t29 -76q0 -48 -31 -78.5t-73 -30.5q-50 0 -80.5 33t-30.5 76zM649 1186q0 49 33.5 78.5t77.5 29.5q46 0 75 -32.5t29 -75.5q0 -49 -31 -79t-73 -30q-46 0 -78.5 32.5t-32.5 76.5zM866 756q0 48 33 76 t76 28q51 0 79.5 -30.5t28.5 -73.5q0 -48 -32 -79.5t-76 -31.5q-48 0 -78.5 34t-30.5 77zM1081 756q0 45 32.5 74.5t76.5 29.5q49 0 78.5 -31.5t29.5 -72.5q0 -46 -32 -78.5t-76 -32.5q-49 0 -79 33.5t-30 77.5z" />
<glyph unicode="," d="M334 -106q0 48 33.5 78t76.5 30q45 0 75 -33t30 -75q0 -47 -32 -77t-73 -30q-49 0 -79.5 32.5t-30.5 74.5zM549 -106q0 47 33.5 77.5t74.5 30.5q49 0 80 -33t31 -75q0 -46 -34 -76.5t-77 -30.5q-46 0 -77 33t-31 74zM549 109q0 48 33.5 78t74.5 30q46 0 78.5 -33 t32.5 -75q0 -48 -34 -79.5t-77 -31.5q-44 0 -76 34t-32 77zM549 324q0 49 34 80.5t74 31.5q45 0 78 -34t33 -78q0 -46 -34 -77.5t-77 -31.5t-75.5 33.5t-32.5 75.5zM768 109q0 49 32 78.5t72 29.5q49 0 80 -32.5t31 -75.5q0 -48 -33 -79.5t-78 -31.5q-43 0 -73.5 33.5 t-30.5 77.5zM768 324q0 51 32 81.5t72 30.5q48 0 79.5 -34t31.5 -78q0 -46 -33 -77.5t-78 -31.5q-43 0 -73.5 33.5t-30.5 75.5z" />
<glyph unicode="-" d="M201 745q0 47 32.5 76t73.5 29q49 0 79 -31.5t30 -73.5q0 -46 -32.5 -77t-76.5 -31q-46 0 -76 32.5t-30 75.5zM414 745q0 45 31.5 75t76.5 30q50 0 79.5 -32t29.5 -73q0 -44 -32.5 -76t-76.5 -32q-49 0 -78.5 32t-29.5 76zM629 745q0 46 32.5 75.5t75.5 29.5 q53 0 82 -31.5t29 -73.5q0 -45 -32 -76.5t-79 -31.5q-49 0 -78.5 32t-29.5 76zM846 745q0 45 32 75t76 30q48 0 78.5 -31.5t30.5 -73.5q0 -45 -32.5 -76.5t-76.5 -31.5q-49 0 -78.5 32t-29.5 76zM1061 745q0 45 32.5 75t77.5 30q49 0 79 -32t30 -73q0 -44 -33 -76t-76 -32 q-50 0 -80 32t-30 76z" />
<glyph unicode="." d="M467 109q0 47 33.5 77.5t77.5 30.5q49 0 79.5 -32.5t30.5 -75.5q0 -46 -32 -78.5t-78 -32.5t-78.5 34t-32.5 77zM467 324q0 49 34.5 80.5t76.5 31.5q49 0 79.5 -34t30.5 -78t-32 -76.5t-78 -32.5t-78.5 34t-32.5 75zM686 109q0 46 33 77t76 31q45 0 76.5 -33t31.5 -75 q0 -46 -33 -78.5t-75 -32.5q-46 0 -77.5 34t-31.5 77zM686 324q0 48 33 80t76 32q44 0 76 -34.5t32 -77.5q0 -45 -33 -77t-75 -32q-46 0 -77.5 33.5t-31.5 75.5z" />
<glyph unicode="/" d="M98 109q0 48 33 78t76 30q47 0 76.5 -32.5t29.5 -75.5q0 -48 -31 -79.5t-75 -31.5q-45 0 -77 33.5t-32 77.5zM311 324q0 48 33.5 80t77.5 32t75 -34.5t31 -77.5q0 -44 -32 -76.5t-74 -32.5q-46 0 -78.5 34t-32.5 75zM526 539q0 48 33.5 77t77.5 29q50 0 80.5 -31.5 t30.5 -74.5q0 -44 -32.5 -75.5t-78.5 -31.5q-49 0 -80 32.5t-31 74.5zM745 756q0 44 32 74t75 30q50 0 80.5 -31t30.5 -73q0 -47 -33 -79t-78 -32q-47 0 -77 33.5t-30 77.5zM961 971q0 48 32 78t76 30q49 0 80 -32.5t31 -75.5q0 -44 -33.5 -76.5t-77.5 -32.5q-48 0 -78 34 t-30 75zM1176 1186q0 49 33 78.5t75 29.5q48 0 77.5 -32.5t29.5 -75.5q0 -48 -32 -78.5t-75 -30.5q-45 0 -76.5 32.5t-31.5 76.5z" />
<glyph unicode="0" d="M98 324q0 50 34 81t75 31q46 0 76 -34t30 -78q0 -46 -31.5 -77.5t-74.5 -31.5q-45 0 -77 33.5t-32 75.5zM98 539q0 49 33 77.5t76 28.5q49 0 77.5 -30.5t28.5 -75.5q0 -46 -31 -76.5t-75 -30.5q-48 0 -78.5 32.5t-30.5 74.5zM98 756q0 47 33 75.5t76 28.5q50 0 78 -30.5 t28 -73.5q0 -48 -31 -79.5t-75 -31.5q-48 0 -78.5 34t-30.5 77zM98 971q0 51 33 79.5t76 28.5q49 0 77.5 -32t28.5 -76q0 -47 -31.5 -78t-74.5 -31q-49 0 -79 33.5t-30 75.5zM98 1186q0 48 33 78t76 30q49 0 77.5 -32t28.5 -76q0 -48 -31 -78.5t-75 -30.5q-45 0 -77 33 t-32 76zM311 109q0 46 33.5 77t77.5 31q46 0 76 -32.5t30 -75.5q0 -45 -32 -78t-74 -33q-46 0 -78.5 34t-32.5 77zM311 539q0 48 33 77t78 29q48 0 77 -31.5t29 -74.5q0 -44 -31.5 -75.5t-74.5 -31.5q-49 0 -80 32.5t-31 74.5zM311 1401q0 48 33.5 79t77.5 31t75 -33.5 t31 -76.5q0 -45 -32 -77t-74 -32q-46 0 -78.5 33.5t-32.5 75.5zM526 109q0 47 33.5 77.5t77.5 30.5q49 0 80 -32.5t31 -75.5q0 -45 -33 -78t-78 -33q-46 0 -78.5 34t-32.5 77zM526 756q0 45 34 74.5t77 29.5q52 0 81.5 -31t29.5 -73q0 -46 -32.5 -78.5t-78.5 -32.5 q-49 0 -80 33.5t-31 77.5zM526 1401q0 48 34 79t77 31q48 0 79.5 -33.5t31.5 -76.5q0 -45 -33 -77t-78 -32q-46 0 -78.5 33.5t-32.5 75.5zM745 109q0 46 33 77t74 31q48 0 79.5 -32.5t31.5 -75.5q0 -46 -33.5 -78.5t-77.5 -32.5t-75.5 34t-31.5 77zM745 756q0 44 32 74 t75 30q50 0 80.5 -31t30.5 -73q0 -47 -33 -79t-78 -32q-47 0 -77 33.5t-30 77.5zM745 1401q0 48 32.5 79t74.5 31q46 0 78.5 -33t32.5 -77q0 -46 -33.5 -77.5t-77.5 -31.5q-45 0 -76 33.5t-31 75.5zM961 109q0 46 32 77t76 31q48 0 79.5 -32.5t31.5 -75.5q0 -45 -34 -78 t-77 -33q-45 0 -76.5 34t-31.5 77zM961 971q0 48 32 78t76 30q49 0 80 -32.5t31 -75.5q0 -44 -33.5 -76.5t-77.5 -32.5q-48 0 -78 34t-30 75zM961 1401q0 48 32 79t76 31q46 0 78.5 -33.5t32.5 -76.5q0 -45 -33.5 -77t-77.5 -32q-45 0 -76.5 33.5t-31.5 75.5zM1176 324 q0 50 33.5 81t74.5 31q45 0 76 -34t31 -78q0 -46 -32.5 -77.5t-74.5 -31.5q-45 0 -76.5 33.5t-31.5 75.5zM1176 539q0 50 32.5 78t75.5 28q48 0 77.5 -31t29.5 -75q0 -46 -32 -76.5t-75 -30.5q-47 0 -77.5 32.5t-30.5 74.5zM1176 756q0 47 32.5 75.5t75.5 28.5q49 0 78 -31 t29 -73q0 -48 -32 -79.5t-75 -31.5q-47 0 -77.5 33.5t-30.5 77.5zM1176 971q0 51 32.5 79.5t75.5 28.5q48 0 77.5 -32.5t29.5 -75.5q0 -46 -32.5 -77.5t-74.5 -31.5q-48 0 -78 33t-30 76zM1176 1186q0 49 33 78.5t75 29.5q48 0 77.5 -32.5t29.5 -75.5q0 -48 -32 -78.5 t-75 -30.5q-45 0 -76.5 32.5t-31.5 76.5z" />
<glyph unicode="1" d="M236 109q0 46 32 77t76 31q46 0 77.5 -32.5t31.5 -75.5q0 -46 -33.5 -78.5t-75.5 -32.5q-46 0 -77 34t-31 77zM236 971q0 48 32 78t76 30q48 0 78.5 -32.5t30.5 -75.5q0 -45 -33 -77t-76 -32q-48 0 -78 34t-30 75zM451 109q0 48 32.5 78t75.5 30q50 0 80.5 -32t30.5 -76 q0 -46 -32.5 -78.5t-78.5 -32.5t-77 34t-31 77zM451 1186q0 48 32.5 78t75.5 30q51 0 81 -32.5t30 -75.5q0 -46 -32.5 -77.5t-78.5 -31.5t-77 33t-31 76zM668 109q0 46 32.5 77t75.5 31q46 0 77.5 -32.5t31.5 -75.5q0 -46 -33.5 -78.5t-75.5 -32.5q-46 0 -77 34t-31 77z M668 324q0 48 32.5 80t75.5 32q45 0 77 -34t32 -78q0 -45 -33.5 -77t-75.5 -32q-46 0 -77 33.5t-31 75.5zM668 539q0 47 32.5 76.5t75.5 29.5q48 0 78.5 -31t30.5 -75q0 -45 -32.5 -76t-76.5 -31q-49 0 -78.5 32.5t-29.5 74.5zM668 756q0 45 32 74.5t76 29.5q49 0 79 -31 t30 -73q0 -46 -32.5 -78.5t-76.5 -32.5q-49 0 -78.5 33.5t-29.5 77.5zM668 971q0 48 32.5 78t75.5 30q48 0 78.5 -32.5t30.5 -75.5q0 -45 -33 -77t-76 -32q-49 0 -78.5 33.5t-29.5 75.5zM668 1186q0 46 32.5 77t75.5 31q48 0 78.5 -32.5t30.5 -75.5q0 -46 -33 -77.5 t-76 -31.5q-46 0 -77 33t-31 76zM668 1401q0 48 32.5 79t75.5 31q45 0 77 -33t32 -77q0 -46 -33 -77.5t-76 -31.5q-46 0 -77 33t-31 76zM883 109q0 46 33 77t77 31q46 0 77.5 -32.5t31.5 -75.5q0 -45 -33.5 -78t-75.5 -33q-46 0 -78 34t-32 77zM1098 109q0 49 33 78.5 t73 29.5q49 0 80 -32.5t31 -75.5q0 -48 -33.5 -79.5t-77.5 -31.5q-43 0 -74.5 33.5t-31.5 77.5z" />
<glyph unicode="2" d="M98 109q0 48 33 78t76 30q47 0 76.5 -32.5t29.5 -75.5q0 -48 -31 -79.5t-75 -31.5q-45 0 -77 33.5t-32 77.5zM98 324q0 50 34 81t75 31q46 0 76 -34t30 -78q0 -46 -31.5 -77.5t-74.5 -31.5q-45 0 -77 33.5t-32 75.5zM98 1186q0 48 33 78t76 30q49 0 77.5 -32t28.5 -76 q0 -48 -31 -78.5t-75 -30.5q-45 0 -77 33t-32 76zM311 109q0 46 33.5 77t77.5 31q46 0 76 -32.5t30 -75.5q0 -45 -32 -78t-74 -33q-46 0 -78.5 34t-32.5 77zM311 539q0 48 33 77t78 29q48 0 77 -31.5t29 -74.5q0 -44 -31.5 -75.5t-74.5 -31.5q-49 0 -80 32.5t-31 74.5z M311 1401q0 48 33.5 79t77.5 31t75 -33.5t31 -76.5q0 -45 -32 -77t-74 -32q-46 0 -78.5 33.5t-32.5 75.5zM526 109q0 47 33.5 77.5t77.5 30.5q49 0 80 -32.5t31 -75.5q0 -45 -33 -78t-78 -33q-46 0 -78.5 34t-32.5 77zM526 539q0 48 33.5 77t77.5 29q50 0 80.5 -31.5 t30.5 -74.5q0 -44 -32.5 -75.5t-78.5 -31.5q-49 0 -80 32.5t-31 74.5zM526 1401q0 48 34 79t77 31q48 0 79.5 -33.5t31.5 -76.5q0 -45 -33 -77t-78 -32q-46 0 -78.5 33.5t-32.5 75.5zM745 109q0 46 33 77t74 31q48 0 79.5 -32.5t31.5 -75.5q0 -46 -33.5 -78.5t-77.5 -32.5 t-75.5 34t-31.5 77zM745 756q0 44 32 74t75 30q50 0 80.5 -31t30.5 -73q0 -47 -33 -79t-78 -32q-47 0 -77 33.5t-30 77.5zM745 1401q0 48 32.5 79t74.5 31q46 0 78.5 -33t32.5 -77q0 -46 -33.5 -77.5t-77.5 -31.5q-45 0 -76 33.5t-31 75.5zM961 109q0 46 32 77t76 31 q48 0 79.5 -32.5t31.5 -75.5q0 -45 -34 -78t-77 -33q-45 0 -76.5 34t-31.5 77zM961 756q0 45 32 74.5t76 29.5q50 0 80.5 -31.5t30.5 -72.5q0 -45 -33 -78t-78 -33q-47 0 -77.5 33.5t-30.5 77.5zM961 1401q0 48 32 79t76 31q46 0 78.5 -33.5t32.5 -76.5q0 -45 -33.5 -77 t-77.5 -32q-45 0 -76.5 33.5t-31.5 75.5zM1176 109q0 49 33 78.5t75 29.5q46 0 76.5 -32.5t30.5 -75.5q0 -48 -32 -79.5t-75 -31.5q-45 0 -76.5 33.5t-31.5 77.5zM1176 971q0 51 32.5 79.5t75.5 28.5q48 0 77.5 -32.5t29.5 -75.5q0 -46 -32.5 -77.5t-74.5 -31.5 q-48 0 -78 33t-30 76zM1176 1186q0 49 33 78.5t75 29.5q48 0 77.5 -32.5t29.5 -75.5q0 -48 -32 -78.5t-75 -30.5q-45 0 -76.5 32.5t-31.5 76.5z" />
<glyph unicode="3" d="M98 324q0 50 34 81t75 31q46 0 76 -34t30 -78q0 -46 -31.5 -77.5t-74.5 -31.5q-45 0 -77 33.5t-32 75.5zM98 1186q0 48 33 78t76 30q49 0 77.5 -32t28.5 -76q0 -48 -31 -78.5t-75 -30.5q-45 0 -77 33t-32 76zM311 109q0 46 33.5 77t77.5 31q46 0 76 -32.5t30 -75.5 q0 -45 -32 -78t-74 -33q-46 0 -78.5 34t-32.5 77zM311 1401q0 48 33.5 79t77.5 31t75 -33.5t31 -76.5q0 -45 -32 -77t-74 -32q-46 0 -78.5 33.5t-32.5 75.5zM526 109q0 47 33.5 77.5t77.5 30.5q49 0 80 -32.5t31 -75.5q0 -45 -33 -78t-78 -33q-46 0 -78.5 34t-32.5 77z M526 756q0 45 34 74.5t77 29.5q52 0 81.5 -31t29.5 -73q0 -46 -32.5 -78.5t-78.5 -32.5q-49 0 -80 33.5t-31 77.5zM526 1401q0 48 34 79t77 31q48 0 79.5 -33.5t31.5 -76.5q0 -45 -33 -77t-78 -32q-46 0 -78.5 33.5t-32.5 75.5zM745 109q0 46 33 77t74 31q48 0 79.5 -32.5 t31.5 -75.5q0 -46 -33.5 -78.5t-77.5 -32.5t-75.5 34t-31.5 77zM745 756q0 44 32 74t75 30q50 0 80.5 -31t30.5 -73q0 -47 -33 -79t-78 -32q-47 0 -77 33.5t-30 77.5zM745 1401q0 48 32.5 79t74.5 31q46 0 78.5 -33t32.5 -77q0 -46 -33.5 -77.5t-77.5 -31.5q-45 0 -76 33.5 t-31 75.5zM961 109q0 46 32 77t76 31q48 0 79.5 -32.5t31.5 -75.5q0 -45 -34 -78t-77 -33q-45 0 -76.5 34t-31.5 77zM961 756q0 45 32 74.5t76 29.5q50 0 80.5 -31.5t30.5 -72.5q0 -45 -33 -78t-78 -33q-47 0 -77.5 33.5t-30.5 77.5zM961 1401q0 48 32 79t76 31 q46 0 78.5 -33.5t32.5 -76.5q0 -45 -33.5 -77t-77.5 -32q-45 0 -76.5 33.5t-31.5 75.5zM1176 324q0 50 33.5 81t74.5 31q45 0 76 -34t31 -78q0 -46 -32.5 -77.5t-74.5 -31.5q-45 0 -76.5 33.5t-31.5 75.5zM1176 539q0 50 32.5 78t75.5 28q48 0 77.5 -31t29.5 -75 q0 -46 -32 -76.5t-75 -30.5q-47 0 -77.5 32.5t-30.5 74.5zM1176 971q0 51 32.5 79.5t75.5 28.5q48 0 77.5 -32.5t29.5 -75.5q0 -46 -32.5 -77.5t-74.5 -31.5q-48 0 -78 33t-30 76zM1176 1186q0 49 33 78.5t75 29.5q48 0 77.5 -32.5t29.5 -75.5q0 -48 -32 -78.5t-75 -30.5 q-45 0 -76.5 32.5t-31.5 76.5z" />
<glyph unicode="4" d="M98 539q0 49 33 77.5t76 28.5q49 0 77.5 -30.5t28.5 -75.5q0 -46 -31 -76.5t-75 -30.5q-48 0 -78.5 32.5t-30.5 74.5zM311 539q0 48 33 77t78 29q48 0 77 -31.5t29 -74.5q0 -44 -31.5 -75.5t-74.5 -31.5q-49 0 -80 32.5t-31 74.5zM311 756q0 44 33.5 74t77.5 30 q48 0 77 -31.5t29 -72.5q0 -46 -31.5 -78.5t-74.5 -32.5q-49 0 -80 33.5t-31 77.5zM526 539q0 48 33.5 77t77.5 29q50 0 80.5 -31.5t30.5 -74.5q0 -44 -32.5 -75.5t-78.5 -31.5q-49 0 -80 32.5t-31 74.5zM526 971q0 49 33.5 78.5t77.5 29.5q50 0 80.5 -32t30.5 -76 t-32.5 -76.5t-78.5 -32.5q-50 0 -80.5 34t-30.5 75zM745 539q0 47 32.5 76.5t74.5 29.5q50 0 80.5 -31t30.5 -75q0 -45 -33 -76t-78 -31q-47 0 -77 32.5t-30 74.5zM745 1186q0 46 33 77t74 31q49 0 80 -32.5t31 -75.5q0 -46 -33.5 -77.5t-77.5 -31.5q-45 0 -76 33.5 t-31 75.5zM961 109q0 46 32 77t76 31q48 0 79.5 -32.5t31.5 -75.5q0 -45 -34 -78t-77 -33q-45 0 -76.5 34t-31.5 77zM961 324q0 48 32 80t76 32q46 0 78.5 -34.5t32.5 -77.5q0 -44 -34 -76.5t-77 -32.5q-44 0 -76 34t-32 75zM961 539q0 48 31.5 77t76.5 29q49 0 80 -31.5 t31 -74.5q0 -44 -33 -75.5t-78 -31.5q-47 0 -77.5 32.5t-30.5 74.5zM961 756q0 45 32 74.5t76 29.5q50 0 80.5 -31.5t30.5 -72.5q0 -45 -33 -78t-78 -33q-47 0 -77.5 33.5t-30.5 77.5zM961 971q0 48 32 78t76 30q49 0 80 -32.5t31 -75.5q0 -44 -33.5 -76.5t-77.5 -32.5 q-48 0 -78 34t-30 75zM961 1186q0 46 32 77t76 31q49 0 80 -33t31 -75q0 -45 -33.5 -77t-77.5 -32q-45 0 -76.5 33.5t-31.5 75.5zM961 1401q0 48 32 79t76 31q46 0 78.5 -33.5t32.5 -76.5q0 -45 -33.5 -77t-77.5 -32q-45 0 -76.5 33.5t-31.5 75.5zM1176 539q0 50 32.5 78 t75.5 28q48 0 77.5 -31t29.5 -75q0 -46 -32 -76.5t-75 -30.5q-47 0 -77.5 32.5t-30.5 74.5z" />
<glyph unicode="5" d="M205 324q0 49 34 80.5t74 31.5q45 0 77 -34t32 -78q0 -46 -33 -77.5t-76 -31.5t-75.5 33.5t-32.5 75.5zM205 971q0 51 33 79.5t75 28.5q48 0 78.5 -32.5t30.5 -75.5q0 -46 -33 -77.5t-76 -31.5q-47 0 -77.5 33.5t-30.5 75.5zM205 1186q0 48 33.5 78t74.5 30 q48 0 78.5 -32.5t30.5 -75.5q0 -48 -33 -78.5t-76 -30.5q-44 0 -76 33t-32 76zM205 1401q0 49 34 79.5t74 30.5q45 0 77 -33t32 -77q0 -46 -33 -77.5t-76 -31.5q-44 0 -76 33t-32 76zM420 109q0 46 32 77t74 31q49 0 80 -32.5t31 -75.5q0 -45 -33 -78t-78 -33q-46 0 -76 34 t-30 77zM420 971q0 48 31.5 78t74.5 30q50 0 80.5 -32t30.5 -76t-32.5 -76.5t-78.5 -32.5q-48 0 -77 33.5t-29 75.5zM420 1401q0 48 31.5 79t74.5 31q48 0 79.5 -33.5t31.5 -76.5q0 -45 -33 -77t-78 -32q-46 0 -76 33t-30 76zM635 109q0 48 32.5 78t75.5 30q50 0 79.5 -32 t29.5 -76q0 -46 -31.5 -78.5t-77.5 -32.5t-77 34t-31 77zM635 971q0 49 32 78.5t76 29.5q51 0 80 -32t29 -76q0 -45 -31 -77t-78 -32q-49 0 -78.5 33.5t-29.5 75.5zM635 1401q0 49 32.5 79.5t75.5 30.5q49 0 79 -33t30 -77q0 -46 -31.5 -77.5t-77.5 -31.5t-77 33t-31 76z M850 109q0 46 34 77t77 31q45 0 76.5 -33t31.5 -75q0 -46 -33.5 -78.5t-74.5 -32.5q-46 0 -78.5 34t-32.5 77zM850 971q0 47 33.5 77.5t77.5 30.5q46 0 77 -32.5t31 -75.5q0 -45 -33 -77t-75 -32q-50 0 -80.5 34t-30.5 75zM850 1401q0 48 34 79t77 31q44 0 76 -33.5 t32 -76.5q0 -46 -33.5 -77.5t-74.5 -31.5q-46 0 -78.5 33.5t-32.5 75.5zM1067 324q0 48 33 80t76 32q46 0 78 -34.5t32 -77.5q0 -44 -33.5 -76.5t-76.5 -32.5q-46 0 -77.5 33.5t-31.5 75.5zM1067 541q0 46 32.5 76t76.5 30q50 0 80 -32t30 -74q0 -44 -32.5 -75.5 t-77.5 -31.5q-49 0 -79 32.5t-30 74.5zM1067 756q0 45 32.5 74.5t76.5 29.5q50 0 80 -31.5t30 -72.5q0 -46 -33 -78.5t-77 -32.5q-49 0 -79 33.5t-30 77.5zM1067 1401q0 48 33 79t76 31q46 0 78 -33.5t32 -76.5q0 -45 -33 -77t-77 -32q-46 0 -77.5 33t-31.5 76z" />
<glyph unicode="6" d="M98 324q0 50 34 81t75 31q46 0 76 -34t30 -78q0 -46 -31.5 -77.5t-74.5 -31.5q-45 0 -77 33.5t-32 75.5zM98 539q0 49 33 77.5t76 28.5q49 0 77.5 -30.5t28.5 -75.5q0 -46 -31 -76.5t-75 -30.5q-48 0 -78.5 32.5t-30.5 74.5zM98 756q0 47 33 75.5t76 28.5q50 0 78 -30.5 t28 -73.5q0 -48 -31 -79.5t-75 -31.5q-48 0 -78.5 34t-30.5 77zM98 971q0 51 33 79.5t76 28.5q49 0 77.5 -32t28.5 -76q0 -47 -31.5 -78t-74.5 -31q-49 0 -79 33.5t-30 75.5zM311 109q0 46 33.5 77t77.5 31q46 0 76 -32.5t30 -75.5q0 -45 -32 -78t-74 -33q-46 0 -78.5 34 t-32.5 77zM311 756q0 44 33.5 74t77.5 30q48 0 77 -31.5t29 -72.5q0 -46 -31.5 -78.5t-74.5 -32.5q-49 0 -80 33.5t-31 77.5zM311 1186q0 46 33.5 77t77.5 31q47 0 76.5 -33t29.5 -75q0 -45 -32 -77t-74 -32q-46 0 -78.5 33.5t-32.5 75.5zM526 109q0 47 33.5 77.5t77.5 30.5 q49 0 80 -32.5t31 -75.5q0 -45 -33 -78t-78 -33q-46 0 -78.5 34t-32.5 77zM526 756q0 45 34 74.5t77 29.5q52 0 81.5 -31t29.5 -73q0 -46 -32.5 -78.5t-78.5 -32.5q-49 0 -80 33.5t-31 77.5zM526 1401q0 48 34 79t77 31q48 0 79.5 -33.5t31.5 -76.5q0 -45 -33 -77t-78 -32 q-46 0 -78.5 33.5t-32.5 75.5zM745 109q0 46 33 77t74 31q48 0 79.5 -32.5t31.5 -75.5q0 -46 -33.5 -78.5t-77.5 -32.5t-75.5 34t-31.5 77zM745 756q0 44 32 74t75 30q50 0 80.5 -31t30.5 -73q0 -47 -33 -79t-78 -32q-47 0 -77 33.5t-30 77.5zM745 1401q0 48 32.5 79 t74.5 31q46 0 78.5 -33t32.5 -77q0 -46 -33.5 -77.5t-77.5 -31.5q-45 0 -76 33.5t-31 75.5zM961 109q0 46 32 77t76 31q48 0 79.5 -32.5t31.5 -75.5q0 -45 -34 -78t-77 -33q-45 0 -76.5 34t-31.5 77zM961 756q0 45 32 74.5t76 29.5q50 0 80.5 -31.5t30.5 -72.5 q0 -45 -33 -78t-78 -33q-47 0 -77.5 33.5t-30.5 77.5zM961 1401q0 48 32 79t76 31q46 0 78.5 -33.5t32.5 -76.5q0 -45 -33.5 -77t-77.5 -32q-45 0 -76.5 33.5t-31.5 75.5zM1176 324q0 50 33.5 81t74.5 31q45 0 76 -34t31 -78q0 -46 -32.5 -77.5t-74.5 -31.5 q-45 0 -76.5 33.5t-31.5 75.5zM1176 539q0 50 32.5 78t75.5 28q48 0 77.5 -31t29.5 -75q0 -46 -32 -76.5t-75 -30.5q-47 0 -77.5 32.5t-30.5 74.5z" />
<glyph unicode="7" d="M98 1186q0 48 33 78t76 30q49 0 77.5 -32t28.5 -76q0 -48 -31 -78.5t-75 -30.5q-45 0 -77 33t-32 76zM98 1401q0 49 33.5 79.5t75.5 30.5q46 0 76 -33t30 -77q0 -47 -31.5 -78t-74.5 -31q-45 0 -77 33t-32 76zM311 1401q0 48 33.5 79t77.5 31t75 -33.5t31 -76.5 q0 -45 -32 -77t-74 -32q-46 0 -78.5 33.5t-32.5 75.5zM526 109q0 47 33.5 77.5t77.5 30.5q49 0 80 -32.5t31 -75.5q0 -45 -33 -78t-78 -33q-46 0 -78.5 34t-32.5 77zM526 324q0 49 34.5 80.5t76.5 31.5q48 0 79.5 -34.5t31.5 -77.5q0 -44 -33.5 -76.5t-77.5 -32.5 q-46 0 -78.5 34t-32.5 75zM526 539q0 48 33.5 77t77.5 29q50 0 80.5 -31.5t30.5 -74.5q0 -44 -32.5 -75.5t-78.5 -31.5q-49 0 -80 32.5t-31 74.5zM526 1401q0 48 34 79t77 31q48 0 79.5 -33.5t31.5 -76.5q0 -45 -33 -77t-78 -32q-46 0 -78.5 33.5t-32.5 75.5zM745 756 q0 44 32 74t75 30q50 0 80.5 -31t30.5 -73q0 -47 -33 -79t-78 -32q-47 0 -77 33.5t-30 77.5zM745 1401q0 48 32.5 79t74.5 31q46 0 78.5 -33t32.5 -77q0 -46 -33.5 -77.5t-77.5 -31.5q-45 0 -76 33.5t-31 75.5zM961 971q0 48 32 78t76 30q49 0 80 -32.5t31 -75.5 q0 -44 -33.5 -76.5t-77.5 -32.5q-48 0 -78 34t-30 75zM961 1401q0 48 32 79t76 31q46 0 78.5 -33.5t32.5 -76.5q0 -45 -33.5 -77t-77.5 -32q-45 0 -76.5 33.5t-31.5 75.5zM1176 1186q0 49 33 78.5t75 29.5q48 0 77.5 -32.5t29.5 -75.5q0 -48 -32 -78.5t-75 -30.5 q-45 0 -76.5 32.5t-31.5 76.5zM1176 1401q0 50 33 80t75 30q45 0 76 -33t31 -77q0 -46 -32.5 -77.5t-74.5 -31.5q-45 0 -76.5 32.5t-31.5 76.5z" />
<glyph unicode="8" d="M98 324q0 50 34 81t75 31q46 0 76 -34t30 -78q0 -46 -31.5 -77.5t-74.5 -31.5q-45 0 -77 33.5t-32 75.5zM98 539q0 49 33 77.5t76 28.5q49 0 77.5 -30.5t28.5 -75.5q0 -46 -31 -76.5t-75 -30.5q-48 0 -78.5 32.5t-30.5 74.5zM98 971q0 51 33 79.5t76 28.5q49 0 77.5 -32 t28.5 -76q0 -47 -31.5 -78t-74.5 -31q-49 0 -79 33.5t-30 75.5zM98 1186q0 48 33 78t76 30q49 0 77.5 -32t28.5 -76q0 -48 -31 -78.5t-75 -30.5q-45 0 -77 33t-32 76zM311 109q0 46 33.5 77t77.5 31q46 0 76 -32.5t30 -75.5q0 -45 -32 -78t-74 -33q-46 0 -78.5 34t-32.5 77z M311 756q0 44 33.5 74t77.5 30q48 0 77 -31.5t29 -72.5q0 -46 -31.5 -78.5t-74.5 -32.5q-49 0 -80 33.5t-31 77.5zM311 1401q0 48 33.5 79t77.5 31t75 -33.5t31 -76.5q0 -45 -32 -77t-74 -32q-46 0 -78.5 33.5t-32.5 75.5zM526 109q0 47 33.5 77.5t77.5 30.5q49 0 80 -32.5 t31 -75.5q0 -45 -33 -78t-78 -33q-46 0 -78.5 34t-32.5 77zM526 756q0 45 34 74.5t77 29.5q52 0 81.5 -31t29.5 -73q0 -46 -32.5 -78.5t-78.5 -32.5q-49 0 -80 33.5t-31 77.5zM526 1401q0 48 34 79t77 31q48 0 79.5 -33.5t31.5 -76.5q0 -45 -33 -77t-78 -32 q-46 0 -78.5 33.5t-32.5 75.5zM745 109q0 46 33 77t74 31q48 0 79.5 -32.5t31.5 -75.5q0 -46 -33.5 -78.5t-77.5 -32.5t-75.5 34t-31.5 77zM745 756q0 44 32 74t75 30q50 0 80.5 -31t30.5 -73q0 -47 -33 -79t-78 -32q-47 0 -77 33.5t-30 77.5zM745 1401q0 48 32.5 79 t74.5 31q46 0 78.5 -33t32.5 -77q0 -46 -33.5 -77.5t-77.5 -31.5q-45 0 -76 33.5t-31 75.5zM961 109q0 46 32 77t76 31q48 0 79.5 -32.5t31.5 -75.5q0 -45 -34 -78t-77 -33q-45 0 -76.5 34t-31.5 77zM961 756q0 45 32 74.5t76 29.5q50 0 80.5 -31.5t30.5 -72.5 q0 -45 -33 -78t-78 -33q-47 0 -77.5 33.5t-30.5 77.5zM961 1401q0 48 32 79t76 31q46 0 78.5 -33.5t32.5 -76.5q0 -45 -33.5 -77t-77.5 -32q-45 0 -76.5 33.5t-31.5 75.5zM1176 324q0 50 33.5 81t74.5 31q45 0 76 -34t31 -78q0 -46 -32.5 -77.5t-74.5 -31.5 q-45 0 -76.5 33.5t-31.5 75.5zM1176 539q0 50 32.5 78t75.5 28q48 0 77.5 -31t29.5 -75q0 -46 -32 -76.5t-75 -30.5q-47 0 -77.5 32.5t-30.5 74.5zM1176 971q0 51 32.5 79.5t75.5 28.5q48 0 77.5 -32.5t29.5 -75.5q0 -46 -32.5 -77.5t-74.5 -31.5q-48 0 -78 33t-30 76z M1176 1186q0 49 33 78.5t75 29.5q48 0 77.5 -32.5t29.5 -75.5q0 -48 -32 -78.5t-75 -30.5q-45 0 -76.5 32.5t-31.5 76.5z" />
<glyph unicode="9" d="M98 971q0 51 33 79.5t76 28.5q49 0 77.5 -32t28.5 -76q0 -47 -31.5 -78t-74.5 -31q-49 0 -79 33.5t-30 75.5zM98 1186q0 48 33 78t76 30q49 0 77.5 -32t28.5 -76q0 -48 -31 -78.5t-75 -30.5q-45 0 -77 33t-32 76zM311 109q0 46 33.5 77t77.5 31q46 0 76 -32.5t30 -75.5 q0 -45 -32 -78t-74 -33q-46 0 -78.5 34t-32.5 77zM311 756q0 44 33.5 74t77.5 30q48 0 77 -31.5t29 -72.5q0 -46 -31.5 -78.5t-74.5 -32.5q-49 0 -80 33.5t-31 77.5zM311 1401q0 48 33.5 79t77.5 31t75 -33.5t31 -76.5q0 -45 -32 -77t-74 -32q-46 0 -78.5 33.5t-32.5 75.5z M526 109q0 47 33.5 77.5t77.5 30.5q49 0 80 -32.5t31 -75.5q0 -45 -33 -78t-78 -33q-46 0 -78.5 34t-32.5 77zM526 756q0 45 34 74.5t77 29.5q52 0 81.5 -31t29.5 -73q0 -46 -32.5 -78.5t-78.5 -32.5q-49 0 -80 33.5t-31 77.5zM526 1401q0 48 34 79t77 31q48 0 79.5 -33.5 t31.5 -76.5q0 -45 -33 -77t-78 -32q-46 0 -78.5 33.5t-32.5 75.5zM745 109q0 46 33 77t74 31q48 0 79.5 -32.5t31.5 -75.5q0 -46 -33.5 -78.5t-77.5 -32.5t-75.5 34t-31.5 77zM745 756q0 44 32 74t75 30q50 0 80.5 -31t30.5 -73q0 -47 -33 -79t-78 -32q-47 0 -77 33.5 t-30 77.5zM745 1401q0 48 32.5 79t74.5 31q46 0 78.5 -33t32.5 -77q0 -46 -33.5 -77.5t-77.5 -31.5q-45 0 -76 33.5t-31 75.5zM961 324q0 48 32 80t76 32q46 0 78.5 -34.5t32.5 -77.5q0 -44 -34 -76.5t-77 -32.5q-44 0 -76 34t-32 75zM961 756q0 45 32 74.5t76 29.5 q50 0 80.5 -31.5t30.5 -72.5q0 -45 -33 -78t-78 -33q-47 0 -77.5 33.5t-30.5 77.5zM961 1401q0 48 32 79t76 31q46 0 78.5 -33.5t32.5 -76.5q0 -45 -33.5 -77t-77.5 -32q-45 0 -76.5 33.5t-31.5 75.5zM1176 539q0 50 32.5 78t75.5 28q48 0 77.5 -31t29.5 -75 q0 -46 -32 -76.5t-75 -30.5q-47 0 -77.5 32.5t-30.5 74.5zM1176 756q0 47 32.5 75.5t75.5 28.5q49 0 78 -31t29 -73q0 -48 -32 -79.5t-75 -31.5q-47 0 -77.5 33.5t-30.5 77.5zM1176 971q0 51 32.5 79.5t75.5 28.5q48 0 77.5 -32.5t29.5 -75.5q0 -46 -32.5 -77.5t-74.5 -31.5 q-48 0 -78 33t-30 76zM1176 1186q0 49 33 78.5t75 29.5q48 0 77.5 -32.5t29.5 -75.5q0 -48 -32 -78.5t-75 -30.5q-45 0 -76.5 32.5t-31.5 76.5z" />
<glyph unicode=":" d="M526 109q0 47 33.5 77.5t77.5 30.5q49 0 80 -32.5t31 -75.5q0 -45 -33 -78t-78 -33q-46 0 -78.5 34t-32.5 77zM526 324q0 49 34.5 80.5t76.5 31.5q48 0 79.5 -34.5t31.5 -77.5q0 -44 -33.5 -76.5t-77.5 -32.5q-46 0 -78.5 34t-32.5 75zM526 756q0 45 34 74.5t77 29.5 q52 0 81.5 -31t29.5 -73q0 -46 -32.5 -78.5t-78.5 -32.5q-49 0 -80 33.5t-31 77.5zM526 971q0 49 33.5 78.5t77.5 29.5q50 0 80.5 -32t30.5 -76t-32.5 -76.5t-78.5 -32.5q-50 0 -80.5 34t-30.5 75zM745 109q0 46 33 77t74 31q48 0 79.5 -32.5t31.5 -75.5q0 -46 -33.5 -78.5 t-77.5 -32.5t-75.5 34t-31.5 77zM745 324q0 48 32.5 80t74.5 32q46 0 78.5 -34t32.5 -78q0 -45 -33.5 -77t-77.5 -32t-75.5 34t-31.5 75zM745 756q0 44 32 74t75 30q50 0 80.5 -31t30.5 -73q0 -47 -33 -79t-78 -32q-47 0 -77 33.5t-30 77.5zM745 971q0 47 32.5 77.5 t74.5 30.5q49 0 80 -32.5t31 -75.5q0 -45 -33 -77t-78 -32q-48 0 -77.5 33.5t-29.5 75.5z" />
<glyph unicode=";" d="M311 -106q0 51 34 73.5t74.5 17t74.5 -31t34 -59.5q0 -44 -31.5 -75.5t-74.5 -31.5q-49 0 -80 32.5t-31 74.5zM526 -106q0 46 34 77t77 31q52 0 81.5 -33t29.5 -75q0 -44 -32.5 -75.5t-78.5 -31.5q-49 0 -80 32.5t-31 74.5zM526 109q0 47 33.5 77.5t77.5 30.5 q49 0 80 -32.5t31 -75.5q0 -45 -33 -78t-78 -33q-46 0 -78.5 34t-32.5 77zM526 324q0 49 34.5 80.5t76.5 31.5q48 0 79.5 -34.5t31.5 -77.5q0 -44 -33.5 -76.5t-77.5 -32.5q-46 0 -78.5 34t-32.5 75zM526 756q0 45 34 74.5t77 29.5q52 0 81.5 -31t29.5 -73 q0 -46 -32.5 -78.5t-78.5 -32.5q-49 0 -80 33.5t-31 77.5zM526 971q0 49 33.5 78.5t77.5 29.5q50 0 80.5 -32t30.5 -76t-32.5 -76.5t-78.5 -32.5q-50 0 -80.5 34t-30.5 75zM745 109q0 46 33 77t74 31q48 0 79.5 -32.5t31.5 -75.5q0 -46 -33.5 -78.5t-77.5 -32.5t-75.5 34 t-31.5 77zM745 324q0 48 32.5 80t74.5 32q46 0 78.5 -34t32.5 -78q0 -45 -33.5 -77t-77.5 -32t-75.5 34t-31.5 75zM745 756q0 44 32 74t75 30q50 0 80.5 -31t30.5 -73q0 -47 -33 -79t-78 -32q-47 0 -77 33.5t-30 77.5zM745 971q0 47 32.5 77.5t74.5 30.5q49 0 80 -32.5 t31 -75.5q0 -45 -33 -77t-78 -32q-48 0 -77.5 33.5t-29.5 75.5z" />
<glyph unicode="&#x3c;" d="M254 756q0 45 31.5 74.5t76.5 29.5q50 0 78.5 -31.5t28.5 -72.5q0 -46 -31.5 -78.5t-75.5 -32.5q-50 0 -79 33.5t-29 77.5zM467 539q0 48 33.5 77t77.5 29q50 0 80 -31t30 -75q0 -45 -31.5 -76t-78.5 -31q-49 0 -80 32.5t-31 74.5zM467 971q0 49 33.5 78.5t77.5 29.5 q50 0 80 -32t30 -76q0 -45 -31.5 -77t-78.5 -32q-50 0 -80.5 34t-30.5 75zM686 324q0 48 33 80t76 32q44 0 76 -34.5t32 -77.5q0 -45 -33 -77t-75 -32q-46 0 -77.5 33.5t-31.5 75.5zM686 1186q0 46 33 77t76 31q46 0 77 -32.5t31 -75.5q0 -46 -32.5 -77.5t-75.5 -31.5 q-46 0 -77.5 33t-31.5 76zM901 109q0 46 33.5 77t77.5 31q46 0 77 -32.5t31 -75.5q0 -45 -33 -78t-75 -33q-48 0 -79.5 34t-31.5 77zM901 1401q0 48 33.5 79t77.5 31q45 0 76.5 -34t31.5 -76q0 -45 -33 -77t-75 -32q-48 0 -79.5 33t-31.5 76z" />
<glyph unicode="=" d="M170 539q0 47 18 90q41 16 91 16q49 0 88 -16q18 -43 18 -90q0 -43 -18 -90q-49 -17 -88 -17q-38 0 -91 17q-18 47 -18 90zM170 971q0 43 18 90q46 18 91 18t88 -18q18 -46 18 -90q0 -43 -18 -92q-49 -17 -88 -17q-38 0 -91 17q-18 49 -18 92zM383 539q0 49 20 90 q41 16 89 16q51 0 90 -16q20 -41 20 -90q0 -46 -20 -90q-49 -17 -90 -17q-36 0 -89 17q-20 44 -20 90zM383 971q0 46 20 90q47 18 89 18q46 0 90 -18q20 -44 20 -90q0 -45 -20 -92q-49 -17 -90 -17q-36 0 -89 17q-20 47 -20 92zM600 539q0 38 18 90q39 16 89 16q54 0 90 -16 q22 -46 22 -90q0 -41 -22 -90q-46 -17 -90 -17q-40 0 -89 17q-18 56 -18 90zM600 971q0 34 18 90q43 18 89 18q49 0 90 -18q22 -49 22 -90q0 -40 -22 -92q-46 -17 -90 -17q-40 0 -89 17q-18 59 -18 92zM817 539q0 44 19 90q39 16 90 16q50 0 86 -16q20 -41 20 -90 q0 -46 -20 -90q-46 -17 -86 -17q-41 0 -90 17q-19 49 -19 90zM817 971q0 41 19 90q44 18 90 18t86 -18q20 -44 20 -90q0 -45 -20 -92q-46 -17 -86 -17q-41 0 -90 17q-19 52 -19 92zM1030 539q0 47 21 90q41 16 90 16t88 -16q22 -46 22 -90q0 -41 -22 -90q-49 -17 -88 -17 q-37 0 -90 17q-21 47 -21 90zM1030 971q0 43 21 90q46 18 90 18q45 0 88 -18q22 -49 22 -90q0 -40 -22 -92q-49 -17 -88 -17q-37 0 -90 17q-21 50 -21 92z" />
<glyph unicode="&#x3e;" d="M305 109q0 43 32.5 75.5t80.5 32.5q42 0 75 -31t33 -77q0 -43 -31.5 -77t-76.5 -34q-44 0 -78.5 33t-34.5 78zM305 1401q0 42 33.5 76t79.5 34q42 0 75 -31t33 -79q0 -42 -31.5 -75.5t-76.5 -33.5q-44 0 -78.5 32t-34.5 77zM524 324q0 44 32 78t77 34q43 0 75.5 -32 t32.5 -80q0 -41 -32 -75t-76 -34q-42 0 -75.5 32t-33.5 77zM524 1186q0 43 30.5 75.5t78.5 32.5q43 0 75.5 -31t32.5 -77q0 -42 -31.5 -75.5t-76.5 -33.5q-43 0 -76 31.5t-33 77.5zM739 539q0 44 29.5 75t81.5 31q44 0 76 -28.5t32 -77.5q0 -42 -29.5 -74.5t-78.5 -32.5 q-47 0 -79 31t-32 76zM739 971q0 44 30 76t81 32q44 0 76 -29.5t32 -78.5q0 -42 -29.5 -75.5t-78.5 -33.5q-47 0 -79 32t-32 77zM956 756q0 41 30 72.5t79 31.5q44 0 77.5 -30t33.5 -74t-31 -77.5t-80 -33.5q-43 0 -76 33t-33 78z" />
<glyph unicode="?" d="M98 1186q0 48 33 78t76 30q49 0 77.5 -32t28.5 -76q0 -48 -31 -78.5t-75 -30.5q-45 0 -77 33t-32 76zM311 1401q0 48 33.5 79t77.5 31t75 -33.5t31 -76.5q0 -45 -32 -77t-74 -32q-46 0 -78.5 33.5t-32.5 75.5zM526 109q0 47 33.5 77.5t77.5 30.5q49 0 80 -32.5t31 -75.5 q0 -45 -33 -78t-78 -33q-46 0 -78.5 34t-32.5 77zM526 539q0 48 33.5 77t77.5 29q50 0 80.5 -31.5t30.5 -74.5q0 -44 -32.5 -75.5t-78.5 -31.5q-49 0 -80 32.5t-31 74.5zM526 1401q0 48 34 79t77 31q48 0 79.5 -33.5t31.5 -76.5q0 -45 -33 -77t-78 -32q-46 0 -78.5 33.5 t-32.5 75.5zM745 756q0 44 32 74t75 30q50 0 80.5 -31t30.5 -73q0 -47 -33 -79t-78 -32q-47 0 -77 33.5t-30 77.5zM745 1401q0 48 32.5 79t74.5 31q46 0 78.5 -33t32.5 -77q0 -46 -33.5 -77.5t-77.5 -31.5q-45 0 -76 33.5t-31 75.5zM961 756q0 45 32 74.5t76 29.5 q50 0 80.5 -31.5t30.5 -72.5q0 -45 -33 -78t-78 -33q-47 0 -77.5 33.5t-30.5 77.5zM961 1401q0 48 32 79t76 31q46 0 78.5 -33.5t32.5 -76.5q0 -45 -33.5 -77t-77.5 -32q-45 0 -76.5 33.5t-31.5 75.5zM1176 971q0 51 32.5 79.5t75.5 28.5q48 0 77.5 -32.5t29.5 -75.5 q0 -46 -32.5 -77.5t-74.5 -31.5q-48 0 -78 33t-30 76zM1176 1186q0 49 33 78.5t75 29.5q48 0 77.5 -32.5t29.5 -75.5q0 -48 -32 -78.5t-75 -30.5q-45 0 -76.5 32.5t-31.5 76.5z" />
<glyph unicode="@" d="M98 539q0 49 33 77.5t76 28.5q49 0 77.5 -30.5t28.5 -75.5q0 -46 -31 -76.5t-75 -30.5q-48 0 -78.5 32.5t-30.5 74.5zM98 756q0 47 33 75.5t76 28.5q50 0 78 -30.5t28 -73.5q0 -48 -31 -79.5t-75 -31.5q-48 0 -78.5 34t-30.5 77zM98 971q0 51 33 79.5t76 28.5 q49 0 77.5 -32t28.5 -76q0 -47 -31.5 -78t-74.5 -31q-49 0 -79 33.5t-30 75.5zM311 324q0 48 33.5 80t77.5 32t75 -34.5t31 -77.5q0 -44 -32 -76.5t-74 -32.5q-46 0 -78.5 34t-32.5 75zM311 1186q0 46 33.5 77t77.5 31q47 0 76.5 -33t29.5 -75q0 -45 -32 -77t-74 -32 q-46 0 -78.5 33.5t-32.5 75.5zM526 109q0 47 33.5 77.5t77.5 30.5q49 0 80 -32.5t31 -75.5q0 -45 -33 -78t-78 -33q-46 0 -78.5 34t-32.5 77zM526 547q0 46 34 76t77 30q52 0 81.5 -31.5t29.5 -74.5q0 -44 -32.5 -75.5t-78.5 -31.5q-49 0 -80 32.5t-31 74.5zM526 762 q0 45 34 74.5t77 29.5q52 0 81.5 -31t29.5 -73q0 -46 -32.5 -78.5t-78.5 -32.5q-49 0 -80 33.5t-31 77.5zM526 975q0 44 34 75t77 31q52 0 81.5 -32.5t29.5 -73.5q0 -45 -33 -78t-78 -33q-49 0 -80 34.5t-31 76.5zM526 1401q0 48 34 79t77 31q48 0 79.5 -33.5t31.5 -76.5 q0 -45 -33 -77t-78 -32q-46 0 -78.5 33.5t-32.5 75.5zM745 109q0 46 33 77t74 31q48 0 79.5 -32.5t31.5 -75.5q0 -46 -33.5 -78.5t-77.5 -32.5t-75.5 34t-31.5 77zM745 539q0 47 32.5 76.5t74.5 29.5q50 0 80.5 -31t30.5 -75q0 -45 -33 -76t-78 -31q-47 0 -77 32.5t-30 74.5 zM745 971q0 47 32.5 77.5t74.5 30.5q49 0 80 -32.5t31 -75.5q0 -45 -33 -77t-78 -32q-48 0 -77.5 33.5t-29.5 75.5zM745 1401q0 48 32.5 79t74.5 31q46 0 78.5 -33t32.5 -77q0 -46 -33.5 -77.5t-77.5 -31.5q-45 0 -76 33.5t-31 75.5zM961 109q0 46 32 77t76 31 q48 0 79.5 -32.5t31.5 -75.5q0 -45 -34 -78t-77 -33q-45 0 -76.5 34t-31.5 77zM961 539q0 48 31.5 77t76.5 29q49 0 80 -31.5t31 -74.5q0 -44 -33 -75.5t-78 -31.5q-47 0 -77.5 32.5t-30.5 74.5zM961 756q0 45 32 74.5t76 29.5q50 0 80.5 -31.5t30.5 -72.5q0 -45 -33 -78 t-78 -33q-47 0 -77.5 33.5t-30.5 77.5zM961 1401q0 48 32 79t76 31q46 0 78.5 -33.5t32.5 -76.5q0 -45 -33.5 -77t-77.5 -32q-45 0 -76.5 33.5t-31.5 75.5zM1176 109q0 49 33 78.5t75 29.5q46 0 76.5 -32.5t30.5 -75.5q0 -48 -32 -79.5t-75 -31.5q-45 0 -76.5 33.5 t-31.5 77.5zM1176 756q0 47 32.5 75.5t75.5 28.5q49 0 78 -31t29 -73q0 -48 -32 -79.5t-75 -31.5q-47 0 -77.5 33.5t-30.5 77.5zM1176 971q0 51 32.5 79.5t75.5 28.5q48 0 77.5 -32.5t29.5 -75.5q0 -46 -32.5 -77.5t-74.5 -31.5q-48 0 -78 33t-30 76zM1176 1186 q0 49 33 78.5t75 29.5q48 0 77.5 -32.5t29.5 -75.5q0 -48 -32 -78.5t-75 -30.5q-45 0 -76.5 32.5t-31.5 76.5z" />
<glyph unicode="A" d="M98 109q0 48 33 78t76 30q47 0 76.5 -32.5t29.5 -75.5q0 -48 -31 -79.5t-75 -31.5q-45 0 -77 33.5t-32 77.5zM98 324q0 50 34 81t75 31q46 0 76 -34t30 -78q0 -46 -31.5 -77.5t-74.5 -31.5q-45 0 -77 33.5t-32 75.5zM98 539q0 49 33 77.5t76 28.5q49 0 77.5 -30.5 t28.5 -75.5q0 -46 -31 -76.5t-75 -30.5q-48 0 -78.5 32.5t-30.5 74.5zM98 756q0 47 33 75.5t76 28.5q50 0 78 -30.5t28 -73.5q0 -48 -31 -79.5t-75 -31.5q-48 0 -78.5 34t-30.5 77zM98 971q0 51 33 79.5t76 28.5q49 0 77.5 -32t28.5 -76q0 -47 -31.5 -78t-74.5 -31 q-55 0 -82 33.5t-27 75.5zM311 756q0 44 33.5 74t77.5 30q48 0 77 -31.5t29 -72.5q0 -46 -31.5 -78.5t-74.5 -32.5q-49 0 -80 33.5t-31 77.5zM311 1186q0 46 33.5 77t77.5 31q47 0 76.5 -33t29.5 -75q0 -45 -32 -77t-74 -32q-46 0 -78.5 33.5t-32.5 75.5zM526 756 q0 45 34 74.5t77 29.5q52 0 81.5 -31t29.5 -73q0 -46 -32.5 -78.5t-78.5 -32.5q-49 0 -80 33.5t-31 77.5zM526 1401q0 48 34 79t77 31q48 0 79.5 -33.5t31.5 -76.5q0 -45 -33 -77t-78 -32q-46 0 -78.5 33.5t-32.5 75.5zM745 756q0 44 32 74t75 30q50 0 80.5 -31t30.5 -73 q0 -47 -33 -79t-78 -32q-47 0 -77 33.5t-30 77.5zM745 1401q0 48 32.5 79t74.5 31q46 0 78.5 -33t32.5 -77q0 -46 -33.5 -77.5t-77.5 -31.5q-45 0 -76 33.5t-31 75.5zM961 756q0 45 32 74.5t76 29.5q50 0 80.5 -31.5t30.5 -72.5q0 -45 -33 -78t-78 -33q-47 0 -77.5 33.5 t-30.5 77.5zM961 1186q0 46 32 77t76 31q49 0 80 -33t31 -75q0 -45 -33.5 -77t-77.5 -32q-45 0 -76.5 33.5t-31.5 75.5zM1176 109q0 49 33 78.5t75 29.5q46 0 76.5 -32.5t30.5 -75.5q0 -48 -32 -79.5t-75 -31.5q-45 0 -76.5 33.5t-31.5 77.5zM1176 324q0 50 33.5 81t74.5 31 q45 0 76 -34t31 -78q0 -46 -32.5 -77.5t-74.5 -31.5q-45 0 -76.5 33.5t-31.5 75.5zM1176 539q0 50 32.5 78t75.5 28q48 0 77.5 -31t29.5 -75q0 -46 -32 -76.5t-75 -30.5q-47 0 -77.5 32.5t-30.5 74.5zM1176 756q0 47 32.5 75.5t75.5 28.5q49 0 78 -31t29 -73 q0 -48 -32 -79.5t-75 -31.5q-47 0 -77.5 33.5t-30.5 77.5zM1176 971q0 51 32.5 79.5t75.5 28.5q48 0 77.5 -32.5t29.5 -75.5q0 -46 -32.5 -77.5t-74.5 -31.5q-48 0 -78 33t-30 76z" />
<glyph unicode="B" d="M98 109q0 48 33 78t76 30q47 0 76.5 -32.5t29.5 -75.5q0 -48 -31 -79.5t-75 -31.5q-45 0 -77 33.5t-32 77.5zM98 1401q0 49 33.5 79.5t75.5 30.5q46 0 76 -33t30 -77q0 -47 -31.5 -78t-74.5 -31q-45 0 -77 33t-32 76zM311 109q0 46 33.5 77t77.5 31q46 0 76 -32.5 t30 -75.5q0 -45 -32 -78t-74 -33q-46 0 -78.5 34t-32.5 77zM311 324q0 48 33.5 80t77.5 32t75 -34.5t31 -77.5q0 -44 -32 -76.5t-74 -32.5q-46 0 -78.5 34t-32.5 75zM311 539q0 48 33 77t78 29q48 0 77 -31.5t29 -74.5q0 -44 -31.5 -75.5t-74.5 -31.5q-49 0 -80 32.5 t-31 74.5zM311 756q0 44 33.5 74t77.5 30q48 0 77 -31.5t29 -72.5q0 -46 -31.5 -78.5t-74.5 -32.5q-49 0 -80 33.5t-31 77.5zM311 971q0 48 33 78t78 30q47 0 76.5 -32.5t29.5 -75.5q0 -44 -31.5 -76.5t-74.5 -32.5q-50 0 -80.5 34t-30.5 75zM311 1186q0 46 33.5 77t77.5 31 q47 0 76.5 -33t29.5 -75q0 -45 -32 -77t-74 -32q-46 0 -78.5 33.5t-32.5 75.5zM311 1401q0 48 33.5 79t77.5 31t75 -33.5t31 -76.5q0 -45 -32 -77t-74 -32q-46 0 -78.5 33.5t-32.5 75.5zM526 109q0 47 33.5 77.5t77.5 30.5q49 0 80 -32.5t31 -75.5q0 -45 -33 -78t-78 -33 q-46 0 -78.5 34t-32.5 77zM526 756q0 45 34 74.5t77 29.5q52 0 81.5 -31t29.5 -73q0 -46 -32.5 -78.5t-78.5 -32.5q-49 0 -80 33.5t-31 77.5zM526 1401q0 48 34 79t77 31q48 0 79.5 -33.5t31.5 -76.5q0 -45 -33 -77t-78 -32q-46 0 -78.5 33.5t-32.5 75.5zM745 109 q0 46 33 77t74 31q48 0 79.5 -32.5t31.5 -75.5q0 -46 -33.5 -78.5t-77.5 -32.5t-75.5 34t-31.5 77zM745 756q0 44 32 74t75 30q50 0 80.5 -31t30.5 -73q0 -47 -33 -79t-78 -32q-47 0 -77 33.5t-30 77.5zM745 1401q0 48 32.5 79t74.5 31q46 0 78.5 -33t32.5 -77 q0 -46 -33.5 -77.5t-77.5 -31.5q-45 0 -76 33.5t-31 75.5zM961 109q0 46 32 77t76 31q48 0 79.5 -32.5t31.5 -75.5q0 -45 -34 -78t-77 -33q-45 0 -76.5 34t-31.5 77zM961 756q0 45 32 74.5t76 29.5q50 0 80.5 -31.5t30.5 -72.5q0 -45 -33 -78t-78 -33q-47 0 -77.5 33.5 t-30.5 77.5zM961 1401q0 48 32 79t76 31q46 0 78.5 -33.5t32.5 -76.5q0 -45 -33.5 -77t-77.5 -32q-45 0 -76.5 33.5t-31.5 75.5zM1176 324q0 50 33.5 81t74.5 31q45 0 76 -34t31 -78q0 -46 -32.5 -77.5t-74.5 -31.5q-45 0 -76.5 33.5t-31.5 75.5zM1176 539q0 50 32.5 78 t75.5 28q48 0 77.5 -31t29.5 -75q0 -46 -32 -76.5t-75 -30.5q-47 0 -77.5 32.5t-30.5 74.5zM1176 971q0 51 32.5 79.5t75.5 28.5q48 0 77.5 -32.5t29.5 -75.5q0 -46 -32.5 -77.5t-74.5 -31.5q-48 0 -78 33t-30 76zM1176 1186q0 49 33 78.5t75 29.5q48 0 77.5 -32.5 t29.5 -75.5q0 -48 -32 -78.5t-75 -30.5q-45 0 -76.5 32.5t-31.5 76.5z" />
<glyph unicode="C" d="M98 324q0 50 34 81t75 31q46 0 76 -34t30 -78q0 -46 -31.5 -77.5t-74.5 -31.5q-45 0 -77 33.5t-32 75.5zM98 539q0 49 33 77.5t76 28.5q49 0 77.5 -30.5t28.5 -75.5q0 -46 -31 -76.5t-75 -30.5q-48 0 -78.5 32.5t-30.5 74.5zM98 756q0 47 33 75.5t76 28.5q50 0 78 -30.5 t28 -73.5q0 -48 -31 -79.5t-75 -31.5q-48 0 -78.5 34t-30.5 77zM98 971q0 51 33 79.5t76 28.5q49 0 77.5 -32t28.5 -76q0 -47 -31.5 -78t-74.5 -31q-49 0 -79 33.5t-30 75.5zM98 1186q0 48 33 78t76 30q49 0 77.5 -32t28.5 -76q0 -48 -31 -78.5t-75 -30.5q-45 0 -77 33 t-32 76zM311 109q0 46 33.5 77t77.5 31q46 0 76 -32.5t30 -75.5q0 -45 -32 -78t-74 -33q-46 0 -78.5 34t-32.5 77zM311 1401q0 48 33.5 79t77.5 31t75 -33.5t31 -76.5q0 -45 -32 -77t-74 -32q-46 0 -78.5 33.5t-32.5 75.5zM526 109q0 47 33.5 77.5t77.5 30.5q49 0 80 -32.5 t31 -75.5q0 -45 -33 -78t-78 -33q-46 0 -78.5 34t-32.5 77zM526 1401q0 48 34 79t77 31q48 0 79.5 -33.5t31.5 -76.5q0 -45 -33 -77t-78 -32q-46 0 -78.5 33.5t-32.5 75.5zM745 109q0 46 33 77t74 31q48 0 79.5 -32.5t31.5 -75.5q0 -46 -33.5 -78.5t-77.5 -32.5t-75.5 34 t-31.5 77zM745 1401q0 48 32.5 79t74.5 31q46 0 78.5 -33t32.5 -77q0 -46 -33.5 -77.5t-77.5 -31.5q-45 0 -76 33.5t-31 75.5zM961 109q0 46 32 77t76 31q48 0 79.5 -32.5t31.5 -75.5q0 -45 -34 -78t-77 -33q-45 0 -76.5 34t-31.5 77zM961 1401q0 48 32 79t76 31 q46 0 78.5 -33.5t32.5 -76.5q0 -45 -33.5 -77t-77.5 -32q-45 0 -76.5 33.5t-31.5 75.5zM1176 324q0 50 33.5 81t74.5 31q45 0 76 -34t31 -78q0 -46 -32.5 -77.5t-74.5 -31.5q-45 0 -76.5 33.5t-31.5 75.5zM1176 1186q0 49 33 78.5t75 29.5q48 0 77.5 -32.5t29.5 -75.5 q0 -48 -32 -78.5t-75 -30.5q-45 0 -76.5 32.5t-31.5 76.5z" />
<glyph unicode="D" d="M98 109q0 48 33 78t76 30q47 0 76.5 -32.5t29.5 -75.5q0 -48 -31 -79.5t-75 -31.5q-45 0 -77 33.5t-32 77.5zM98 1401q0 49 33.5 79.5t75.5 30.5q46 0 76 -33t30 -77q0 -47 -31.5 -78t-74.5 -31q-45 0 -77 33t-32 76zM311 109q0 46 33.5 77t77.5 31q46 0 76 -32.5 t30 -75.5q0 -45 -32 -78t-74 -33q-46 0 -78.5 34t-32.5 77zM311 324q0 48 33.5 80t77.5 32t75 -34.5t31 -77.5q0 -44 -32 -76.5t-74 -32.5q-46 0 -78.5 34t-32.5 75zM311 539q0 48 33 77t78 29q48 0 77 -31.5t29 -74.5q0 -44 -31.5 -75.5t-74.5 -31.5q-49 0 -80 32.5 t-31 74.5zM311 756q0 44 33.5 74t77.5 30q48 0 77 -31.5t29 -72.5q0 -46 -31.5 -78.5t-74.5 -32.5q-49 0 -80 33.5t-31 77.5zM311 971q0 48 33 78t78 30q47 0 76.5 -32.5t29.5 -75.5q0 -44 -31.5 -76.5t-74.5 -32.5q-50 0 -80.5 34t-30.5 75zM311 1186q0 46 33.5 77t77.5 31 q47 0 76.5 -33t29.5 -75q0 -45 -32 -77t-74 -32q-46 0 -78.5 33.5t-32.5 75.5zM311 1401q0 48 33.5 79t77.5 31t75 -33.5t31 -76.5q0 -45 -32 -77t-74 -32q-46 0 -78.5 33.5t-32.5 75.5zM526 109q0 47 33.5 77.5t77.5 30.5q49 0 80 -32.5t31 -75.5q0 -45 -33 -78t-78 -33 q-46 0 -78.5 34t-32.5 77zM526 1401q0 48 34 79t77 31q48 0 79.5 -33.5t31.5 -76.5q0 -45 -33 -77t-78 -32q-46 0 -78.5 33.5t-32.5 75.5zM745 109q0 46 33 77t74 31q48 0 79.5 -32.5t31.5 -75.5q0 -46 -33.5 -78.5t-77.5 -32.5t-75.5 34t-31.5 77zM745 1401q0 48 32.5 79 t74.5 31q46 0 78.5 -33t32.5 -77q0 -46 -33.5 -77.5t-77.5 -31.5q-45 0 -76 33.5t-31 75.5zM961 109q0 46 32 77t76 31q48 0 79.5 -32.5t31.5 -75.5q0 -45 -34 -78t-77 -33q-45 0 -76.5 34t-31.5 77zM961 1401q0 48 32 79t76 31q46 0 78.5 -33.5t32.5 -76.5q0 -45 -33.5 -77 t-77.5 -32q-45 0 -76.5 33.5t-31.5 75.5zM1176 324q0 50 33.5 81t74.5 31q45 0 76 -34t31 -78q0 -46 -32.5 -77.5t-74.5 -31.5q-45 0 -76.5 33.5t-31.5 75.5zM1176 539q0 50 32.5 78t75.5 28q48 0 77.5 -31t29.5 -75q0 -46 -32 -76.5t-75 -30.5q-47 0 -77.5 32.5t-30.5 74.5 zM1176 756q0 47 32.5 75.5t75.5 28.5q49 0 78 -31t29 -73q0 -48 -32 -79.5t-75 -31.5q-47 0 -77.5 33.5t-30.5 77.5zM1176 971q0 51 32.5 79.5t75.5 28.5q48 0 77.5 -32.5t29.5 -75.5q0 -46 -32.5 -77.5t-74.5 -31.5q-48 0 -78 33t-30 76zM1176 1186q0 49 33 78.5t75 29.5 q48 0 77.5 -32.5t29.5 -75.5q0 -48 -32 -78.5t-75 -30.5q-45 0 -76.5 32.5t-31.5 76.5z" />
<glyph unicode="E" d="M98 109q0 48 33 78t76 30q47 0 76.5 -32.5t29.5 -75.5q0 -48 -31 -79.5t-75 -31.5q-45 0 -77 33.5t-32 77.5zM98 324q0 50 34 81t75 31q46 0 76 -34t30 -78q0 -46 -31.5 -77.5t-74.5 -31.5q-45 0 -77 33.5t-32 75.5zM98 539q0 49 33 77.5t76 28.5q49 0 77.5 -30.5 t28.5 -75.5q0 -46 -31 -76.5t-75 -30.5q-48 0 -78.5 32.5t-30.5 74.5zM98 756q0 47 33 75.5t76 28.5q50 0 78 -30.5t28 -73.5q0 -48 -31 -79.5t-75 -31.5q-48 0 -78.5 34t-30.5 77zM98 971q0 51 33 79.5t76 28.5q49 0 77.5 -32t28.5 -76q0 -47 -31.5 -78t-74.5 -31 q-49 0 -79 33.5t-30 75.5zM98 1186q0 48 33 78t76 30q49 0 77.5 -32t28.5 -76q0 -48 -31 -78.5t-75 -30.5q-45 0 -77 33t-32 76zM98 1401q0 49 33.5 79.5t75.5 30.5q46 0 76 -33t30 -77q0 -47 -31.5 -78t-74.5 -31q-45 0 -77 33t-32 76zM311 109q0 46 33.5 77t77.5 31 q46 0 76 -32.5t30 -75.5q0 -45 -32 -78t-74 -33q-46 0 -78.5 34t-32.5 77zM311 756q0 44 33.5 74t77.5 30q48 0 77 -31.5t29 -72.5q0 -46 -31.5 -78.5t-74.5 -32.5q-49 0 -80 33.5t-31 77.5zM311 1401q0 48 33.5 79t77.5 31t75 -33.5t31 -76.5q0 -45 -32 -77t-74 -32 q-46 0 -78.5 33.5t-32.5 75.5zM526 109q0 47 33.5 77.5t77.5 30.5q49 0 80 -32.5t31 -75.5q0 -45 -33 -78t-78 -33q-46 0 -78.5 34t-32.5 77zM526 756q0 45 34 74.5t77 29.5q52 0 81.5 -31t29.5 -73q0 -46 -32.5 -78.5t-78.5 -32.5q-49 0 -80 33.5t-31 77.5zM526 1401 q0 48 34 79t77 31q48 0 79.5 -33.5t31.5 -76.5q0 -45 -33 -77t-78 -32q-46 0 -78.5 33.5t-32.5 75.5zM745 109q0 46 33 77t74 31q48 0 79.5 -32.5t31.5 -75.5q0 -46 -33.5 -78.5t-77.5 -32.5t-75.5 34t-31.5 77zM745 756q0 44 32 74t75 30q50 0 80.5 -31t30.5 -73 q0 -47 -33 -79t-78 -32q-47 0 -77 33.5t-30 77.5zM745 1401q0 48 32.5 79t74.5 31q46 0 78.5 -33t32.5 -77q0 -46 -33.5 -77.5t-77.5 -31.5q-45 0 -76 33.5t-31 75.5zM961 109q0 46 32 77t76 31q48 0 79.5 -32.5t31.5 -75.5q0 -45 -34 -78t-77 -33q-45 0 -76.5 34t-31.5 77z M961 1401q0 48 32 79t76 31q46 0 78.5 -33.5t32.5 -76.5q0 -45 -33.5 -77t-77.5 -32q-45 0 -76.5 33.5t-31.5 75.5zM1176 109q0 49 33 78.5t75 29.5q46 0 76.5 -32.5t30.5 -75.5q0 -48 -32 -79.5t-75 -31.5q-45 0 -76.5 33.5t-31.5 77.5zM1176 1401q0 50 33 80t75 30 q45 0 76 -33t31 -77q0 -46 -32.5 -77.5t-74.5 -31.5q-45 0 -76.5 32.5t-31.5 76.5z" />
<glyph unicode="F" d="M98 109q0 48 33 78t76 30q47 0 76.5 -32.5t29.5 -75.5q0 -48 -31 -79.5t-75 -31.5q-45 0 -77 33.5t-32 77.5zM98 324q0 50 34 81t75 31q46 0 76 -34t30 -78q0 -46 -31.5 -77.5t-74.5 -31.5q-45 0 -77 33.5t-32 75.5zM98 539q0 49 33 77.5t76 28.5q49 0 77.5 -30.5 t28.5 -75.5q0 -46 -31 -76.5t-75 -30.5q-48 0 -78.5 32.5t-30.5 74.5zM98 756q0 47 33 75.5t76 28.5q50 0 78 -30.5t28 -73.5q0 -48 -31 -79.5t-75 -31.5q-48 0 -78.5 34t-30.5 77zM98 971q0 51 33 79.5t76 28.5q49 0 77.5 -32t28.5 -76q0 -47 -31.5 -78t-74.5 -31 q-49 0 -79 33.5t-30 75.5zM98 1186q0 48 33 78t76 30q49 0 77.5 -32t28.5 -76q0 -48 -31 -78.5t-75 -30.5q-45 0 -77 33t-32 76zM98 1401q0 49 33.5 79.5t75.5 30.5q46 0 76 -33t30 -77q0 -47 -31.5 -78t-74.5 -31q-45 0 -77 33t-32 76zM311 756q0 44 33.5 74t77.5 30 q48 0 77 -31.5t29 -72.5q0 -46 -31.5 -78.5t-74.5 -32.5q-49 0 -80 33.5t-31 77.5zM311 1401q0 48 33.5 79t77.5 31t75 -33.5t31 -76.5q0 -45 -32 -77t-74 -32q-46 0 -78.5 33.5t-32.5 75.5zM526 756q0 45 34 74.5t77 29.5q52 0 81.5 -31t29.5 -73q0 -46 -32.5 -78.5 t-78.5 -32.5q-49 0 -80 33.5t-31 77.5zM526 1401q0 48 34 79t77 31q48 0 79.5 -33.5t31.5 -76.5q0 -45 -33 -77t-78 -32q-46 0 -78.5 33.5t-32.5 75.5zM745 756q0 44 32 74t75 30q50 0 80.5 -31t30.5 -73q0 -47 -33 -79t-78 -32q-47 0 -77 33.5t-30 77.5zM745 1401 q0 48 32.5 79t74.5 31q46 0 78.5 -33t32.5 -77q0 -46 -33.5 -77.5t-77.5 -31.5q-45 0 -76 33.5t-31 75.5zM961 1401q0 48 32 79t76 31q46 0 78.5 -33.5t32.5 -76.5q0 -45 -33.5 -77t-77.5 -32q-45 0 -76.5 33.5t-31.5 75.5zM1176 1401q0 50 33 80t75 30q45 0 76 -33t31 -77 q0 -46 -32.5 -77.5t-74.5 -31.5q-45 0 -76.5 32.5t-31.5 76.5z" />
<glyph unicode="G" d="M98 324q0 50 34 81t75 31q46 0 76 -34t30 -78q0 -46 -31.5 -77.5t-74.5 -31.5q-45 0 -77 33.5t-32 75.5zM98 539q0 49 33 77.5t76 28.5q49 0 77.5 -30.5t28.5 -75.5q0 -46 -31 -76.5t-75 -30.5q-48 0 -78.5 32.5t-30.5 74.5zM98 756q0 47 33 75.5t76 28.5q50 0 78 -30.5 t28 -73.5q0 -48 -31 -79.5t-75 -31.5q-48 0 -78.5 34t-30.5 77zM98 971q0 51 33 79.5t76 28.5q49 0 77.5 -32t28.5 -76q0 -47 -31.5 -78t-74.5 -31q-49 0 -79 33.5t-30 75.5zM98 1186q0 48 33 78t76 30q49 0 77.5 -32t28.5 -76q0 -48 -31 -78.5t-75 -30.5q-45 0 -77 33 t-32 76zM311 109q0 46 33.5 77t77.5 31q46 0 76 -32.5t30 -75.5q0 -45 -32 -78t-74 -33q-46 0 -78.5 34t-32.5 77zM311 1401q0 48 33.5 79t77.5 31t75 -33.5t31 -76.5q0 -45 -32 -77t-74 -32q-46 0 -78.5 33.5t-32.5 75.5zM526 109q0 47 33.5 77.5t77.5 30.5q49 0 80 -32.5 t31 -75.5q0 -45 -33 -78t-78 -33q-46 0 -78.5 34t-32.5 77zM526 1401q0 48 34 79t77 31q48 0 79.5 -33.5t31.5 -76.5q0 -45 -33 -77t-78 -32q-46 0 -78.5 33.5t-32.5 75.5zM745 109q0 46 33 77t74 31q48 0 79.5 -32.5t31.5 -75.5q0 -46 -33.5 -78.5t-77.5 -32.5t-75.5 34 t-31.5 77zM745 756q0 44 32 74t75 30q50 0 80.5 -31t30.5 -73q0 -47 -33 -79t-78 -32q-47 0 -77 33.5t-30 77.5zM745 1401q0 48 32.5 79t74.5 31q46 0 78.5 -33t32.5 -77q0 -46 -33.5 -77.5t-77.5 -31.5q-45 0 -76 33.5t-31 75.5zM961 109q0 46 32 77t76 31q48 0 79.5 -32.5 t31.5 -75.5q0 -45 -34 -78t-77 -33q-45 0 -76.5 34t-31.5 77zM961 756q0 45 32 74.5t76 29.5q50 0 80.5 -31.5t30.5 -72.5q0 -45 -33 -78t-78 -33q-47 0 -77.5 33.5t-30.5 77.5zM961 1401q0 48 32 79t76 31q46 0 78.5 -33.5t32.5 -76.5q0 -45 -33.5 -77t-77.5 -32 q-45 0 -76.5 33.5t-31.5 75.5zM1176 324q0 50 33.5 81t74.5 31q45 0 76 -34t31 -78q0 -46 -32.5 -77.5t-74.5 -31.5q-45 0 -76.5 33.5t-31.5 75.5zM1176 539q0 50 32.5 78t75.5 28q48 0 77.5 -31t29.5 -75q0 -46 -32 -76.5t-75 -30.5q-47 0 -77.5 32.5t-30.5 74.5zM1176 756 q0 47 32.5 75.5t75.5 28.5q49 0 78 -31t29 -73q0 -48 -32 -79.5t-75 -31.5q-47 0 -77.5 33.5t-30.5 77.5zM1176 1186q0 49 33 78.5t75 29.5q48 0 77.5 -32.5t29.5 -75.5q0 -48 -32 -78.5t-75 -30.5q-45 0 -76.5 32.5t-31.5 76.5z" />
<glyph unicode="H" d="M98 109q0 48 33 78t76 30q47 0 76.5 -32.5t29.5 -75.5q0 -48 -31 -79.5t-75 -31.5q-45 0 -77 33.5t-32 77.5zM98 324q0 50 34 81t75 31q46 0 76 -34t30 -78q0 -46 -31.5 -77.5t-74.5 -31.5q-45 0 -77 33.5t-32 75.5zM98 539q0 49 33 77.5t76 28.5q49 0 77.5 -30.5 t28.5 -75.5q0 -46 -31 -76.5t-75 -30.5q-48 0 -78.5 32.5t-30.5 74.5zM98 756q0 47 33 75.5t76 28.5q50 0 78 -30.5t28 -73.5q0 -48 -31 -79.5t-75 -31.5q-48 0 -78.5 34t-30.5 77zM98 971q0 51 33 79.5t76 28.5q49 0 77.5 -32t28.5 -76q0 -47 -31.5 -78t-74.5 -31 q-49 0 -79 33.5t-30 75.5zM98 1186q0 48 33 78t76 30q49 0 77.5 -32t28.5 -76q0 -48 -31 -78.5t-75 -30.5q-45 0 -77 33t-32 76zM98 1401q0 49 33.5 79.5t75.5 30.5q46 0 76 -33t30 -77q0 -47 -31.5 -78t-74.5 -31q-45 0 -77 33t-32 76zM311 756q0 44 33.5 74t77.5 30 q48 0 77 -31.5t29 -72.5q0 -46 -31.5 -78.5t-74.5 -32.5q-49 0 -80 33.5t-31 77.5zM526 756q0 45 34 74.5t77 29.5q52 0 81.5 -31t29.5 -73q0 -46 -32.5 -78.5t-78.5 -32.5q-49 0 -80 33.5t-31 77.5zM745 756q0 44 32 74t75 30q50 0 80.5 -31t30.5 -73q0 -47 -33 -79 t-78 -32q-47 0 -77 33.5t-30 77.5zM961 756q0 45 32 74.5t76 29.5q50 0 80.5 -31.5t30.5 -72.5q0 -45 -33 -78t-78 -33q-47 0 -77.5 33.5t-30.5 77.5zM1176 109q0 49 33 78.5t75 29.5q46 0 76.5 -32.5t30.5 -75.5q0 -48 -32 -79.5t-75 -31.5q-45 0 -76.5 33.5t-31.5 77.5z M1176 324q0 50 33.5 81t74.5 31q45 0 76 -34t31 -78q0 -46 -32.5 -77.5t-74.5 -31.5q-45 0 -76.5 33.5t-31.5 75.5zM1176 539q0 50 32.5 78t75.5 28q48 0 77.5 -31t29.5 -75q0 -46 -32 -76.5t-75 -30.5q-47 0 -77.5 32.5t-30.5 74.5zM1176 756q0 47 32.5 75.5t75.5 28.5 q49 0 78 -31t29 -73q0 -48 -32 -79.5t-75 -31.5q-47 0 -77.5 33.5t-30.5 77.5zM1176 971q0 51 32.5 79.5t75.5 28.5q48 0 77.5 -32.5t29.5 -75.5q0 -46 -32.5 -77.5t-74.5 -31.5q-48 0 -78 33t-30 76zM1176 1186q0 49 33 78.5t75 29.5q48 0 77.5 -32.5t29.5 -75.5 q0 -48 -32 -78.5t-75 -30.5q-45 0 -76.5 32.5t-31.5 76.5zM1176 1401q0 50 33 80t75 30q45 0 76 -33t31 -77q0 -46 -32.5 -77.5t-74.5 -31.5q-45 0 -76.5 32.5t-31.5 76.5z" />
<glyph unicode="I" d="M410 109q0 48 32 78t76 30q50 0 80.5 -32t30.5 -76q0 -46 -32.5 -78.5t-78.5 -32.5t-77 34t-31 77zM410 1401q0 49 32.5 79.5t75.5 30.5q49 0 80 -33.5t31 -76.5q0 -46 -32.5 -77.5t-78.5 -31.5t-77 33t-31 76zM627 109q0 46 32.5 77t75.5 31q46 0 77.5 -32.5t31.5 -75.5 q0 -46 -33.5 -78.5t-75.5 -32.5q-46 0 -77 34t-31 77zM627 324q0 48 32.5 80t75.5 32q45 0 77 -34t32 -78q0 -45 -33.5 -77t-75.5 -32q-46 0 -77 33.5t-31 75.5zM627 539q0 47 32.5 76.5t75.5 29.5q48 0 78.5 -31t30.5 -75q0 -45 -32.5 -76t-76.5 -31q-49 0 -78.5 32.5 t-29.5 74.5zM627 756q0 45 32 74.5t76 29.5q49 0 79 -31t30 -73q0 -46 -32.5 -78.5t-76.5 -32.5q-49 0 -78.5 33.5t-29.5 77.5zM627 971q0 48 32.5 78t75.5 30q48 0 78.5 -32.5t30.5 -75.5q0 -45 -33 -77t-76 -32q-49 0 -78.5 33.5t-29.5 75.5zM627 1186q0 46 32.5 77 t75.5 31q48 0 78.5 -32.5t30.5 -75.5q0 -46 -33 -77.5t-76 -31.5q-46 0 -77 33t-31 76zM627 1401q0 48 32.5 79t75.5 31q45 0 77 -33t32 -77q0 -46 -33 -77.5t-76 -31.5q-46 0 -77 33t-31 76zM842 109q0 46 32.5 77t75.5 31q46 0 78.5 -33t32.5 -75q0 -45 -33 -78t-78 -33 q-46 0 -77 34t-31 77zM842 1401q0 48 32.5 79t75.5 31q45 0 78 -34t33 -76q0 -45 -33 -77t-78 -32q-46 0 -77 33t-31 76z" />
<glyph unicode="J" d="M98 324q0 50 34 81t75 31q46 0 76 -34t30 -78q0 -46 -31.5 -77.5t-74.5 -31.5q-45 0 -77 33.5t-32 75.5zM311 109q0 46 33.5 77t77.5 31q46 0 76 -32.5t30 -75.5q0 -45 -32 -78t-74 -33q-46 0 -78.5 34t-32.5 77zM526 109q0 47 33.5 77.5t77.5 30.5q49 0 80 -32.5 t31 -75.5q0 -45 -33 -78t-78 -33q-46 0 -78.5 34t-32.5 77zM745 109q0 46 33 77t74 31q48 0 79.5 -32.5t31.5 -75.5q0 -46 -33.5 -78.5t-77.5 -32.5t-75.5 34t-31.5 77zM745 1401q0 48 32.5 79t74.5 31q46 0 78.5 -33t32.5 -77q0 -46 -33.5 -77.5t-77.5 -31.5 q-45 0 -76 33.5t-31 75.5zM961 324q0 48 32 80t76 32q46 0 78.5 -34.5t32.5 -77.5q0 -44 -34 -76.5t-77 -32.5q-44 0 -76 34t-32 75zM961 539q0 48 31.5 77t76.5 29q49 0 80 -31.5t31 -74.5q0 -44 -33 -75.5t-78 -31.5q-47 0 -77.5 32.5t-30.5 74.5zM961 756q0 45 32 74.5 t76 29.5q50 0 80.5 -31.5t30.5 -72.5q0 -45 -33 -78t-78 -33q-47 0 -77.5 33.5t-30.5 77.5zM961 971q0 48 32 78t76 30q49 0 80 -32.5t31 -75.5q0 -44 -33.5 -76.5t-77.5 -32.5q-48 0 -78 34t-30 75zM961 1186q0 46 32 77t76 31q49 0 80 -33t31 -75q0 -45 -33.5 -77 t-77.5 -32q-45 0 -76.5 33.5t-31.5 75.5zM961 1401q0 48 32 79t76 31q46 0 78.5 -33.5t32.5 -76.5q0 -45 -33.5 -77t-77.5 -32q-45 0 -76.5 33.5t-31.5 75.5zM1176 1401q0 50 33 80t75 30q45 0 76 -33t31 -77q0 -46 -32.5 -77.5t-74.5 -31.5q-45 0 -76.5 32.5t-31.5 76.5z " />
<glyph unicode="K" d="M98 109q0 48 33 78t76 30q47 0 76.5 -32.5t29.5 -75.5q0 -48 -31 -79.5t-75 -31.5q-45 0 -77 33.5t-32 77.5zM98 324q0 50 34 81t75 31q46 0 76 -34t30 -78q0 -46 -31.5 -77.5t-74.5 -31.5q-45 0 -77 33.5t-32 75.5zM98 539q0 49 33 77.5t76 28.5q49 0 77.5 -30.5 t28.5 -75.5q0 -46 -31 -76.5t-75 -30.5q-48 0 -78.5 32.5t-30.5 74.5zM98 756q0 47 33 75.5t76 28.5q50 0 75 -34q22 -29 22 -62q0 -6 -1 -12q-4 -40 -30 -73.5t-66 -33.5q-48 0 -78.5 34t-30.5 77zM98 971q0 51 33 79.5t76 28.5q49 0 77.5 -32t28.5 -76q0 -47 -31.5 -78 t-74.5 -31q-49 0 -79 33.5t-30 75.5zM98 1186q0 48 33 78t76 30q49 0 77.5 -32t28.5 -76q0 -48 -31 -78.5t-75 -30.5q-45 0 -77 33t-32 76zM98 1401q0 49 33.5 79.5t75.5 30.5q46 0 76 -33t30 -77q0 -47 -31.5 -78t-74.5 -31q-45 0 -77 33t-32 76zM311 756q0 44 33.5 74 t77.5 30q48 0 77 -31.5t29 -72.5q0 -46 -31.5 -78.5t-74.5 -32.5q-49 0 -80 33.5t-31 77.5zM526 756q0 45 34 74.5t77 29.5q52 0 81.5 -31t29.5 -73q0 -46 -32.5 -78.5t-78.5 -32.5q-49 0 -80 33.5t-31 77.5zM745 539q0 47 32.5 76.5t74.5 29.5q50 0 80.5 -31t30.5 -75 q0 -45 -33 -76t-78 -31q-47 0 -77 32.5t-30 74.5zM745 971q0 47 32.5 77.5t74.5 30.5q49 0 80 -32.5t31 -75.5q0 -45 -33 -77t-78 -32q-48 0 -77.5 33.5t-29.5 75.5zM961 324q0 48 32 80t76 32q46 0 78.5 -34.5t32.5 -77.5q0 -44 -34 -76.5t-77 -32.5q-44 0 -76 34t-32 75z M961 1186q0 46 32 77t76 31q49 0 80 -33t31 -75q0 -45 -33.5 -77t-77.5 -32q-45 0 -76.5 33.5t-31.5 75.5zM1176 109q0 49 33 78.5t75 29.5q46 0 76.5 -32.5t30.5 -75.5q0 -48 -32 -79.5t-75 -31.5q-45 0 -76.5 33.5t-31.5 77.5zM1176 1401q0 50 33 80t75 30q45 0 76 -33 t31 -77q0 -46 -32.5 -77.5t-74.5 -31.5q-45 0 -76.5 32.5t-31.5 76.5z" />
<glyph unicode="L" d="M98 109q0 48 33 78t76 30q47 0 76.5 -32.5t29.5 -75.5q0 -48 -31 -79.5t-75 -31.5q-45 0 -77 33.5t-32 77.5zM98 324q0 50 34 81t75 31q46 0 76 -34t30 -78q0 -46 -31.5 -77.5t-74.5 -31.5q-45 0 -77 33.5t-32 75.5zM98 539q0 49 33 77.5t76 28.5q49 0 77.5 -30.5 t28.5 -75.5q0 -46 -31 -76.5t-75 -30.5q-48 0 -78.5 32.5t-30.5 74.5zM98 756q0 47 33 75.5t76 28.5q50 0 78 -30.5t28 -73.5q0 -48 -31 -79.5t-75 -31.5q-48 0 -78.5 34t-30.5 77zM98 971q0 51 33 79.5t76 28.5q49 0 77.5 -32t28.5 -76q0 -47 -31.5 -78t-74.5 -31 q-49 0 -79 33.5t-30 75.5zM98 1186q0 48 33 78t76 30q49 0 77.5 -32t28.5 -76q0 -48 -31 -78.5t-75 -30.5q-45 0 -77 33t-32 76zM98 1401q0 49 33.5 79.5t75.5 30.5q46 0 76 -33t30 -77q0 -47 -31.5 -78t-74.5 -31q-45 0 -77 33t-32 76zM311 109q0 46 33.5 77t77.5 31 q46 0 76 -32.5t30 -75.5q0 -45 -32 -78t-74 -33q-46 0 -78.5 34t-32.5 77zM526 109q0 47 33.5 77.5t77.5 30.5q49 0 80 -32.5t31 -75.5q0 -45 -33 -78t-78 -33q-46 0 -78.5 34t-32.5 77zM745 109q0 46 33 77t74 31q48 0 79.5 -32.5t31.5 -75.5q0 -46 -33.5 -78.5 t-77.5 -32.5t-75.5 34t-31.5 77zM961 109q0 46 32 77t76 31q48 0 79.5 -32.5t31.5 -75.5q0 -45 -34 -78t-77 -33q-45 0 -76.5 34t-31.5 77zM1176 109q0 49 33 78.5t75 29.5q46 0 76.5 -32.5t30.5 -75.5q0 -48 -32 -79.5t-75 -31.5q-45 0 -76.5 33.5t-31.5 77.5z" />
<glyph unicode="M" d="M98 109q0 48 33 78t76 30q47 0 76.5 -32.5t29.5 -75.5q0 -48 -31 -79.5t-75 -31.5q-45 0 -77 33.5t-32 77.5zM98 324q0 50 34 81t75 31q46 0 76 -34t30 -78q0 -46 -31.5 -77.5t-74.5 -31.5q-45 0 -77 33.5t-32 75.5zM98 539q0 49 33 77.5t76 28.5q49 0 77.5 -30.5 t28.5 -75.5q0 -46 -31 -76.5t-75 -30.5q-48 0 -78.5 32.5t-30.5 74.5zM98 756q0 47 33 75.5t76 28.5q50 0 78 -30.5t28 -73.5q0 -48 -31 -79.5t-75 -31.5q-48 0 -78.5 34t-30.5 77zM98 971q0 51 33 79.5t76 28.5q49 0 77.5 -32t28.5 -76q0 -47 -31.5 -78t-74.5 -31 q-49 0 -79 33.5t-30 75.5zM98 1186q0 48 33 78t76 30q49 0 77.5 -32t28.5 -76q0 -48 -31 -78.5t-75 -30.5q-45 0 -77 33t-32 76zM98 1401q0 49 33.5 79.5t75.5 30.5q46 0 76 -33t30 -77q0 -47 -31.5 -78t-74.5 -31q-45 0 -77 33t-32 76zM311 1186q0 46 33.5 77t77.5 31 q47 0 76.5 -33t29.5 -75q0 -45 -32 -77t-74 -32q-46 0 -78.5 33.5t-32.5 75.5zM526 756q0 45 34 74.5t77 29.5q52 0 81.5 -31t29.5 -73q0 -46 -32.5 -78.5t-78.5 -32.5q-49 0 -80 33.5t-31 77.5zM526 971q0 49 33.5 78.5t77.5 29.5q50 0 80.5 -32t30.5 -76t-32.5 -76.5 t-78.5 -32.5q-50 0 -80.5 34t-30.5 75zM745 756q0 44 32 74t75 30q50 0 80.5 -31t30.5 -73q0 -47 -33 -79t-78 -32q-47 0 -77 33.5t-30 77.5zM745 971q0 47 32.5 77.5t74.5 30.5q49 0 80 -32.5t31 -75.5q0 -45 -33 -77t-78 -32q-48 0 -77.5 33.5t-29.5 75.5zM961 1186 q0 46 32 77t76 31q49 0 80 -33t31 -75q0 -45 -33.5 -77t-77.5 -32q-45 0 -76.5 33.5t-31.5 75.5zM1176 109q0 49 33 78.5t75 29.5q46 0 76.5 -32.5t30.5 -75.5q0 -48 -32 -79.5t-75 -31.5q-45 0 -76.5 33.5t-31.5 77.5zM1176 324q0 50 33.5 81t74.5 31q45 0 76 -34t31 -78 q0 -46 -32.5 -77.5t-74.5 -31.5q-45 0 -76.5 33.5t-31.5 75.5zM1176 539q0 50 32.5 78t75.5 28q48 0 77.5 -31t29.5 -75q0 -46 -32 -76.5t-75 -30.5q-47 0 -77.5 32.5t-30.5 74.5zM1176 756q0 47 32.5 75.5t75.5 28.5q49 0 78 -31t29 -73q0 -48 -32 -79.5t-75 -31.5 q-47 0 -77.5 33.5t-30.5 77.5zM1176 971q0 51 32.5 79.5t75.5 28.5q48 0 77.5 -32.5t29.5 -75.5q0 -46 -32.5 -77.5t-74.5 -31.5q-48 0 -78 33t-30 76zM1176 1186q0 49 33 78.5t75 29.5q48 0 77.5 -32.5t29.5 -75.5q0 -48 -32 -78.5t-75 -30.5q-45 0 -76.5 32.5t-31.5 76.5z M1176 1401q0 50 33 80t75 30q45 0 76 -33t31 -77q0 -46 -32.5 -77.5t-74.5 -31.5q-45 0 -76.5 32.5t-31.5 76.5z" />
<glyph unicode="N" d="M94 756q0 47 33 75.5t76 28.5q50 0 78 -30.5t28 -73.5q0 -48 -31 -79.5t-75 -31.5q-48 0 -78.5 34t-30.5 77zM98 109q0 48 33 78t76 30q47 0 76.5 -32.5t29.5 -75.5q0 -48 -31 -79.5t-75 -31.5q-45 0 -77 33.5t-32 77.5zM98 324q0 50 34 81t75 31q46 0 76 -34t30 -78 q0 -46 -31.5 -77.5t-74.5 -31.5q-45 0 -77 33.5t-32 75.5zM98 539q0 49 33 77.5t76 28.5q49 0 77.5 -30.5t28.5 -75.5q0 -46 -31 -76.5t-75 -30.5q-48 0 -78.5 32.5t-30.5 74.5zM98 971q0 51 33 79.5t76 28.5q49 0 77.5 -32t28.5 -76q0 -47 -31.5 -78t-74.5 -31 q-49 0 -79 33.5t-30 75.5zM98 1186q0 48 33 78t76 30q49 0 77.5 -32t28.5 -76q0 -48 -31 -78.5t-75 -30.5q-45 0 -77 33t-32 76zM98 1401q0 49 33.5 79.5t75.5 30.5q46 0 76 -33t30 -77q0 -47 -31.5 -78t-74.5 -31q-45 0 -77 33t-32 76zM311 1186q0 46 33.5 77t77.5 31 q47 0 76.5 -33t29.5 -75q0 -45 -32 -77t-74 -32q-46 0 -78.5 33.5t-32.5 75.5zM526 971q0 49 33.5 78.5t77.5 29.5q50 0 80.5 -32t30.5 -76t-32.5 -76.5t-78.5 -32.5q-50 0 -80.5 34t-30.5 75zM745 756q0 44 32 74t75 30q50 0 80.5 -31t30.5 -73q0 -47 -33 -79t-78 -32 q-47 0 -77 33.5t-30 77.5zM961 539q0 48 31.5 77t76.5 29q49 0 80 -31.5t31 -74.5q0 -44 -33 -75.5t-78 -31.5q-47 0 -77.5 32.5t-30.5 74.5zM1176 109q0 49 33 78.5t75 29.5q46 0 76.5 -32.5t30.5 -75.5q0 -48 -32 -79.5t-75 -31.5q-45 0 -76.5 33.5t-31.5 77.5zM1176 324 q0 50 33.5 81t74.5 31q45 0 76 -34t31 -78q0 -46 -32.5 -77.5t-74.5 -31.5q-45 0 -76.5 33.5t-31.5 75.5zM1176 539q0 50 32.5 78t75.5 28q48 0 77.5 -31t29.5 -75q0 -46 -32 -76.5t-75 -30.5q-47 0 -77.5 32.5t-30.5 74.5zM1176 756q0 47 32.5 75.5t75.5 28.5q49 0 78 -31 t29 -73q0 -48 -32 -79.5t-75 -31.5q-47 0 -77.5 33.5t-30.5 77.5zM1176 971q0 51 32.5 79.5t75.5 28.5q48 0 77.5 -32.5t29.5 -75.5q0 -46 -32.5 -77.5t-74.5 -31.5q-48 0 -78 33t-30 76zM1176 1186q0 49 33 78.5t75 29.5q48 0 77.5 -32.5t29.5 -75.5q0 -48 -32 -78.5 t-75 -30.5q-45 0 -76.5 32.5t-31.5 76.5zM1176 1401q0 50 33 80t75 30q45 0 76 -33t31 -77q0 -46 -32.5 -77.5t-74.5 -31.5q-45 0 -76.5 32.5t-31.5 76.5z" />
<glyph unicode="O" d="M98 330q0 50 34 81t75 31q46 0 76 -34t30 -78q0 -46 -31.5 -77.5t-74.5 -31.5q-45 0 -77 33.5t-32 75.5zM98 545q0 48 33 77t76 29q49 0 77.5 -30.5t28.5 -75.5q0 -46 -31 -76.5t-75 -30.5q-48 0 -78.5 32.5t-30.5 74.5zM98 762q0 47 33 75.5t76 28.5q50 0 78 -30.5 t28 -73.5q0 -48 -31 -79.5t-75 -31.5q-48 0 -78.5 34t-30.5 77zM98 971q0 51 33 79.5t76 28.5q49 0 77.5 -32t28.5 -76q0 -47 -31.5 -78t-74.5 -31q-49 0 -79 33.5t-30 75.5zM98 1186q0 48 33 78t76 30q49 0 77.5 -32t28.5 -76q0 -48 -31 -78.5t-75 -30.5q-45 0 -77 33 t-32 76zM311 109q0 46 33.5 77t77.5 31q46 0 76 -32.5t30 -75.5q0 -45 -32 -78t-74 -33q-46 0 -78.5 34t-32.5 77zM311 1401q0 48 33.5 79t77.5 31t75 -33.5t31 -76.5q0 -45 -32 -77t-74 -32q-46 0 -78.5 33.5t-32.5 75.5zM526 109q0 47 33.5 77.5t77.5 30.5q49 0 80 -32.5 t31 -75.5q0 -45 -33 -78t-78 -33q-46 0 -78.5 34t-32.5 77zM526 1401q0 48 34 79t77 31q48 0 79.5 -33.5t31.5 -76.5q0 -45 -33 -77t-78 -32q-46 0 -78.5 33.5t-32.5 75.5zM745 109q0 46 33 77t74 31q48 0 79.5 -32.5t31.5 -75.5q0 -46 -33.5 -78.5t-77.5 -32.5t-75.5 34 t-31.5 77zM745 1401q0 48 32.5 79t74.5 31q46 0 78.5 -33t32.5 -77q0 -46 -33.5 -77.5t-77.5 -31.5q-45 0 -76 33.5t-31 75.5zM961 109q0 46 32 77t76 31q48 0 79.5 -32.5t31.5 -75.5q0 -45 -34 -78t-77 -33q-45 0 -76.5 34t-31.5 77zM961 1401q0 48 32 79t76 31 q46 0 78.5 -33.5t32.5 -76.5q0 -45 -33.5 -77t-77.5 -32q-45 0 -76.5 33.5t-31.5 75.5zM1176 330q0 50 33.5 81t74.5 31q45 0 76 -34t31 -78q0 -46 -32.5 -77.5t-74.5 -31.5q-45 0 -76.5 33.5t-31.5 75.5zM1176 545q0 48 32.5 77t75.5 29q48 0 77.5 -31t29.5 -75 q0 -46 -32 -76.5t-75 -30.5q-47 0 -77.5 32.5t-30.5 74.5zM1176 762q0 47 32.5 75.5t75.5 28.5q49 0 78 -31t29 -73q0 -48 -32 -79.5t-75 -31.5q-47 0 -77.5 33.5t-30.5 77.5zM1176 971q0 51 32.5 79.5t75.5 28.5q48 0 77.5 -32.5t29.5 -75.5q0 -46 -32.5 -77.5t-74.5 -31.5 q-48 0 -78 33t-30 76zM1176 1186q0 49 33 78.5t75 29.5q48 0 77.5 -32.5t29.5 -75.5q0 -48 -32 -78.5t-75 -30.5q-45 0 -76.5 32.5t-31.5 76.5z" />
<glyph unicode="P" d="M98 109q0 48 33 78t76 30q47 0 76.5 -32.5t29.5 -75.5q0 -48 -31 -79.5t-75 -31.5q-45 0 -77 33.5t-32 77.5zM98 324q0 50 34 81t75 31q46 0 76 -34t30 -78q0 -46 -31.5 -77.5t-74.5 -31.5q-45 0 -77 33.5t-32 75.5zM98 539q0 49 33 77.5t76 28.5q49 0 77.5 -30.5 t28.5 -75.5q0 -46 -31 -76.5t-75 -30.5q-48 0 -78.5 32.5t-30.5 74.5zM98 756q0 47 33 75.5t76 28.5q50 0 78 -30.5t28 -73.5q0 -48 -31 -79.5t-75 -31.5q-48 0 -78.5 34t-30.5 77zM98 965q0 51 33 79.5t76 28.5q49 0 77.5 -32t28.5 -76q0 -47 -31.5 -78t-74.5 -31 q-49 0 -79 33.5t-30 75.5zM98 1180q0 48 33 78t76 30q49 0 77.5 -32t28.5 -76q0 -48 -31 -78.5t-75 -30.5q-45 0 -77 33t-32 76zM98 1395q0 49 33.5 79.5t75.5 30.5q46 0 76 -33t30 -77q0 -47 -31.5 -78t-74.5 -31q-45 0 -77 33t-32 76zM311 756q0 44 33.5 74t77.5 30 q48 0 77 -31.5t29 -72.5q0 -46 -31.5 -78.5t-74.5 -32.5q-49 0 -80 33.5t-31 77.5zM311 1395q0 48 33.5 79t77.5 31t75 -33.5t31 -76.5q0 -44 -32 -76.5t-74 -32.5q-46 0 -78.5 33.5t-32.5 75.5zM526 756q0 45 34 74.5t77 29.5q52 0 81.5 -31t29.5 -73q0 -46 -32.5 -78.5 t-78.5 -32.5q-49 0 -80 33.5t-31 77.5zM526 1395q0 48 34 79t77 31q48 0 79.5 -33.5t31.5 -76.5q0 -44 -33.5 -76.5t-77.5 -32.5q-46 0 -78.5 33.5t-32.5 75.5zM745 756q0 44 32 74t75 30q50 0 80.5 -31t30.5 -73q0 -47 -33 -79t-78 -32q-47 0 -77 33.5t-30 77.5zM745 1395 q0 48 32.5 79t74.5 31q46 0 78.5 -33t32.5 -77q0 -45 -33.5 -77t-77.5 -32q-45 0 -76 33.5t-31 75.5zM961 756q0 45 32 74.5t76 29.5q50 0 80.5 -31.5t30.5 -72.5q0 -45 -33 -78t-78 -33q-47 0 -77.5 33.5t-30.5 77.5zM961 1395q0 48 32 79t76 31q46 0 78.5 -33.5 t32.5 -76.5q0 -44 -34 -76.5t-77 -32.5q-45 0 -76.5 33.5t-31.5 75.5zM1176 965q0 51 32.5 79.5t75.5 28.5q48 0 77.5 -32.5t29.5 -75.5q0 -46 -32.5 -77.5t-74.5 -31.5q-48 0 -78 33t-30 76zM1176 1180q0 49 33 78.5t75 29.5q48 0 77.5 -32.5t29.5 -75.5q0 -48 -32 -78.5 t-75 -30.5q-45 0 -76.5 32.5t-31.5 76.5z" />
<glyph unicode="Q" d="M98 324q0 50 34 81t75 31q46 0 76 -34t30 -78q0 -46 -31.5 -77.5t-74.5 -31.5q-45 0 -77 33.5t-32 75.5zM98 539q0 49 33 77.5t76 28.5q49 0 77.5 -30.5t28.5 -75.5q0 -46 -31 -76.5t-75 -30.5q-48 0 -78.5 32.5t-30.5 74.5zM98 756q0 47 33 75.5t76 28.5q50 0 78 -30.5 t28 -73.5q0 -48 -31 -79.5t-75 -31.5q-48 0 -78.5 34t-30.5 77zM98 965q0 51 33 79.5t76 28.5q49 0 77.5 -32t28.5 -76q0 -47 -31.5 -78t-74.5 -31q-49 0 -79 33.5t-30 75.5zM98 1180q0 48 33 78t76 30q49 0 77.5 -32t28.5 -76q0 -48 -31 -78.5t-75 -30.5q-45 0 -77 33 t-32 76zM311 109q0 46 33.5 77t77.5 31q46 0 76 -32.5t30 -75.5q0 -45 -32 -78t-74 -33q-46 0 -78.5 34t-32.5 77zM311 1395q0 48 33.5 79t77.5 31t75 -33.5t31 -76.5q0 -44 -32 -76.5t-74 -32.5q-46 0 -78.5 33.5t-32.5 75.5zM526 109q0 47 33.5 77.5t77.5 30.5 q49 0 80 -32.5t31 -75.5q0 -45 -33 -78t-78 -33q-46 0 -78.5 34t-32.5 77zM526 1395q0 48 34 79t77 31q48 0 79.5 -33.5t31.5 -76.5q0 -44 -33.5 -76.5t-77.5 -32.5q-46 0 -78.5 33.5t-32.5 75.5zM745 109q0 46 33 77t74 31q48 0 79.5 -32.5t31.5 -75.5q0 -46 -33.5 -78.5 t-77.5 -32.5t-75.5 34t-31.5 77zM745 539q0 47 32.5 76.5t74.5 29.5q50 0 80.5 -31t30.5 -75q0 -45 -33 -76t-78 -31q-47 0 -77 32.5t-30 74.5zM745 1395q0 48 32.5 79t74.5 31q46 0 78.5 -33t32.5 -77q0 -45 -33.5 -77t-77.5 -32q-45 0 -76 33.5t-31 75.5zM961 324 q0 48 32 80t76 32q46 0 78.5 -34.5t32.5 -77.5q0 -44 -34 -76.5t-77 -32.5q-44 0 -76 34t-32 75zM961 1395q0 48 32 79t76 31q46 0 78.5 -33.5t32.5 -76.5q0 -44 -34 -76.5t-77 -32.5q-45 0 -76.5 33.5t-31.5 75.5zM1176 109q0 49 33 78.5t75 29.5q46 0 76.5 -32.5 t30.5 -75.5q0 -48 -32 -79.5t-75 -31.5q-45 0 -76.5 33.5t-31.5 77.5zM1176 539q0 50 32.5 78t75.5 28q48 0 77.5 -31t29.5 -75q0 -46 -32 -76.5t-75 -30.5q-47 0 -77.5 32.5t-30.5 74.5zM1176 756q0 47 32.5 75.5t75.5 28.5q49 0 78 -31t29 -73q0 -48 -32 -79.5t-75 -31.5 q-47 0 -77.5 33.5t-30.5 77.5zM1176 965q0 51 32.5 79.5t75.5 28.5q48 0 77.5 -32.5t29.5 -75.5q0 -46 -32.5 -77.5t-74.5 -31.5q-48 0 -78 33t-30 76zM1176 1180q0 49 33 78.5t75 29.5q48 0 77.5 -32.5t29.5 -75.5q0 -48 -32 -78.5t-75 -30.5q-45 0 -76.5 32.5t-31.5 76.5z " />
<glyph unicode="R" d="M98 109q0 48 33 78t76 30q47 0 76.5 -32.5t29.5 -75.5q0 -48 -31 -79.5t-75 -31.5q-45 0 -77 33.5t-32 77.5zM98 324q0 50 34 81t75 31q46 0 76 -34t30 -78q0 -46 -31.5 -77.5t-74.5 -31.5q-45 0 -77 33.5t-32 75.5zM98 539q0 49 33 77.5t76 28.5q49 0 77.5 -30.5 t28.5 -75.5q0 -46 -31 -76.5t-75 -30.5q-48 0 -78.5 32.5t-30.5 74.5zM98 756q0 47 33 75.5t76 28.5q50 0 78 -30.5t28 -73.5q0 -48 -31 -79.5t-75 -31.5q-48 0 -78.5 34t-30.5 77zM98 971q0 51 33 79.5t76 28.5q49 0 77.5 -32t28.5 -76q0 -47 -31.5 -78t-74.5 -31 q-49 0 -79 33.5t-30 75.5zM98 1186q0 48 33 78t76 30q49 0 77.5 -32t28.5 -76q0 -48 -31 -78.5t-75 -30.5q-45 0 -77 33t-32 76zM98 1401q0 49 33.5 79.5t75.5 30.5q46 0 76 -33t30 -77q0 -47 -31.5 -78t-74.5 -31q-45 0 -77 33t-32 76zM311 756q0 44 33.5 74t77.5 30 q48 0 77 -31.5t29 -72.5q0 -46 -31.5 -78.5t-74.5 -32.5q-49 0 -80 33.5t-31 77.5zM311 1401q0 50 34 80t77 30t73.5 -33t30.5 -77q0 -46 -31.5 -77.5t-72.5 -31.5q-45 0 -78 33t-33 76zM526 756q0 45 34 74.5t77 29.5q52 0 81.5 -31t29.5 -73q0 -46 -32.5 -78.5 t-78.5 -32.5q-49 0 -80 33.5t-31 77.5zM526 1401q0 49 34.5 79.5t76.5 30.5q44 0 75 -33.5t31 -76.5q0 -46 -32.5 -77.5t-73.5 -31.5q-45 0 -78 33t-33 76zM745 539q0 47 32.5 76.5t74.5 29.5q50 0 80.5 -31t30.5 -75q0 -45 -33 -76t-78 -31q-47 0 -77 32.5t-30 74.5z M745 756q0 44 32 74t75 30q50 0 80.5 -31t30.5 -73q0 -47 -33 -79t-78 -32q-47 0 -77 33.5t-30 77.5zM745 1401q0 48 32.5 79t74.5 31q46 0 78.5 -33t32.5 -77q0 -46 -33.5 -77.5t-77.5 -31.5q-45 0 -76 33.5t-31 75.5zM961 324q0 48 32 80t76 32q46 0 78.5 -34.5 t32.5 -77.5q0 -44 -34 -76.5t-77 -32.5q-44 0 -76 34t-32 75zM961 756q0 45 32 74.5t76 29.5q50 0 80.5 -31.5t30.5 -72.5q0 -45 -33 -78t-78 -33q-47 0 -77.5 33.5t-30.5 77.5zM961 1401q0 48 32 79t76 31q46 0 78.5 -33.5t32.5 -76.5q0 -45 -33.5 -77t-77.5 -32 q-45 0 -76.5 33.5t-31.5 75.5zM1176 109q0 49 33 78.5t75 29.5q46 0 76.5 -32.5t30.5 -75.5q0 -48 -32 -79.5t-75 -31.5q-45 0 -76.5 33.5t-31.5 77.5zM1176 971q0 51 32.5 79.5t75.5 28.5q48 0 77.5 -32.5t29.5 -75.5q0 -46 -32.5 -77.5t-74.5 -31.5q-48 0 -78 33t-30 76z M1176 1186q0 49 33 78.5t75 29.5q48 0 77.5 -32.5t29.5 -75.5q0 -48 -32 -78.5t-75 -30.5q-45 0 -76.5 32.5t-31.5 76.5z" />
<glyph unicode="S" d="M98 324q0 50 34 81t75 31q46 0 76 -34t30 -78q0 -46 -31.5 -77.5t-74.5 -31.5q-45 0 -77 33.5t-32 75.5zM98 971q0 51 33 79.5t76 28.5q49 0 77.5 -32t28.5 -76q0 -47 -31.5 -78t-74.5 -31q-49 0 -79 33.5t-30 75.5zM98 1186q0 48 33 78t76 30q49 0 77.5 -32t28.5 -76 q0 -48 -31 -78.5t-75 -30.5q-45 0 -77 33t-32 76zM311 109q0 46 33.5 77t77.5 31q46 0 76 -32.5t30 -75.5q0 -45 -32 -78t-74 -33q-46 0 -78.5 34t-32.5 77zM311 756q0 44 33.5 74t77.5 30q48 0 77 -31.5t29 -72.5q0 -46 -31.5 -78.5t-74.5 -32.5q-49 0 -80 33.5t-31 77.5z M311 1401q0 48 33.5 79t77.5 31t75 -33.5t31 -76.5q0 -45 -32 -77t-74 -32q-46 0 -78.5 33.5t-32.5 75.5zM526 109q0 47 33.5 77.5t77.5 30.5q49 0 80 -32.5t31 -75.5q0 -45 -33 -78t-78 -33q-46 0 -78.5 34t-32.5 77zM526 756q0 45 34 74.5t77 29.5q52 0 81.5 -31t29.5 -73 q0 -46 -32.5 -78.5t-78.5 -32.5q-49 0 -80 33.5t-31 77.5zM526 1401q0 48 34 79t77 31q48 0 79.5 -33.5t31.5 -76.5q0 -45 -33 -77t-78 -32q-46 0 -78.5 33.5t-32.5 75.5zM745 109q0 46 33 77t74 31q48 0 79.5 -32.5t31.5 -75.5q0 -46 -33.5 -78.5t-77.5 -32.5t-75.5 34 t-31.5 77zM745 756q0 44 32 74t75 30q50 0 80.5 -31t30.5 -73q0 -47 -33 -79t-78 -32q-47 0 -77 33.5t-30 77.5zM745 1401q0 48 32.5 79t74.5 31q46 0 78.5 -33t32.5 -77q0 -46 -33.5 -77.5t-77.5 -31.5q-45 0 -76 33.5t-31 75.5zM961 109q0 46 32 77t76 31q48 0 79.5 -32.5 t31.5 -75.5q0 -45 -34 -78t-77 -33q-45 0 -76.5 34t-31.5 77zM961 756q0 45 32 74.5t76 29.5q50 0 80.5 -31.5t30.5 -72.5q0 -45 -33 -78t-78 -33q-47 0 -77.5 33.5t-30.5 77.5zM961 1401q0 48 32 79t76 31q46 0 78.5 -33.5t32.5 -76.5q0 -45 -33.5 -77t-77.5 -32 q-45 0 -76.5 33.5t-31.5 75.5zM1176 324q0 50 33.5 81t74.5 31q45 0 76 -34t31 -78q0 -46 -32.5 -77.5t-74.5 -31.5q-45 0 -76.5 33.5t-31.5 75.5zM1176 539q0 50 32.5 78t75.5 28q48 0 77.5 -31t29.5 -75q0 -46 -32 -76.5t-75 -30.5q-47 0 -77.5 32.5t-30.5 74.5z M1176 1186q0 49 33 78.5t75 29.5q48 0 77.5 -32.5t29.5 -75.5q0 -48 -32 -78.5t-75 -30.5q-45 0 -76.5 32.5t-31.5 76.5z" />
<glyph unicode="T" d="M195 1403q0 48 32 79t74 31q46 0 78.5 -33.5t32.5 -76.5q0 -45 -33 -77t-78 -32q-44 0 -75 33t-31 76zM410 1403q0 49 32.5 79.5t75.5 30.5q49 0 80 -33.5t31 -76.5q0 -46 -32.5 -77.5t-78.5 -31.5t-77 33t-31 76zM627 109q0 46 32.5 77t75.5 31q46 0 77.5 -32.5 t31.5 -75.5q0 -46 -33.5 -78.5t-75.5 -32.5q-46 0 -77 34t-31 77zM627 324q0 48 32.5 80t75.5 32q45 0 77 -34t32 -78q0 -45 -33.5 -77t-75.5 -32q-46 0 -77 33.5t-31 75.5zM627 539q0 47 32.5 76.5t75.5 29.5q48 0 78.5 -31t30.5 -75q0 -45 -32.5 -76t-76.5 -31 q-49 0 -78.5 32.5t-29.5 74.5zM627 756q0 45 32 74.5t76 29.5q49 0 79 -31t30 -73q0 -46 -32.5 -78.5t-76.5 -32.5q-49 0 -78.5 33.5t-29.5 77.5zM627 967q0 48 32.5 78t75.5 30q48 0 78.5 -32.5t30.5 -75.5q0 -45 -33 -77t-76 -32q-49 0 -78.5 33.5t-29.5 75.5zM627 1182 q0 46 32.5 77t75.5 31q48 0 78.5 -32.5t30.5 -75.5q0 -46 -33 -77.5t-76 -31.5q-46 0 -77 33t-31 76zM627 1403q0 48 32.5 79t75.5 31q45 0 77 -33t32 -77q0 -46 -33 -77.5t-76 -31.5q-46 0 -77 33t-31 76zM842 1403q0 48 32.5 79t75.5 31q45 0 78 -34t33 -76q0 -45 -33 -77 t-78 -32q-46 0 -77 33t-31 76zM1057 1403q0 50 33.5 80t76.5 30t74 -33t31 -77q0 -48 -31.5 -78.5t-73.5 -30.5q-46 0 -78 32.5t-32 76.5z" />
<glyph unicode="U" d="M98 324q0 50 34 81t75 31q46 0 76 -34t30 -78q0 -46 -31.5 -77.5t-74.5 -31.5q-45 0 -77 33.5t-32 75.5zM98 539q0 49 33 77.5t76 28.5q49 0 77.5 -30.5t28.5 -75.5q0 -46 -31 -76.5t-75 -30.5q-48 0 -78.5 32.5t-30.5 74.5zM98 756q0 47 33 75.5t76 28.5q50 0 78 -30.5 t28 -73.5q0 -48 -31 -79.5t-75 -31.5q-48 0 -78.5 34t-30.5 77zM98 969q0 51 33 79.5t76 28.5q49 0 77.5 -32t28.5 -76q0 -47 -31.5 -78t-74.5 -31q-49 0 -79 33.5t-30 75.5zM98 1186q0 48 33 78t76 30q49 0 77.5 -32t28.5 -76q0 -48 -31 -78.5t-75 -30.5q-45 0 -77 33 t-32 76zM98 1401q0 49 33.5 79.5t75.5 30.5q46 0 76 -33t30 -77q0 -47 -31.5 -78t-74.5 -31q-45 0 -77 33t-32 76zM311 109q0 46 33.5 77t77.5 31q46 0 76 -32.5t30 -75.5q0 -45 -32 -78t-74 -33q-46 0 -78.5 34t-32.5 77zM526 109q0 47 33.5 77.5t77.5 30.5q49 0 80 -32.5 t31 -75.5q0 -45 -33 -78t-78 -33q-46 0 -78.5 34t-32.5 77zM745 109q0 46 33 77t74 31q48 0 79.5 -32.5t31.5 -75.5q0 -46 -33.5 -78.5t-77.5 -32.5t-75.5 34t-31.5 77zM961 109q0 46 32 77t76 31q48 0 79.5 -32.5t31.5 -75.5q0 -45 -34 -78t-77 -33q-45 0 -76.5 34 t-31.5 77zM1176 324q0 50 33.5 81t74.5 31q45 0 76 -34t31 -78q0 -46 -32.5 -77.5t-74.5 -31.5q-45 0 -76.5 33.5t-31.5 75.5zM1176 539q0 50 32.5 78t75.5 28q48 0 77.5 -31t29.5 -75q0 -46 -32 -76.5t-75 -30.5q-47 0 -77.5 32.5t-30.5 74.5zM1176 756q0 47 32.5 75.5 t75.5 28.5q49 0 78 -31t29 -73q0 -48 -32 -79.5t-75 -31.5q-47 0 -77.5 33.5t-30.5 77.5zM1176 969q0 51 32.5 79.5t75.5 28.5q48 0 77.5 -32.5t29.5 -75.5q0 -46 -32.5 -77.5t-74.5 -31.5q-48 0 -78 33t-30 76zM1176 1186q0 49 33 78.5t75 29.5q48 0 77.5 -32.5t29.5 -75.5 q0 -48 -32 -78.5t-75 -30.5q-45 0 -76.5 32.5t-31.5 76.5zM1176 1401q0 50 33 80t75 30q45 0 76 -33t31 -77q0 -46 -32.5 -77.5t-74.5 -31.5q-45 0 -76.5 32.5t-31.5 76.5z" />
<glyph unicode="V" d="M98 971q0 51 33 79.5t76 28.5q49 0 77.5 -32t28.5 -76q0 -47 -31.5 -78t-74.5 -31q-49 0 -79 33.5t-30 75.5zM98 1186q0 48 33 78t76 30q49 0 77.5 -32t28.5 -76q0 -48 -31 -78.5t-75 -30.5q-45 0 -77 33t-32 76zM98 1401q0 49 33.5 79.5t75.5 30.5q46 0 76 -33t30 -77 q0 -47 -31.5 -78t-74.5 -31q-45 0 -77 33t-32 76zM311 539q0 48 33 77t78 29q48 0 77 -31.5t29 -74.5q0 -44 -31.5 -75.5t-74.5 -31.5q-49 0 -80 32.5t-31 74.5zM311 756q0 44 33.5 74t77.5 30q48 0 77 -31.5t29 -72.5q0 -46 -31.5 -78.5t-74.5 -32.5q-49 0 -80 33.5 t-31 77.5zM526 109q0 47 33.5 77.5t77.5 30.5q49 0 80 -32.5t31 -75.5q0 -45 -33 -78t-78 -33q-46 0 -78.5 34t-32.5 77zM526 330q0 49 34.5 80.5t76.5 31.5q48 0 79.5 -34.5t31.5 -77.5q0 -44 -33.5 -76.5t-77.5 -32.5q-46 0 -78.5 34t-32.5 75zM745 109q0 46 33 77t74 31 q48 0 79.5 -32.5t31.5 -75.5q0 -46 -33.5 -78.5t-77.5 -32.5t-75.5 34t-31.5 77zM745 330q0 48 32.5 80t74.5 32q46 0 78.5 -34t32.5 -78q0 -45 -33.5 -77t-77.5 -32t-75.5 34t-31.5 75zM961 539q0 48 31.5 77t76.5 29q49 0 80 -31.5t31 -74.5q0 -44 -33 -75.5t-78 -31.5 q-47 0 -77.5 32.5t-30.5 74.5zM961 756q0 45 32 74.5t76 29.5q50 0 80.5 -31.5t30.5 -72.5q0 -45 -33 -78t-78 -33q-47 0 -77.5 33.5t-30.5 77.5zM1176 971q0 51 32.5 79.5t75.5 28.5q48 0 77.5 -32.5t29.5 -75.5q0 -46 -32.5 -77.5t-74.5 -31.5q-48 0 -78 33t-30 76z M1176 1186q0 49 33 78.5t75 29.5q48 0 77.5 -32.5t29.5 -75.5q0 -48 -32 -78.5t-75 -30.5q-45 0 -76.5 32.5t-31.5 76.5zM1176 1401q0 50 33 80t75 30q45 0 76 -33t31 -77q0 -46 -32.5 -77.5t-74.5 -31.5q-45 0 -76.5 32.5t-31.5 76.5z" />
<glyph unicode="W" d="M98 109q0 48 33 78t76 30q47 0 76.5 -32.5t29.5 -75.5q0 -48 -31 -79.5t-75 -31.5q-45 0 -77 33.5t-32 77.5zM98 326q0 50 34 81t75 31q46 0 76 -34t30 -78q0 -46 -31.5 -77.5t-74.5 -31.5q-45 0 -77 33.5t-32 75.5zM98 541q0 48 33 77t76 29q49 0 77.5 -30.5t28.5 -75.5 q0 -46 -31 -76.5t-75 -30.5q-48 0 -78.5 32.5t-30.5 74.5zM98 758q0 47 33 75.5t76 28.5q50 0 78 -30.5t28 -73.5q0 -48 -31 -79.5t-75 -31.5q-48 0 -78.5 34t-30.5 77zM98 973q0 51 33 79.5t76 28.5q49 0 77.5 -32t28.5 -76q0 -47 -31.5 -78t-74.5 -31q-49 0 -79 33.5 t-30 75.5zM98 1188q0 48 33 78t76 30q49 0 77.5 -32t28.5 -76q0 -48 -31 -78.5t-75 -30.5q-45 0 -77 33t-32 76zM98 1403q0 49 33.5 79.5t75.5 30.5q46 0 76 -33t30 -77q0 -48 -31 -78.5t-75 -30.5q-45 0 -77 33t-32 76zM311 326q0 48 33.5 80t77.5 32t75 -34.5t31 -77.5 q0 -44 -32 -76.5t-74 -32.5q-46 0 -78.5 34t-32.5 75zM526 541q0 48 33.5 77t77.5 29q50 0 80.5 -31.5t30.5 -74.5q0 -44 -32.5 -75.5t-78.5 -31.5q-49 0 -80 32.5t-31 74.5zM526 758q0 45 34 74.5t77 29.5q52 0 81.5 -31t29.5 -73q0 -46 -32.5 -78.5t-78.5 -32.5 q-49 0 -80 33.5t-31 77.5zM745 541q0 47 32.5 76.5t74.5 29.5q50 0 80.5 -31t30.5 -75q0 -45 -33 -76t-78 -31q-47 0 -77 32.5t-30 74.5zM745 758q0 44 32 74t75 30q50 0 80.5 -31t30.5 -73q0 -47 -33 -79t-78 -32q-47 0 -77 33.5t-30 77.5zM961 326q0 48 32 80t76 32 q46 0 78.5 -34.5t32.5 -77.5q0 -44 -34 -76.5t-77 -32.5q-44 0 -76 34t-32 75zM1176 109q0 49 33 78.5t75 29.5q46 0 76.5 -32.5t30.5 -75.5q0 -48 -32 -79.5t-75 -31.5q-45 0 -76.5 33.5t-31.5 77.5zM1176 326q0 50 33.5 81t74.5 31q45 0 76 -34t31 -78q0 -46 -32.5 -77.5 t-74.5 -31.5q-45 0 -76.5 33.5t-31.5 75.5zM1176 541q0 48 32.5 77t75.5 29q48 0 77.5 -31t29.5 -75q0 -46 -32 -76.5t-75 -30.5q-47 0 -77.5 32.5t-30.5 74.5zM1176 758q0 47 32.5 75.5t75.5 28.5q49 0 78 -31t29 -73q0 -48 -32 -79.5t-75 -31.5q-47 0 -77.5 33.5 t-30.5 77.5zM1176 973q0 51 32.5 79.5t75.5 28.5q48 0 77.5 -32.5t29.5 -75.5q0 -46 -32.5 -77.5t-74.5 -31.5q-48 0 -78 33t-30 76zM1176 1188q0 49 33 78.5t75 29.5q48 0 77.5 -32.5t29.5 -75.5q0 -48 -32 -78.5t-75 -30.5q-45 0 -76.5 32.5t-31.5 76.5zM1176 1403 q0 50 33 80t75 30q45 0 76 -33t31 -77q0 -48 -32 -78.5t-75 -30.5q-45 0 -76.5 32.5t-31.5 76.5z" />
<glyph unicode="X" d="M98 109q0 48 33 78t76 30q47 0 76.5 -32.5t29.5 -75.5q0 -48 -31 -79.5t-75 -31.5q-45 0 -77 33.5t-32 77.5zM98 326q0 50 34 81t75 31q46 0 76 -34t30 -78q0 -46 -31.5 -77.5t-74.5 -31.5q-45 0 -77 33.5t-32 75.5zM98 1186q0 48 33 78t76 30q49 0 77.5 -32t28.5 -76 q0 -48 -31 -78.5t-75 -30.5q-45 0 -77 33t-32 76zM98 1401q0 49 33.5 79.5t75.5 30.5q46 0 76 -33t30 -77q0 -47 -31.5 -78t-74.5 -31q-45 0 -77 33t-32 76zM311 539q0 48 33 77t78 29q48 0 77 -31.5t29 -74.5q0 -44 -31.5 -75.5t-74.5 -31.5q-49 0 -80 32.5t-31 74.5z M311 971q0 48 33 78t78 30q47 0 76.5 -32.5t29.5 -75.5q0 -44 -31.5 -76.5t-74.5 -32.5q-50 0 -80.5 34t-30.5 75zM526 756q0 45 34 74.5t77 29.5q52 0 81.5 -31t29.5 -73q0 -46 -32.5 -78.5t-78.5 -32.5q-49 0 -80 33.5t-31 77.5zM745 756q0 44 32 74t75 30q50 0 80.5 -31 t30.5 -73q0 -47 -33 -79t-78 -32q-47 0 -77 33.5t-30 77.5zM961 539q0 48 31.5 77t76.5 29q49 0 80 -31.5t31 -74.5q0 -44 -33 -75.5t-78 -31.5q-47 0 -77.5 32.5t-30.5 74.5zM961 971q0 48 32 78t76 30q49 0 80 -32.5t31 -75.5q0 -44 -33.5 -76.5t-77.5 -32.5q-48 0 -78 34 t-30 75zM1176 109q0 49 33 78.5t75 29.5q46 0 76.5 -32.5t30.5 -75.5q0 -48 -32 -79.5t-75 -31.5q-45 0 -76.5 33.5t-31.5 77.5zM1176 326q0 50 33.5 81t74.5 31q45 0 76 -34t31 -78q0 -46 -32.5 -77.5t-74.5 -31.5q-45 0 -76.5 33.5t-31.5 75.5zM1176 1186q0 49 33 78.5 t75 29.5q48 0 77.5 -32.5t29.5 -75.5q0 -48 -32 -78.5t-75 -30.5q-45 0 -76.5 32.5t-31.5 76.5zM1176 1401q0 50 33 80t75 30q45 0 76 -33t31 -77q0 -46 -32.5 -77.5t-74.5 -31.5q-45 0 -76.5 32.5t-31.5 76.5z" />
<glyph unicode="Y" d="M195 971q0 48 32 78t74 30q49 0 80 -32.5t31 -75.5q0 -44 -32.5 -76.5t-78.5 -32.5q-48 0 -77 33.5t-29 75.5zM195 1186q0 46 32.5 77t73.5 31q49 0 80 -33t31 -75q0 -45 -33 -77t-78 -32q-44 0 -75 33t-31 76zM195 1401q0 48 32 79t74 31q46 0 78.5 -33.5t32.5 -76.5 q0 -45 -33 -77t-78 -32q-44 0 -75 33t-31 76zM410 760q0 46 32 75t76 29q53 0 82 -31t29 -73q0 -46 -32 -78.5t-79 -32.5q-49 0 -78.5 33.5t-29.5 77.5zM627 109q0 46 32.5 77t75.5 31q46 0 77.5 -32.5t31.5 -75.5q0 -46 -33.5 -78.5t-75.5 -32.5q-46 0 -77 34t-31 77z M627 324q0 48 32.5 80t75.5 32q45 0 77 -34t32 -78q0 -45 -33.5 -77t-75.5 -32q-46 0 -77 33.5t-31 75.5zM627 543q0 47 32.5 76.5t75.5 29.5q48 0 78.5 -31t30.5 -75q0 -45 -32.5 -76t-76.5 -31q-49 0 -78.5 32.5t-29.5 74.5zM627 760q0 45 32 74.5t76 29.5q49 0 79 -31 t30 -73q0 -46 -32.5 -78.5t-76.5 -32.5q-49 0 -78.5 33.5t-29.5 77.5zM842 760q0 45 32 74.5t76 29.5q49 0 80 -31.5t31 -72.5q0 -46 -32.5 -78.5t-78.5 -32.5q-49 0 -78.5 33.5t-29.5 77.5zM1057 971q0 51 32.5 79.5t77.5 28.5q46 0 75.5 -32.5t29.5 -75.5q0 -46 -32 -77.5 t-73 -31.5q-50 0 -80 33t-30 76zM1057 1186q0 49 33 78.5t77 29.5q46 0 75.5 -32.5t29.5 -75.5q0 -48 -31.5 -78.5t-73.5 -30.5q-46 0 -78 32.5t-32 76.5zM1057 1401q0 50 33.5 80t76.5 30t74 -33t31 -77q0 -46 -32 -77.5t-73 -31.5q-46 0 -78 32.5t-32 76.5z" />
<glyph unicode="Z" d="M98 109q0 48 33 78t76 30q47 0 76.5 -32.5t29.5 -75.5q0 -48 -31 -79.5t-75 -31.5q-45 0 -77 33.5t-32 77.5zM98 326q0 50 34 81t75 31q46 0 76 -34t30 -78q0 -46 -31.5 -77.5t-74.5 -31.5q-45 0 -77 33.5t-32 75.5zM98 1401q0 49 33.5 79.5t75.5 30.5q46 0 76 -33 t30 -77q0 -47 -31.5 -78t-74.5 -31q-45 0 -77 33t-32 76zM311 109q0 46 33.5 77t77.5 31q46 0 76 -32.5t30 -75.5q0 -45 -32 -78t-74 -33q-46 0 -78.5 34t-32.5 77zM311 539q0 48 33 77t78 29q48 0 77 -31.5t29 -74.5q0 -44 -31.5 -75.5t-74.5 -31.5q-49 0 -80 32.5 t-31 74.5zM311 1401q0 48 33.5 79t77.5 31t75 -33.5t31 -76.5q0 -45 -32 -77t-74 -32q-46 0 -78.5 33.5t-32.5 75.5zM526 109q0 47 33.5 77.5t77.5 30.5q49 0 80 -32.5t31 -75.5q0 -45 -33 -78t-78 -33q-46 0 -78.5 34t-32.5 77zM526 756q0 45 34 74.5t77 29.5 q52 0 81.5 -31t29.5 -73q0 -46 -32.5 -78.5t-78.5 -32.5q-49 0 -80 33.5t-31 77.5zM526 1401q0 48 34 79t77 31q48 0 79.5 -33.5t31.5 -76.5q0 -45 -33 -77t-78 -32q-46 0 -78.5 33.5t-32.5 75.5zM745 109q0 46 33 77t74 31q48 0 79.5 -32.5t31.5 -75.5q0 -46 -33.5 -78.5 t-77.5 -32.5t-75.5 34t-31.5 77zM745 756q0 44 32 74t75 30q50 0 80.5 -31t30.5 -73q0 -47 -33 -79t-78 -32q-47 0 -77 33.5t-30 77.5zM745 1401q0 48 32.5 79t74.5 31q46 0 78.5 -33t32.5 -77q0 -46 -33.5 -77.5t-77.5 -31.5q-45 0 -76 33.5t-31 75.5zM961 109q0 46 32 77 t76 31q48 0 79.5 -32.5t31.5 -75.5q0 -45 -34 -78t-77 -33q-45 0 -76.5 34t-31.5 77zM961 971q0 48 32 78t76 30q49 0 80 -32.5t31 -75.5q0 -44 -33.5 -76.5t-77.5 -32.5q-48 0 -78 34t-30 75zM961 1401q0 48 32 79t76 31q46 0 78.5 -33.5t32.5 -76.5q0 -45 -33.5 -77 t-77.5 -32q-45 0 -76.5 33.5t-31.5 75.5zM1176 109q0 49 33 78.5t75 29.5q46 0 76.5 -32.5t30.5 -75.5q0 -48 -32 -79.5t-75 -31.5q-45 0 -76.5 33.5t-31.5 77.5zM1176 1186q0 49 33 78.5t75 29.5q48 0 77.5 -32.5t29.5 -75.5q0 -48 -32 -78.5t-75 -30.5q-45 0 -76.5 32.5 t-31.5 76.5zM1176 1401q0 50 33 80t75 30q45 0 76 -33t31 -77q0 -46 -32.5 -77.5t-74.5 -31.5q-45 0 -76.5 32.5t-31.5 76.5z" />
<glyph unicode="[" d="M311 109q0 46 33.5 77t77.5 31q46 0 76 -32.5t30 -75.5q0 -45 -32 -78t-74 -33q-46 0 -78.5 34t-32.5 77zM311 326q0 48 33.5 80t77.5 32t75 -34.5t31 -77.5q0 -44 -32 -76.5t-74 -32.5q-46 0 -78.5 34t-32.5 75zM311 541q0 48 33 77t78 29q48 0 77 -31.5t29 -74.5 q0 -44 -31.5 -75.5t-74.5 -31.5q-49 0 -80 32.5t-31 74.5zM311 758q0 44 33.5 74t77.5 30q48 0 77 -31.5t29 -72.5q0 -46 -31.5 -78.5t-74.5 -32.5q-49 0 -80 33.5t-31 77.5zM311 973q0 48 33 78t78 30q47 0 76.5 -32.5t29.5 -75.5q0 -44 -31.5 -76.5t-74.5 -32.5 q-50 0 -80.5 34t-30.5 75zM311 1188q0 46 33.5 77t77.5 31q47 0 76.5 -33t29.5 -75q0 -45 -32 -77t-74 -32q-46 0 -78.5 33.5t-32.5 75.5zM311 1403q0 48 33.5 79t77.5 31q47 0 76.5 -33.5t29.5 -76.5q0 -45 -32 -77t-74 -32q-46 0 -78.5 33.5t-32.5 75.5zM526 109 q0 47 33.5 77.5t77.5 30.5q49 0 80 -32.5t31 -75.5q0 -45 -33 -78t-78 -33q-46 0 -78.5 34t-32.5 77zM526 1403q0 48 34 79t77 31q48 0 79.5 -33.5t31.5 -76.5q0 -45 -33 -77t-78 -32q-46 0 -78.5 33.5t-32.5 75.5zM745 109q0 46 33 77t74 31q48 0 79.5 -32.5t31.5 -75.5 q0 -46 -33.5 -78.5t-77.5 -32.5t-75.5 34t-31.5 77zM745 1403q0 48 32.5 79t74.5 31q46 0 78.5 -33t32.5 -77q0 -46 -33.5 -77.5t-77.5 -31.5q-45 0 -76 33.5t-31 75.5zM961 109q0 46 32 77t76 31q48 0 79.5 -32.5t31.5 -75.5q0 -45 -34 -78t-77 -33q-45 0 -76.5 34 t-31.5 77zM961 1403q0 48 32 79t76 31q46 0 78.5 -33.5t32.5 -76.5q0 -45 -33.5 -77t-77.5 -32q-45 0 -76.5 33.5t-31.5 75.5z" />
<glyph unicode="\" d="M98 1186q0 48 33 78t76 30q49 0 77.5 -32t28.5 -76q0 -48 -31 -78.5t-75 -30.5q-45 0 -77 33t-32 76zM311 971q0 48 33 78t78 30q47 0 76.5 -32.5t29.5 -75.5q0 -44 -31.5 -76.5t-74.5 -32.5q-50 0 -80.5 34t-30.5 75zM526 756q0 45 34 74.5t77 29.5q52 0 81.5 -31 t29.5 -73q0 -46 -32.5 -78.5t-78.5 -32.5q-49 0 -80 33.5t-31 77.5zM745 539q0 47 32.5 76.5t74.5 29.5q50 0 80.5 -31t30.5 -75q0 -45 -33 -76t-78 -31q-47 0 -77 32.5t-30 74.5zM961 324q0 48 32 80t76 32q46 0 78.5 -34.5t32.5 -77.5q0 -44 -34 -76.5t-77 -32.5 q-44 0 -76 34t-32 75zM1176 109q0 49 33 78.5t75 29.5q46 0 76.5 -32.5t30.5 -75.5q0 -48 -32 -79.5t-75 -31.5q-45 0 -76.5 33.5t-31.5 77.5z" />
<glyph unicode="]" d="M270 109q0 43 30.5 75.5t78.5 32.5q44 0 76 -31t32 -77q0 -44 -30.5 -77.5t-77.5 -33.5q-43 0 -76 33t-33 78zM270 1403q0 43 31.5 76.5t77.5 33.5q44 0 76 -31t32 -79q0 -43 -30 -76t-78 -33q-43 0 -76 32t-33 77zM485 109q0 43 31.5 75.5t79.5 32.5q41 0 73.5 -31 t32.5 -77q0 -43 -31 -77t-75 -34t-77.5 32.5t-33.5 78.5zM485 1403q0 44 32.5 77t78.5 33q42 0 74 -31t32 -79q0 -43 -31 -76t-75 -33t-77.5 31.5t-33.5 77.5zM700 109q0 43 31.5 75.5t81.5 32.5q42 0 75.5 -30.5t33.5 -77.5q0 -42 -32 -76.5t-77 -34.5q-46 0 -79.5 32.5 t-33.5 78.5zM700 1403q0 43 32 76.5t81 33.5q41 0 75 -31t34 -79q0 -42 -32 -75.5t-77 -33.5q-46 0 -79.5 32t-33.5 77zM920 109q0 43 30 75.5t76 32.5q44 0 77.5 -31t33.5 -77q0 -43 -31.5 -77t-79.5 -34q-42 0 -74 33t-32 78zM920 326q0 43 31 77.5t75 34.5t77.5 -32 t33.5 -80q0 -42 -31.5 -75.5t-79.5 -33.5q-42 0 -74 32.5t-32 76.5zM920 541q0 43 29 74.5t77 31.5q45 0 78 -29t33 -77q0 -42 -31 -74.5t-80 -32.5q-43 0 -74.5 31.5t-31.5 75.5zM920 758q0 41 29 72.5t77 31.5q45 0 78 -29.5t33 -74.5q0 -44 -31 -77.5t-80 -33.5 q-43 0 -74.5 32.5t-31.5 78.5zM920 973q0 43 29.5 75.5t76.5 32.5q45 0 78 -30t33 -78q0 -41 -30.5 -75t-80.5 -34q-43 0 -74.5 32.5t-31.5 76.5zM920 1188q0 42 29.5 75t76.5 33q44 0 77.5 -31t33.5 -77q0 -43 -31.5 -76t-79.5 -33q-42 0 -74 32t-32 77zM920 1403 q0 43 29.5 76.5t76.5 33.5q44 0 77.5 -31t33.5 -79q0 -43 -31.5 -76t-79.5 -33q-42 0 -74 32t-32 77z" />
<glyph unicode="^" d="M205 971q0 47 33 77.5t75 30.5q49 0 80 -32.5t31 -75.5q0 -44 -33.5 -76.5t-77.5 -32.5q-48 0 -78 34t-30 75zM422 1186q0 48 31.5 78t74.5 30q52 0 82.5 -32.5t30.5 -75.5q0 -46 -33 -77.5t-80 -31.5q-46 0 -76 33t-30 76zM639 1401q0 48 32.5 79t76.5 31q45 0 75.5 -33 t30.5 -77q0 -46 -32 -77.5t-74 -31.5q-46 0 -77.5 33t-31.5 76zM852 1186q0 46 34 77t77 31q48 0 79 -33t31 -75q0 -45 -34 -77t-76 -32q-46 0 -78.5 33.5t-32.5 75.5zM1069 971q0 51 33 79.5t76 28.5q47 0 76.5 -32.5t29.5 -75.5q0 -46 -32 -77.5t-74 -31.5q-49 0 -79 33.5 t-30 75.5z" />
<glyph unicode="_" d="M4 -106q0 44 30.5 75t78.5 31q44 0 76 -33t32 -73q0 -45 -32 -76t-76 -31q-49 0 -79 32.5t-30 74.5zM217 -106q0 47 34 77.5t75 30.5q49 0 79.5 -33t30.5 -75q0 -46 -33.5 -76.5t-76.5 -30.5q-46 0 -77.5 33t-31.5 74zM436 -106q0 47 32.5 77.5t74.5 30.5q48 0 77 -32.5 t29 -75.5q0 -46 -31 -76.5t-75 -30.5q-47 0 -77 32.5t-30 74.5zM649 -106q0 47 33.5 77.5t77.5 30.5q47 0 75.5 -32.5t28.5 -75.5q0 -48 -31 -77.5t-73 -29.5q-49 0 -80 32.5t-31 74.5zM866 -106q0 47 33.5 77.5t75.5 30.5q51 0 79.5 -32.5t28.5 -75.5q0 -46 -32 -76.5 t-76 -30.5q-48 0 -78.5 32.5t-30.5 74.5zM1083 -106q0 45 32.5 76.5t76.5 31.5q48 0 78 -33.5t30 -74.5q0 -44 -32 -75.5t-76 -31.5q-49 0 -79 32.5t-30 74.5zM1298 -106q0 45 32.5 76.5t76.5 31.5q50 0 80.5 -33.5t30.5 -74.5q0 -44 -33 -75.5t-78 -31.5q-49 0 -79 32.5 t-30 74.5z" />
<glyph unicode="`" d="M219 1620q0 46 34 78.5t75 32.5q49 0 80.5 -34.5t31.5 -76.5q0 -44 -34.5 -76.5t-77.5 -32.5q-45 0 -77 33.5t-32 75.5zM436 1405q0 52 31.5 80t75.5 28q48 0 77 -31.5t29 -76.5q0 -46 -31 -76.5t-75 -30.5q-49 0 -78 32.5t-29 74.5z" />
<glyph unicode="a" d="M98 324q0 50 34 81t75 31q46 0 76 -34t30 -78q0 -46 -31.5 -77.5t-74.5 -31.5q-45 0 -77 33.5t-32 75.5zM311 109q0 46 33.5 77t77.5 31q46 0 76 -32.5t30 -75.5q0 -45 -32 -78t-74 -33q-46 0 -78.5 34t-32.5 77zM311 539q0 48 33 77t78 29q48 0 77 -31.5t29 -74.5 q0 -44 -31.5 -75.5t-74.5 -31.5q-49 0 -80 32.5t-31 74.5zM311 971q0 48 33 78t78 30q47 0 76.5 -32.5t29.5 -75.5q0 -44 -31.5 -76.5t-74.5 -32.5q-50 0 -80.5 34t-30.5 75zM526 109q0 47 33.5 77.5t77.5 30.5q49 0 80 -32.5t31 -75.5q0 -45 -33 -78t-78 -33 q-46 0 -78.5 34t-32.5 77zM526 539q0 48 33.5 77t77.5 29q50 0 80.5 -31.5t30.5 -74.5q0 -44 -32.5 -75.5t-78.5 -31.5q-49 0 -80 32.5t-31 74.5zM526 971q0 49 33.5 78.5t77.5 29.5q50 0 80.5 -32t30.5 -76t-32.5 -76.5t-78.5 -32.5q-50 0 -80.5 34t-30.5 75zM745 109 q0 46 33 77t74 31q48 0 79.5 -32.5t31.5 -75.5q0 -46 -33.5 -78.5t-77.5 -32.5t-75.5 34t-31.5 77zM745 539q0 47 32.5 76.5t74.5 29.5q50 0 80.5 -31t30.5 -75q0 -45 -33 -76t-78 -31q-47 0 -77 32.5t-30 74.5zM745 971q0 47 32.5 77.5t74.5 30.5q49 0 80 -32.5t31 -75.5 q0 -45 -33 -77t-78 -32q-48 0 -77.5 33.5t-29.5 75.5zM961 324q0 48 32 80t76 32q46 0 78.5 -34.5t32.5 -77.5q0 -44 -34 -76.5t-77 -32.5q-44 0 -76 34t-32 75zM961 539q0 48 31.5 77t76.5 29q49 0 80 -31.5t31 -74.5q0 -44 -33 -75.5t-78 -31.5q-47 0 -77.5 32.5 t-30.5 74.5zM961 756q0 45 32 74.5t76 29.5q50 0 80.5 -31.5t30.5 -72.5q0 -45 -33 -78t-78 -33q-47 0 -77.5 33.5t-30.5 77.5zM1176 109q0 49 33 78.5t75 29.5q46 0 76.5 -32.5t30.5 -75.5q0 -48 -32 -79.5t-75 -31.5q-45 0 -76.5 33.5t-31.5 77.5z" />
<glyph unicode="b" d="M98 109q0 48 33 78t76 30q47 0 76.5 -32.5t29.5 -75.5q0 -48 -31 -79.5t-75 -31.5q-45 0 -77 33.5t-32 77.5zM98 324q0 50 34 81t75 31q46 0 76 -34t30 -78q0 -46 -31.5 -77.5t-74.5 -31.5q-45 0 -77 33.5t-32 75.5zM98 539q0 49 33 77.5t76 28.5q49 0 77.5 -30.5 t28.5 -75.5q0 -46 -31 -76.5t-75 -30.5q-48 0 -78.5 32.5t-30.5 74.5zM98 756q0 47 33 75.5t76 28.5q50 0 78 -30.5t28 -73.5q0 -48 -31 -79.5t-75 -31.5q-48 0 -78.5 34t-30.5 77zM98 971q0 51 33 79.5t76 28.5q49 0 77.5 -32t28.5 -76q0 -47 -31.5 -78t-74.5 -31 q-49 0 -79 33.5t-30 75.5zM98 1186q0 48 33 78t76 30q49 0 77.5 -32t28.5 -76q0 -48 -31 -78.5t-75 -30.5q-45 0 -77 33t-32 76zM98 1401q0 49 33.5 79.5t75.5 30.5q46 0 76 -33t30 -77q0 -47 -31.5 -78t-74.5 -31q-45 0 -77 33t-32 76zM311 324q0 48 33.5 80t77.5 32 t75 -34.5t31 -77.5q0 -44 -32 -76.5t-74 -32.5q-46 0 -78.5 34t-32.5 75zM311 756q0 44 33.5 74t77.5 30q48 0 77 -31.5t29 -72.5q0 -46 -31.5 -78.5t-74.5 -32.5q-49 0 -80 33.5t-31 77.5zM526 109q0 47 33.5 77.5t77.5 30.5q49 0 80 -32.5t31 -75.5q0 -45 -33 -78t-78 -33 q-46 0 -78.5 34t-32.5 77zM526 971q0 49 33.5 78.5t77.5 29.5q50 0 80.5 -32t30.5 -76t-32.5 -76.5t-78.5 -32.5q-50 0 -80.5 34t-30.5 75zM745 109q0 46 33 77t74 31q48 0 79.5 -32.5t31.5 -75.5q0 -46 -33.5 -78.5t-77.5 -32.5t-75.5 34t-31.5 77zM745 971q0 47 32.5 77.5 t74.5 30.5q49 0 80 -32.5t31 -75.5q0 -45 -33 -77t-78 -32q-48 0 -77.5 33.5t-29.5 75.5zM961 109q0 46 32 77t76 31q48 0 79.5 -32.5t31.5 -75.5q0 -45 -34 -78t-77 -33q-45 0 -76.5 34t-31.5 77zM961 971q0 48 32 78t76 30q49 0 80 -32.5t31 -75.5q0 -44 -33.5 -76.5 t-77.5 -32.5q-48 0 -78 34t-30 75zM1176 324q0 50 33.5 81t74.5 31q45 0 76 -34t31 -78q0 -46 -32.5 -77.5t-74.5 -31.5q-45 0 -76.5 33.5t-31.5 75.5zM1176 539q0 50 32.5 78t75.5 28q48 0 77.5 -31t29.5 -75q0 -46 -32 -76.5t-75 -30.5q-47 0 -77.5 32.5t-30.5 74.5z M1176 756q0 47 32.5 75.5t75.5 28.5q49 0 78 -31t29 -73q0 -48 -32 -79.5t-75 -31.5q-47 0 -77.5 33.5t-30.5 77.5z" />
<glyph unicode="c" d="M98 324q0 50 34 81t75 31q46 0 76 -34t30 -78q0 -46 -31.5 -77.5t-74.5 -31.5q-45 0 -77 33.5t-32 75.5zM98 539q0 49 33 77.5t76 28.5q49 0 77.5 -30.5t28.5 -75.5q0 -46 -31 -76.5t-75 -30.5q-48 0 -78.5 32.5t-30.5 74.5zM98 756q0 47 33 75.5t76 28.5q50 0 78 -30.5 t28 -73.5q0 -48 -31 -79.5t-75 -31.5q-48 0 -78.5 34t-30.5 77zM311 109q0 46 33.5 77t77.5 31q46 0 76 -32.5t30 -75.5q0 -45 -32 -78t-74 -33q-46 0 -78.5 34t-32.5 77zM311 971q0 48 33 78t78 30q47 0 76.5 -32.5t29.5 -75.5q0 -44 -31.5 -76.5t-74.5 -32.5 q-50 0 -80.5 34t-30.5 75zM526 109q0 47 33.5 77.5t77.5 30.5q49 0 80 -32.5t31 -75.5q0 -45 -33 -78t-78 -33q-46 0 -78.5 34t-32.5 77zM526 971q0 49 33.5 78.5t77.5 29.5q50 0 80.5 -32t30.5 -76t-32.5 -76.5t-78.5 -32.5q-50 0 -80.5 34t-30.5 75zM745 109q0 46 33 77 t74 31q48 0 79.5 -32.5t31.5 -75.5q0 -46 -33.5 -78.5t-77.5 -32.5t-75.5 34t-31.5 77zM745 971q0 47 32.5 77.5t74.5 30.5q49 0 80 -32.5t31 -75.5q0 -45 -33 -77t-78 -32q-48 0 -77.5 33.5t-29.5 75.5zM961 109q0 46 32 77t76 31q48 0 79.5 -32.5t31.5 -75.5 q0 -45 -34 -78t-77 -33q-45 0 -76.5 34t-31.5 77zM961 971q0 48 32 78t76 30q49 0 80 -32.5t31 -75.5q0 -44 -33.5 -76.5t-77.5 -32.5q-48 0 -78 34t-30 75z" />
<glyph unicode="d" d="M98 324q0 50 34 81t75 31q46 0 76 -34t30 -78q0 -46 -31.5 -77.5t-74.5 -31.5q-45 0 -77 33.5t-32 75.5zM98 539q0 49 33 77.5t76 28.5q49 0 77.5 -30.5t28.5 -75.5q0 -46 -31 -76.5t-75 -30.5q-48 0 -78.5 32.5t-30.5 74.5zM98 756q0 47 33 75.5t76 28.5q50 0 78 -30.5 t28 -73.5q0 -48 -31 -79.5t-75 -31.5q-48 0 -78.5 34t-30.5 77zM311 109q0 46 33.5 77t77.5 31q46 0 76 -32.5t30 -75.5q0 -45 -32 -78t-74 -33q-46 0 -78.5 34t-32.5 77zM311 971q0 48 33 78t78 30q47 0 76.5 -32.5t29.5 -75.5q0 -44 -31.5 -76.5t-74.5 -32.5 q-50 0 -80.5 34t-30.5 75zM526 109q0 47 33.5 77.5t77.5 30.5q49 0 80 -32.5t31 -75.5q0 -45 -33 -78t-78 -33q-46 0 -78.5 34t-32.5 77zM526 971q0 49 33.5 78.5t77.5 29.5q50 0 80.5 -32t30.5 -76t-32.5 -76.5t-78.5 -32.5q-50 0 -80.5 34t-30.5 75zM745 109q0 46 33 77 t74 31q48 0 79.5 -32.5t31.5 -75.5q0 -46 -33.5 -78.5t-77.5 -32.5t-75.5 34t-31.5 77zM745 971q0 47 32.5 77.5t74.5 30.5q49 0 80 -32.5t31 -75.5q0 -45 -33 -77t-78 -32q-48 0 -77.5 33.5t-29.5 75.5zM961 324q0 48 32 80t76 32q46 0 78.5 -34.5t32.5 -77.5 q0 -44 -34 -76.5t-77 -32.5q-44 0 -76 34t-32 75zM961 756q0 45 32 74.5t76 29.5q50 0 80.5 -31.5t30.5 -72.5q0 -45 -33 -78t-78 -33q-47 0 -77.5 33.5t-30.5 77.5zM1176 109q0 49 33 78.5t75 29.5q46 0 76.5 -32.5t30.5 -75.5q0 -48 -32 -79.5t-75 -31.5q-45 0 -76.5 33.5 t-31.5 77.5zM1176 324q0 50 33.5 81t74.5 31q45 0 76 -34t31 -78q0 -46 -32.5 -77.5t-74.5 -31.5q-45 0 -76.5 33.5t-31.5 75.5zM1176 539q0 50 32.5 78t75.5 28q48 0 77.5 -31t29.5 -75q0 -46 -32 -76.5t-75 -30.5q-47 0 -77.5 32.5t-30.5 74.5zM1176 756q0 47 32.5 75.5 t75.5 28.5q49 0 78 -31t29 -73q0 -48 -32 -79.5t-75 -31.5q-47 0 -77.5 33.5t-30.5 77.5zM1176 971q0 51 32.5 79.5t75.5 28.5q48 0 77.5 -32.5t29.5 -75.5q0 -46 -32.5 -77.5t-74.5 -31.5q-48 0 -78 33t-30 76zM1176 1186q0 49 33 78.5t75 29.5q48 0 77.5 -32.5t29.5 -75.5 q0 -48 -32 -78.5t-75 -30.5q-45 0 -76.5 32.5t-31.5 76.5zM1176 1401q0 50 33 80t75 30q45 0 76 -33t31 -77q0 -46 -32.5 -77.5t-74.5 -31.5q-45 0 -76.5 32.5t-31.5 76.5z" />
<glyph unicode="e" d="M98 324q0 50 34 81t75 31q46 0 76 -34t30 -78q0 -46 -31.5 -77.5t-74.5 -31.5q-45 0 -77 33.5t-32 75.5zM98 539q0 49 33 77.5t76 28.5q49 0 77.5 -30.5t28.5 -75.5q0 -46 -31 -76.5t-75 -30.5q-48 0 -78.5 32.5t-30.5 74.5zM98 756q0 47 33 75.5t76 28.5q50 0 78 -30.5 t28 -73.5q0 -48 -31 -79.5t-75 -31.5q-48 0 -78.5 34t-30.5 77zM311 109q0 46 33.5 77t77.5 31q46 0 76 -32.5t30 -75.5q0 -45 -32 -78t-74 -33q-46 0 -78.5 34t-32.5 77zM311 539q0 48 33 77t78 29q48 0 77 -31.5t29 -74.5q0 -44 -31.5 -75.5t-74.5 -31.5q-49 0 -80 32.5 t-31 74.5zM311 971q0 48 33 78t78 30q47 0 76.5 -32.5t29.5 -75.5q0 -44 -31.5 -76.5t-74.5 -32.5q-50 0 -80.5 34t-30.5 75zM526 109q0 47 33.5 77.5t77.5 30.5q49 0 80 -32.5t31 -75.5q0 -45 -33 -78t-78 -33q-46 0 -78.5 34t-32.5 77zM526 539q0 48 33.5 77t77.5 29 q50 0 80.5 -31.5t30.5 -74.5q0 -44 -32.5 -75.5t-78.5 -31.5q-49 0 -80 32.5t-31 74.5zM526 971q0 49 33.5 78.5t77.5 29.5q50 0 80.5 -32t30.5 -76t-32.5 -76.5t-78.5 -32.5q-50 0 -80.5 34t-30.5 75zM745 109q0 46 33 77t74 31q48 0 79.5 -32.5t31.5 -75.5 q0 -46 -33.5 -78.5t-77.5 -32.5t-75.5 34t-31.5 77zM745 539q0 47 32.5 76.5t74.5 29.5q50 0 80.5 -31t30.5 -75q0 -45 -33 -76t-78 -31q-47 0 -77 32.5t-30 74.5zM745 971q0 47 32.5 77.5t74.5 30.5q49 0 80 -32.5t31 -75.5q0 -45 -33 -77t-78 -32q-48 0 -77.5 33.5 t-29.5 75.5zM961 109q0 46 32 77t76 31q48 0 79.5 -32.5t31.5 -75.5q0 -45 -34 -78t-77 -33q-45 0 -76.5 34t-31.5 77zM961 539q0 48 31.5 77t76.5 29q49 0 80 -31.5t31 -74.5q0 -44 -33 -75.5t-78 -31.5q-47 0 -77.5 32.5t-30.5 74.5zM961 971q0 48 32 78t76 30 q49 0 80 -32.5t31 -75.5q0 -44 -33.5 -76.5t-77.5 -32.5q-48 0 -78 34t-30 75zM1176 539q0 50 32.5 78t75.5 28q48 0 77.5 -31t29.5 -75q0 -46 -32 -76.5t-75 -30.5q-47 0 -77.5 32.5t-30.5 74.5zM1176 756q0 47 32.5 75.5t75.5 28.5q49 0 78 -31t29 -73q0 -48 -32 -79.5 t-75 -31.5q-47 0 -77.5 33.5t-30.5 77.5z" />
<glyph unicode="f" d="M94 756q0 45 32.5 74.5t76.5 29.5q51 0 80.5 -31.5t29.5 -72.5q0 -45 -34.5 -78t-79.5 -33q-50 0 -77.5 33t-27.5 78zM311 756q0 44 33.5 74t77.5 30q48 0 77 -31.5t29 -72.5q0 -46 -31.5 -78.5t-74.5 -32.5q-49 0 -80 33.5t-31 77.5zM526 109q0 47 33.5 77.5t77.5 30.5 q49 0 80 -32.5t31 -75.5q0 -45 -33 -78t-78 -33q-46 0 -78.5 34t-32.5 77zM526 324q0 49 34.5 80.5t76.5 31.5q48 0 79.5 -34.5t31.5 -77.5q0 -44 -33.5 -76.5t-77.5 -32.5q-46 0 -78.5 34t-32.5 75zM526 539q0 48 33.5 77t77.5 29q50 0 80.5 -31.5t30.5 -74.5 q0 -44 -32.5 -75.5t-78.5 -31.5q-49 0 -80 32.5t-31 74.5zM526 756q0 45 34 74.5t77 29.5q52 0 81.5 -31t29.5 -73q0 -46 -32.5 -78.5t-78.5 -32.5q-49 0 -80 33.5t-31 77.5zM526 971q0 49 33.5 78.5t77.5 29.5q50 0 80.5 -32t30.5 -76t-32.5 -76.5t-78.5 -32.5 q-50 0 -80.5 34t-30.5 75zM526 1186q0 47 33.5 77.5t77.5 30.5q50 0 80.5 -32.5t30.5 -75.5q0 -45 -33 -77t-78 -32q-46 0 -78.5 33.5t-32.5 75.5zM745 756q0 44 32 74t75 30q50 0 80.5 -31t30.5 -73q0 -47 -33 -79t-78 -32q-47 0 -77 33.5t-30 77.5zM745 1401q0 48 32.5 79 t74.5 31q46 0 78.5 -33t32.5 -77q0 -46 -33.5 -77.5t-77.5 -31.5q-45 0 -76 33.5t-31 75.5zM961 756q0 45 32 74.5t76 29.5q50 0 80.5 -31.5t30.5 -72.5q0 -45 -36 -78t-81 -33q-47 0 -74.5 33.5t-27.5 77.5zM961 1401q0 48 32 79t76 31q46 0 78.5 -33.5t32.5 -76.5 q0 -45 -33.5 -77t-77.5 -32q-45 0 -76.5 33.5t-31.5 75.5zM1176 1186q0 49 33 78.5t75 29.5q48 0 77.5 -32.5t29.5 -75.5q0 -48 -32 -78.5t-75 -30.5q-45 0 -76.5 32.5t-31.5 76.5z" />
<glyph unicode="g" d="M98 539q0 49 33 77.5t76 28.5q49 0 77.5 -30.5t28.5 -75.5q0 -46 -31 -76.5t-75 -30.5q-48 0 -78.5 32.5t-30.5 74.5zM98 756q0 47 33 75.5t76 28.5q50 0 78 -30.5t28 -73.5q0 -48 -31 -79.5t-75 -31.5q-48 0 -78.5 34t-30.5 77zM311 -106q0 45 33.5 76.5t77.5 31.5 q48 0 77 -33t29 -75q0 -44 -31.5 -75.5t-74.5 -31.5q-49 0 -80 32.5t-31 74.5zM311 324q0 48 33.5 80t77.5 32t75 -34.5t31 -77.5q0 -44 -32 -76.5t-74 -32.5q-46 0 -78.5 34t-32.5 75zM311 971q0 48 33 78t78 30q47 0 76.5 -32.5t29.5 -75.5q0 -44 -31.5 -76.5t-74.5 -32.5 q-50 0 -80.5 34t-30.5 75zM526 -106q0 46 34 77t77 31q52 0 81.5 -33t29.5 -75q0 -44 -32.5 -75.5t-78.5 -31.5q-49 0 -80 32.5t-31 74.5zM526 324q0 49 34.5 80.5t76.5 31.5q48 0 79.5 -34.5t31.5 -77.5q0 -44 -33.5 -76.5t-77.5 -32.5q-46 0 -78.5 34t-32.5 75zM526 971 q0 49 33.5 78.5t77.5 29.5q50 0 80.5 -32t30.5 -76t-32.5 -76.5t-78.5 -32.5q-50 0 -80.5 34t-30.5 75zM745 -106q0 45 32.5 76.5t74.5 31.5q50 0 80.5 -32.5t30.5 -75.5q0 -45 -33 -76t-78 -31q-47 0 -77 32.5t-30 74.5zM745 324q0 48 32.5 80t74.5 32q46 0 78.5 -34 t32.5 -78q0 -45 -33.5 -77t-77.5 -32t-75.5 34t-31.5 75zM745 971q0 47 32.5 77.5t74.5 30.5q49 0 80 -32.5t31 -75.5q0 -45 -33 -77t-78 -32q-48 0 -77.5 33.5t-29.5 75.5zM956 539q0 47 33.5 76.5t75.5 29.5q49 0 80 -31.5t31 -74.5q0 -44 -33 -75.5t-78 -31.5 q-48 0 -78.5 32.5t-30.5 74.5zM956 756q0 44 33 74t76 30q50 0 80.5 -31.5t30.5 -72.5q0 -45 -33 -78t-78 -33q-48 0 -78.5 34t-30.5 77zM961 -106q0 45 32.5 76.5t75.5 31.5q50 0 80.5 -33.5t30.5 -74.5q0 -44 -33 -75.5t-78 -31.5q-47 0 -77.5 32.5t-30.5 74.5zM1176 109 q0 49 33 78.5t75 29.5q46 0 76.5 -32.5t30.5 -75.5q0 -48 -32 -79.5t-75 -31.5q-45 0 -76.5 33.5t-31.5 77.5zM1176 324q0 50 33.5 81t74.5 31q45 0 76 -34t31 -78q0 -46 -32.5 -77.5t-74.5 -31.5q-45 0 -76.5 33.5t-31.5 75.5zM1176 539q0 50 32.5 78t75.5 28 q51 0 79 -31.5t28 -74.5q0 -46 -32 -76.5t-75 -30.5q-47 0 -77.5 32.5t-30.5 74.5zM1176 756q0 47 32.5 75.5t75.5 28.5q49 0 78 -31t29 -73q0 -48 -32 -79.5t-75 -31.5q-47 0 -77.5 33.5t-30.5 77.5zM1176 971q0 51 32.5 79.5t75.5 28.5q48 0 77.5 -32.5t29.5 -75.5 q0 -46 -32.5 -77.5t-74.5 -31.5q-48 0 -78 33t-30 76z" />
<glyph unicode="h" d="M98 109q0 48 33 78t76 30q47 0 76.5 -32.5t29.5 -75.5q0 -48 -31 -79.5t-75 -31.5q-45 0 -77 33.5t-32 77.5zM98 324q0 50 34 81t75 31q46 0 76 -34t30 -78q0 -46 -31.5 -77.5t-74.5 -31.5q-45 0 -77 33.5t-32 75.5zM98 539q0 49 33 77.5t76 28.5q49 0 77.5 -30.5 t28.5 -75.5q0 -46 -31 -76.5t-75 -30.5q-48 0 -78.5 32.5t-30.5 74.5zM98 756q0 47 33 75.5t76 28.5q50 0 78 -30.5t28 -73.5q0 -48 -31 -79.5t-75 -31.5q-48 0 -78.5 34t-30.5 77zM98 971q0 51 33 79.5t76 28.5q49 0 77.5 -32t28.5 -76q0 -47 -31.5 -78t-74.5 -31 q-49 0 -79 33.5t-30 75.5zM98 1186q0 48 33 78t76 30q49 0 77.5 -32t28.5 -76q0 -48 -31 -78.5t-75 -30.5q-45 0 -77 33t-32 76zM98 1401q0 49 33.5 79.5t75.5 30.5q46 0 76 -33t30 -77q0 -47 -31.5 -78t-74.5 -31q-45 0 -77 33t-32 76zM311 756q0 44 33.5 74t77.5 30 q48 0 77 -31.5t29 -72.5q0 -46 -31.5 -78.5t-74.5 -32.5q-49 0 -80 33.5t-31 77.5zM526 971q0 49 33.5 78.5t77.5 29.5q50 0 80.5 -32t30.5 -76t-32.5 -76.5t-78.5 -32.5q-50 0 -80.5 34t-30.5 75zM745 971q0 47 32.5 77.5t74.5 30.5q49 0 80 -32.5t31 -75.5q0 -45 -33 -77 t-78 -32q-48 0 -77.5 33.5t-29.5 75.5zM961 971q0 48 32 78t76 30q49 0 80 -32.5t31 -75.5q0 -44 -33.5 -76.5t-77.5 -32.5q-48 0 -78 34t-30 75zM1176 109q0 49 33 78.5t75 29.5q46 0 76.5 -32.5t30.5 -75.5q0 -48 -32 -79.5t-75 -31.5q-45 0 -76.5 33.5t-31.5 77.5z M1176 324q0 50 33.5 81t74.5 31q45 0 76 -34t31 -78q0 -46 -32.5 -77.5t-74.5 -31.5q-45 0 -76.5 33.5t-31.5 75.5zM1176 539q0 50 32.5 78t75.5 28q48 0 77.5 -31t29.5 -75q0 -46 -32 -76.5t-75 -30.5q-47 0 -77.5 32.5t-30.5 74.5zM1176 756q0 47 32.5 75.5t75.5 28.5 q49 0 78 -31t29 -73q0 -48 -32 -79.5t-75 -31.5q-47 0 -77.5 33.5t-30.5 77.5z" />
<glyph unicode="i" d="M385 109q0 47 33.5 77.5t75.5 30.5q50 0 81 -32t31 -76q0 -46 -33 -78.5t-79 -32.5q-45 0 -77 34.5t-32 76.5zM385 971q0 48 33 78t76 30q51 0 81.5 -32t30.5 -76q0 -45 -32.5 -77t-79.5 -32q-48 0 -78.5 34t-30.5 75zM604 109q0 46 32 77t75 31q46 0 78 -33t32 -75 q0 -46 -33 -78.5t-77 -32.5q-46 0 -76.5 34t-30.5 77zM604 324q0 48 32 80t75 32q45 0 77.5 -34t32.5 -78q0 -45 -33 -77t-77 -32q-45 0 -76 33.5t-31 75.5zM604 539q0 48 32 77t75 29q48 0 79 -31t31 -75q0 -45 -32.5 -76t-77.5 -31q-47 0 -77 32.5t-30 74.5zM604 756 q0 45 31.5 74.5t75.5 29.5q49 0 79.5 -31t30.5 -73q0 -47 -32.5 -79t-77.5 -32q-47 0 -77 33.5t-30 77.5zM604 971q0 48 32 78t75 30q48 0 79 -32.5t31 -75.5q0 -45 -32.5 -77t-77.5 -32q-48 0 -77.5 33.5t-29.5 75.5zM604 1401q0 48 32 79t75 31q45 0 77.5 -33.5 t32.5 -76.5q0 -46 -33 -77.5t-77 -31.5q-46 0 -76.5 33t-30.5 76zM819 109q0 46 32.5 77t76.5 31q48 0 78 -32.5t30 -75.5q0 -45 -32.5 -78t-75.5 -33q-48 0 -78.5 34t-30.5 77z" />
<glyph unicode="j" d="M145 109q0 48 34 78t77 30q45 0 75.5 -32.5t30.5 -75.5q0 -48 -32 -79.5t-74 -31.5q-45 0 -78 34t-33 77zM360 -106q0 45 32.5 76.5t74.5 31.5q50 0 80.5 -33.5t30.5 -74.5q0 -44 -33 -75.5t-78 -31.5q-47 0 -77 32.5t-30 74.5zM575 -106q0 46 33 77t76 31q53 0 82 -32.5 t29 -75.5q0 -45 -32 -76t-79 -31q-49 0 -79 32.5t-30 74.5zM793 -106q0 45 32.5 76.5t75.5 31.5q49 0 80 -33t31 -75q0 -45 -33.5 -76t-77.5 -31q-49 0 -78.5 32.5t-29.5 74.5zM793 971q0 48 32.5 78t75.5 30q48 0 79.5 -32.5t31.5 -75.5q0 -45 -33.5 -77t-77.5 -32 q-49 0 -78.5 33.5t-29.5 75.5zM1010 109q0 46 32 77t74 31q48 0 79.5 -32.5t31.5 -75.5q0 -45 -33 -78t-78 -33q-46 0 -76 34t-30 77zM1010 324q0 48 31.5 80t74.5 32q46 0 78.5 -34.5t32.5 -77.5q0 -44 -33.5 -76.5t-77.5 -32.5q-45 0 -75.5 33.5t-30.5 75.5zM1010 539 q0 48 31.5 77t74.5 29q49 0 80 -31.5t31 -74.5q0 -44 -33 -75.5t-78 -31.5q-48 0 -77 32t-29 75zM1010 756q0 45 31 74.5t75 29.5q50 0 80.5 -31.5t30.5 -72.5q0 -45 -33 -78t-78 -33q-48 0 -77 33.5t-29 77.5zM1010 971q0 48 31.5 78t74.5 30q49 0 80 -32.5t31 -75.5 q0 -44 -33.5 -76.5t-77.5 -32.5q-49 0 -77.5 33.5t-28.5 75.5zM1010 1401q0 48 31.5 79t74.5 31q46 0 78.5 -33.5t32.5 -76.5q0 -45 -33 -77t-78 -32q-46 0 -76 33t-30 76z" />
<glyph unicode="k" d="M217 109q0 48 34 78t75 30q46 0 77 -32.5t31 -75.5q0 -48 -32.5 -79.5t-75.5 -31.5q-44 0 -76.5 34t-32.5 77zM217 324q0 49 34.5 80.5t74.5 31.5q45 0 76.5 -34t31.5 -78q0 -46 -32.5 -77.5t-75.5 -31.5q-44 0 -76.5 33.5t-32.5 75.5zM217 539q0 49 33.5 77.5t75.5 28.5 q48 0 78 -31t30 -75q0 -46 -32.5 -76.5t-75.5 -30.5q-46 0 -77.5 33t-31.5 74zM217 756q0 47 33.5 75.5t75.5 28.5q49 0 78.5 -31t29.5 -73q0 -48 -32.5 -79.5t-75.5 -31.5q-46 0 -77.5 34t-31.5 77zM217 971q0 50 33.5 79t75.5 29q48 0 78 -32.5t30 -75.5 q0 -46 -32.5 -77.5t-75.5 -31.5q-47 0 -78 33.5t-31 75.5zM217 1186q0 48 34 78t75 30q48 0 78 -32.5t30 -75.5q0 -48 -32.5 -78.5t-75.5 -30.5q-44 0 -76.5 33t-32.5 76zM217 1401q0 49 34.5 79.5t74.5 30.5q45 0 76.5 -33t31.5 -77q0 -46 -32.5 -77.5t-75.5 -31.5 q-44 0 -76.5 33t-32.5 76zM432 324q0 48 32 80t75 32q47 0 77.5 -34t30.5 -78t-32 -76.5t-76 -32.5q-45 0 -76 33.5t-31 75.5zM645 539q0 49 33 77.5t78 28.5q51 0 79.5 -31t28.5 -75q0 -45 -30.5 -76t-77.5 -31q-49 0 -80 32.5t-31 74.5zM862 324q0 48 34 80t77 32 q44 0 76 -34.5t32 -77.5q0 -45 -33.5 -77t-74.5 -32q-46 0 -78.5 34t-32.5 75zM862 756q0 44 33.5 74t77.5 30q48 0 78 -31t30 -73q0 -46 -33 -78.5t-75 -32.5q-49 0 -80 33.5t-31 77.5zM1079 109q0 46 33 77t76 31q48 0 79 -32.5t31 -75.5q0 -45 -33.5 -78t-76.5 -33 q-46 0 -77.5 34t-31.5 77zM1079 971q0 48 33 78t76 30q49 0 79.5 -32.5t30.5 -75.5q0 -44 -33 -76.5t-77 -32.5q-49 0 -79 33.5t-30 75.5z" />
<glyph unicode="l" d="M410 109q0 48 32 78t76 30q50 0 80.5 -32t30.5 -76q0 -46 -32.5 -78.5t-78.5 -32.5t-77 34t-31 77zM410 1401q0 49 32.5 79.5t75.5 30.5q49 0 80 -33.5t31 -76.5q0 -46 -32.5 -77.5t-78.5 -31.5t-77 33t-31 76zM627 109q0 46 32.5 77t75.5 31q46 0 77.5 -32.5t31.5 -75.5 q0 -46 -33.5 -78.5t-75.5 -32.5q-46 0 -77 34t-31 77zM627 324q0 48 32.5 80t75.5 32q45 0 77 -34t32 -78q0 -45 -33.5 -77t-75.5 -32q-46 0 -77 33.5t-31 75.5zM627 539q0 47 32.5 76.5t75.5 29.5q48 0 78.5 -31t30.5 -75q0 -45 -32.5 -76t-76.5 -31q-49 0 -78.5 32.5 t-29.5 74.5zM627 756q0 45 32 74.5t76 29.5q49 0 79 -31t30 -73q0 -46 -32.5 -78.5t-76.5 -32.5q-49 0 -78.5 33.5t-29.5 77.5zM627 971q0 48 32.5 78t75.5 30q48 0 78.5 -32.5t30.5 -75.5q0 -45 -33 -77t-76 -32q-49 0 -78.5 33.5t-29.5 75.5zM627 1186q0 46 32.5 77 t75.5 31q48 0 78.5 -32.5t30.5 -75.5q0 -46 -33 -77.5t-76 -31.5q-46 0 -77 33t-31 76zM627 1401q0 48 32.5 79t75.5 31q45 0 77 -33t32 -77q0 -46 -33 -77.5t-76 -31.5q-46 0 -77 33t-31 76zM842 109q0 46 32.5 77t75.5 31q46 0 78.5 -33t32.5 -75q0 -45 -33 -78t-78 -33 q-46 0 -77 34t-31 77z" />
<glyph unicode="m" d="M98 971q0 51 33 79.5t76 28.5q49 0 77.5 -32t28.5 -76q0 -47 -31.5 -78t-74.5 -31q-49 0 -79 33.5t-30 75.5zM311 109q0 46 33.5 77t77.5 31q46 0 76 -32.5t30 -75.5q0 -45 -32 -78t-74 -33q-46 0 -78.5 34t-32.5 77zM311 324q0 48 33.5 80t77.5 32t75 -34.5t31 -77.5 q0 -44 -32 -76.5t-74 -32.5q-46 0 -78.5 34t-32.5 75zM311 539q0 48 33 77t78 29q48 0 77 -31.5t29 -74.5q0 -44 -31.5 -75.5t-74.5 -31.5q-49 0 -80 32.5t-31 74.5zM311 756q0 44 33.5 74t77.5 30q48 0 77 -31.5t29 -72.5q0 -46 -31.5 -78.5t-74.5 -32.5q-49 0 -80 33.5 t-31 77.5zM311 971q0 48 33 78t78 30q47 0 76.5 -32.5t29.5 -75.5q0 -44 -31.5 -76.5t-74.5 -32.5q-50 0 -80.5 34t-30.5 75zM526 971q0 49 33.5 78.5t77.5 29.5q50 0 80.5 -32t30.5 -76t-32.5 -76.5t-78.5 -32.5q-50 0 -80.5 34t-30.5 75zM745 539q0 47 32.5 76.5 t74.5 29.5q50 0 80.5 -31t30.5 -75q0 -45 -33 -76t-78 -31q-47 0 -77 32.5t-30 74.5zM745 756q0 44 32 74t75 30q50 0 80.5 -31t30.5 -73q0 -47 -33 -79t-78 -32q-47 0 -77 33.5t-30 77.5zM961 971q0 48 32 78t76 30q49 0 80 -32.5t31 -75.5q0 -44 -33.5 -76.5t-77.5 -32.5 q-48 0 -78 34t-30 75zM1176 109q0 49 33 78.5t75 29.5q46 0 76.5 -32.5t30.5 -75.5q0 -48 -32 -79.5t-75 -31.5q-45 0 -76.5 33.5t-31.5 77.5zM1176 324q0 50 33.5 81t74.5 31q45 0 76 -34t31 -78q0 -46 -32.5 -77.5t-74.5 -31.5q-45 0 -76.5 33.5t-31.5 75.5zM1176 539 q0 50 32.5 78t75.5 28q48 0 77.5 -31t29.5 -75q0 -46 -32 -76.5t-75 -30.5q-47 0 -77.5 32.5t-30.5 74.5zM1176 756q0 47 32.5 75.5t75.5 28.5q49 0 78 -31t29 -73q0 -48 -32 -79.5t-75 -31.5q-47 0 -77.5 33.5t-30.5 77.5z" />
<glyph unicode="n" d="M98 971q0 51 33 79.5t76 28.5q49 0 77.5 -32t28.5 -76q0 -47 -31.5 -78t-74.5 -31q-49 0 -79 33.5t-30 75.5zM311 109q0 46 33.5 77t77.5 31q46 0 76 -32.5t30 -75.5q0 -45 -32 -78t-74 -33q-46 0 -78.5 34t-32.5 77zM311 324q0 48 33.5 80t77.5 32t75 -34.5t31 -77.5 q0 -44 -32 -76.5t-74 -32.5q-46 0 -78.5 34t-32.5 75zM311 539q0 48 33 77t78 29q48 0 77 -31.5t29 -74.5q0 -44 -31.5 -75.5t-74.5 -31.5q-49 0 -80 32.5t-31 74.5zM311 756q0 44 33.5 74t77.5 30q48 0 77 -31.5t29 -72.5q0 -46 -31.5 -78.5t-74.5 -32.5q-49 0 -80 33.5 t-31 77.5zM311 971q0 48 33 78t78 30q47 0 76.5 -32.5t29.5 -75.5q0 -44 -31.5 -76.5t-74.5 -32.5q-50 0 -80.5 34t-30.5 75zM526 971q0 49 33.5 78.5t77.5 29.5q50 0 80.5 -32t30.5 -76t-32.5 -76.5t-78.5 -32.5q-50 0 -80.5 34t-30.5 75zM745 971q0 47 32.5 77.5 t74.5 30.5q49 0 80 -32.5t31 -75.5q0 -45 -33 -77t-78 -32q-48 0 -77.5 33.5t-29.5 75.5zM961 971q0 48 32 78t76 30q49 0 80 -32.5t31 -75.5q0 -44 -33.5 -76.5t-77.5 -32.5q-48 0 -78 34t-30 75zM1176 109q0 49 33 78.5t75 29.5q46 0 76.5 -32.5t30.5 -75.5 q0 -48 -32 -79.5t-75 -31.5q-45 0 -76.5 33.5t-31.5 77.5zM1176 324q0 50 33.5 81t74.5 31q45 0 76 -34t31 -78q0 -46 -32.5 -77.5t-74.5 -31.5q-45 0 -76.5 33.5t-31.5 75.5zM1176 539q0 50 32.5 78t75.5 28q48 0 77.5 -31t29.5 -75q0 -46 -32 -76.5t-75 -30.5 q-47 0 -77.5 32.5t-30.5 74.5zM1176 756q0 47 32.5 75.5t75.5 28.5q49 0 78 -31t29 -73q0 -48 -32 -79.5t-75 -31.5q-47 0 -77.5 33.5t-30.5 77.5z" />
<glyph unicode="o" d="M311 324q0 48 33.5 80t77.5 32t75 -34.5t31 -77.5q0 -44 -32 -76.5t-74 -32.5q-46 0 -78.5 34t-32.5 75zM311 539q0 48 33 77t78 29q48 0 77 -31.5t29 -74.5q0 -44 -31.5 -75.5t-74.5 -31.5q-49 0 -80 32.5t-31 74.5zM311 756q0 44 33.5 74t77.5 30q48 0 77 -31.5 t29 -72.5q0 -46 -31.5 -78.5t-74.5 -32.5q-49 0 -80 33.5t-31 77.5zM526 109q0 47 33.5 77.5t77.5 30.5q49 0 80 -32.5t31 -75.5q0 -45 -33 -78t-78 -33q-46 0 -78.5 34t-32.5 77zM526 971q0 49 33.5 78.5t77.5 29.5q50 0 80.5 -32t30.5 -76t-32.5 -76.5t-78.5 -32.5 q-50 0 -80.5 34t-30.5 75zM745 109q0 46 33 77t74 31q48 0 79.5 -32.5t31.5 -75.5q0 -46 -33.5 -78.5t-77.5 -32.5t-75.5 34t-31.5 77zM745 971q0 47 32.5 77.5t74.5 30.5q49 0 80 -32.5t31 -75.5q0 -45 -33 -77t-78 -32q-48 0 -77.5 33.5t-29.5 75.5zM961 109q0 46 32 77 t76 31q48 0 79.5 -32.5t31.5 -75.5q0 -45 -34 -78t-77 -33q-45 0 -76.5 34t-31.5 77zM961 971q0 48 32 78t76 30q49 0 80 -32.5t31 -75.5q0 -44 -33.5 -76.5t-77.5 -32.5q-48 0 -78 34t-30 75zM1176 324q0 50 33.5 81t74.5 31q45 0 76 -34t31 -78q0 -46 -32.5 -77.5 t-74.5 -31.5q-45 0 -76.5 33.5t-31.5 75.5zM1176 539q0 50 32.5 78t75.5 28q48 0 77.5 -31t29.5 -75q0 -46 -32 -76.5t-75 -30.5q-47 0 -77.5 32.5t-30.5 74.5zM1176 756q0 47 32.5 75.5t75.5 28.5q49 0 78 -31t29 -73q0 -48 -32 -79.5t-75 -31.5q-47 0 -77.5 33.5 t-30.5 77.5z" />
<glyph unicode="p" d="M98 -106q0 41 30.5 73.5t76.5 32.5q44 0 76 -30t32 -76q0 -43 -28 -75t-78 -32q-42 0 -75.5 30t-33.5 77zM98 109q0 48 33 78t76 30q47 0 76.5 -32.5t29.5 -75.5q0 -48 -31 -79.5t-75 -31.5q-45 0 -77 33.5t-32 77.5zM98 324q0 50 34 81t75 31q46 0 76 -34t30 -78 q0 -46 -31.5 -77.5t-74.5 -31.5q-45 0 -77 33.5t-32 75.5zM98 539q0 49 33 77.5t76 28.5q49 0 77.5 -30.5t28.5 -75.5q0 -46 -31 -76.5t-75 -30.5q-48 0 -78.5 32.5t-30.5 74.5zM98 756q0 47 33 75.5t76 28.5q50 0 78 -30.5t28 -73.5q0 -48 -31 -79.5t-75 -31.5 q-48 0 -78.5 34t-30.5 77zM98 971q0 51 33 79.5t76 28.5q49 0 77.5 -32t28.5 -76q0 -47 -31.5 -78t-74.5 -31q-49 0 -79 33.5t-30 75.5zM311 539q0 48 33 77t78 29q48 0 77 -31.5t29 -74.5q0 -44 -31.5 -75.5t-74.5 -31.5q-49 0 -80 32.5t-31 74.5zM311 756q0 44 33.5 74 t77.5 30q48 0 77 -31.5t29 -72.5q0 -46 -31.5 -78.5t-74.5 -32.5q-49 0 -80 33.5t-31 77.5zM526 324q0 49 34.5 80.5t76.5 31.5q48 0 79.5 -34.5t31.5 -77.5q0 -44 -33.5 -76.5t-77.5 -32.5q-46 0 -78.5 34t-32.5 75zM526 971q0 49 33.5 78.5t77.5 29.5q50 0 80.5 -32 t30.5 -76t-32.5 -76.5t-78.5 -32.5q-50 0 -80.5 34t-30.5 75zM745 324q0 48 32.5 80t74.5 32q46 0 78.5 -34t32.5 -78q0 -45 -33.5 -77t-77.5 -32t-75.5 34t-31.5 75zM745 971q0 47 32.5 77.5t74.5 30.5q49 0 80 -32.5t31 -75.5q0 -45 -33 -77t-78 -32q-48 0 -77.5 33.5 t-29.5 75.5zM961 324q0 48 32 80t76 32q46 0 78.5 -34.5t32.5 -77.5q0 -44 -34 -76.5t-77 -32.5q-44 0 -76 34t-32 75zM961 971q0 48 32 78t76 30q49 0 80 -32.5t31 -75.5q0 -44 -33.5 -76.5t-77.5 -32.5q-48 0 -78 34t-30 75zM1176 539q0 50 32.5 78t75.5 28q48 0 77.5 -31 t29.5 -75q0 -46 -32 -76.5t-75 -30.5q-47 0 -77.5 32.5t-30.5 74.5zM1176 756q0 47 32.5 75.5t75.5 28.5q49 0 78 -31t29 -73q0 -48 -32 -79.5t-75 -31.5q-47 0 -77.5 33.5t-30.5 77.5z" />
<glyph unicode="q" d="M98 539q0 49 33 77.5t76 28.5q49 0 77.5 -30.5t28.5 -75.5q0 -46 -31 -76.5t-75 -30.5q-48 0 -78.5 32.5t-30.5 74.5zM98 756q0 47 33 75.5t76 28.5q50 0 78 -30.5t28 -73.5q0 -48 -31 -79.5t-75 -31.5q-48 0 -78.5 34t-30.5 77zM311 324q0 48 33.5 80t77.5 32t75 -34.5 t31 -77.5q0 -44 -32 -76.5t-74 -32.5q-46 0 -78.5 34t-32.5 75zM311 971q0 48 33 78t78 30q47 0 76.5 -32.5t29.5 -75.5q0 -44 -31.5 -76.5t-74.5 -32.5q-50 0 -80.5 34t-30.5 75zM526 324q0 49 34.5 80.5t76.5 31.5q48 0 79.5 -34.5t31.5 -77.5q0 -44 -33.5 -76.5 t-77.5 -32.5q-46 0 -78.5 34t-32.5 75zM526 971q0 49 33.5 78.5t77.5 29.5q50 0 80.5 -32t30.5 -76t-32.5 -76.5t-78.5 -32.5q-50 0 -80.5 34t-30.5 75zM745 324q0 48 32.5 80t74.5 32q46 0 78.5 -34t32.5 -78q0 -45 -33.5 -77t-77.5 -32t-75.5 34t-31.5 75zM745 971 q0 47 32.5 77.5t74.5 30.5q49 0 80 -32.5t31 -75.5q0 -45 -33 -77t-78 -32q-48 0 -77.5 33.5t-29.5 75.5zM956 539q0 47 33.5 76.5t75.5 29.5q49 0 80 -31.5t31 -74.5q0 -44 -33 -75.5t-78 -31.5q-48 0 -78.5 32.5t-30.5 74.5zM956 756q0 44 33 74t76 30q50 0 80.5 -31.5 t30.5 -72.5q0 -45 -33 -78t-78 -33q-48 0 -78.5 34t-30.5 77zM1176 -106q0 47 33 77.5t75 30.5q48 0 77.5 -32.5t29.5 -75.5q0 -46 -32 -76.5t-75 -30.5q-47 0 -77.5 32.5t-30.5 74.5zM1176 109q0 49 33 78.5t75 29.5q46 0 76.5 -32.5t30.5 -75.5q0 -48 -32 -79.5t-75 -31.5 q-45 0 -76.5 33.5t-31.5 77.5zM1176 324q0 50 33.5 81t74.5 31q45 0 76 -34t31 -78q0 -46 -32.5 -77.5t-74.5 -31.5q-45 0 -76.5 33.5t-31.5 75.5zM1176 539q0 50 32.5 78t75.5 28q48 0 77.5 -31t29.5 -75q0 -46 -32 -76.5t-75 -30.5q-47 0 -77.5 32.5t-30.5 74.5zM1176 756 q0 47 32.5 75.5t75.5 28.5q49 0 78 -31t29 -73q0 -48 -32 -79.5t-75 -31.5q-47 0 -77.5 33.5t-30.5 77.5zM1176 971q0 51 32.5 79.5t75.5 28.5q48 0 77.5 -32.5t29.5 -75.5q0 -46 -32.5 -77.5t-74.5 -31.5q-48 0 -78 33t-30 76z" />
<glyph unicode="r" d="M98 109q0 48 33 78t76 30q47 0 76.5 -32.5t29.5 -75.5q0 -48 -31 -79.5t-75 -31.5q-45 0 -77 33.5t-32 77.5zM98 324q0 50 34 81t75 31q46 0 76 -34t30 -78q0 -46 -31.5 -77.5t-74.5 -31.5q-45 0 -77 33.5t-32 75.5zM98 539q0 49 33 77.5t76 28.5q49 0 77.5 -30.5 t28.5 -75.5q0 -46 -31 -76.5t-75 -30.5q-48 0 -78.5 32.5t-30.5 74.5zM98 756q0 47 33 75.5t76 28.5q50 0 78 -30.5t28 -73.5q0 -48 -31 -79.5t-75 -31.5q-48 0 -78.5 34t-30.5 77zM98 971q0 51 33 79.5t76 28.5q49 0 77.5 -32t28.5 -76q0 -47 -31.5 -78t-74.5 -31 q-49 0 -79 33.5t-30 75.5zM311 756q0 44 33.5 74t77.5 30q48 0 77 -31.5t29 -72.5q0 -46 -31.5 -78.5t-74.5 -32.5q-49 0 -80 33.5t-31 77.5zM526 971q0 49 33.5 78.5t77.5 29.5q50 0 80.5 -32t30.5 -76t-32.5 -76.5t-78.5 -32.5q-50 0 -80.5 34t-30.5 75zM745 971 q0 47 32.5 77.5t74.5 30.5q49 0 80 -32.5t31 -75.5q0 -45 -33 -77t-78 -32q-48 0 -77.5 33.5t-29.5 75.5zM961 971q0 48 32 78t76 30q49 0 80 -32.5t31 -75.5q0 -44 -33.5 -76.5t-77.5 -32.5q-48 0 -78 34t-30 75zM1176 756q0 47 32.5 75.5t75.5 28.5q49 0 78 -31t29 -73 q0 -48 -32 -79.5t-75 -31.5q-47 0 -77.5 33.5t-30.5 77.5z" />
<glyph unicode="s" d="M98 109q0 48 33 78t76 30q47 0 76.5 -32.5t29.5 -75.5q0 -48 -31 -79.5t-75 -31.5q-45 0 -77 33.5t-32 77.5zM98 756q0 47 33 75.5t76 28.5q50 0 78 -30.5t28 -73.5q0 -48 -31 -79.5t-75 -31.5q-48 0 -78.5 34t-30.5 77zM311 109q0 46 33.5 77t77.5 31q46 0 76 -32.5 t30 -75.5q0 -45 -32 -78t-74 -33q-46 0 -78.5 34t-32.5 77zM311 539q0 48 33 77t78 29q48 0 77 -31.5t29 -74.5q0 -44 -31.5 -75.5t-74.5 -31.5q-49 0 -80 32.5t-31 74.5zM311 971q0 48 33 78t78 30q47 0 76.5 -32.5t29.5 -75.5q0 -44 -31.5 -76.5t-74.5 -32.5 q-50 0 -80.5 34t-30.5 75zM526 109q0 47 33.5 77.5t77.5 30.5q49 0 80 -32.5t31 -75.5q0 -45 -33 -78t-78 -33q-46 0 -78.5 34t-32.5 77zM526 539q0 48 33.5 77t77.5 29q50 0 80.5 -31.5t30.5 -74.5q0 -44 -32.5 -75.5t-78.5 -31.5q-49 0 -80 32.5t-31 74.5zM526 971 q0 49 33.5 78.5t77.5 29.5q50 0 80.5 -32t30.5 -76t-32.5 -76.5t-78.5 -32.5q-50 0 -80.5 34t-30.5 75zM745 109q0 46 33 77t74 31q48 0 79.5 -32.5t31.5 -75.5q0 -46 -33.5 -78.5t-77.5 -32.5t-75.5 34t-31.5 77zM745 539q0 47 32.5 76.5t74.5 29.5q50 0 80.5 -31t30.5 -75 q0 -45 -33 -76t-78 -31q-47 0 -77 32.5t-30 74.5zM745 971q0 47 32.5 77.5t74.5 30.5q49 0 80 -32.5t31 -75.5q0 -45 -33 -77t-78 -32q-48 0 -77.5 33.5t-29.5 75.5zM961 109q0 46 32 77t76 31q48 0 79.5 -32.5t31.5 -75.5q0 -45 -34 -78t-77 -33q-45 0 -76.5 34t-31.5 77z M961 539q0 48 31.5 77t76.5 29q49 0 80 -31.5t31 -74.5q0 -44 -33 -75.5t-78 -31.5q-47 0 -77.5 32.5t-30.5 74.5zM961 971q0 48 32 78t76 30q49 0 80 -32.5t31 -75.5q0 -44 -33.5 -76.5t-77.5 -32.5q-48 0 -78 34t-30 75zM1176 324q0 50 33.5 81t74.5 31q45 0 76 -34 t31 -78q0 -46 -32.5 -77.5t-74.5 -31.5q-45 0 -76.5 33.5t-31.5 75.5zM1176 971q0 51 32.5 79.5t75.5 28.5q48 0 77.5 -32.5t29.5 -75.5q0 -46 -32.5 -77.5t-74.5 -31.5q-48 0 -78 33t-30 76z" />
<glyph unicode="t" d="M98 971q0 51 33 79.5t76 28.5q49 0 77.5 -32t28.5 -76q0 -47 -31.5 -78t-74.5 -31q-49 0 -79 33.5t-30 75.5zM311 971q0 48 33 78t78 30q47 0 76.5 -32.5t29.5 -75.5q0 -44 -31.5 -76.5t-74.5 -32.5q-50 0 -80.5 34t-30.5 75zM526 324q0 49 34.5 80.5t76.5 31.5 q48 0 79.5 -34.5t31.5 -77.5q0 -44 -33.5 -76.5t-77.5 -32.5q-46 0 -78.5 34t-32.5 75zM526 539q0 48 33.5 77t77.5 29q50 0 80.5 -31.5t30.5 -74.5q0 -44 -32.5 -75.5t-78.5 -31.5q-49 0 -80 32.5t-31 74.5zM526 756q0 45 34 74.5t77 29.5q52 0 81.5 -31t29.5 -73 q0 -46 -32.5 -78.5t-78.5 -32.5q-49 0 -80 33.5t-31 77.5zM526 971q0 49 33.5 78.5t77.5 29.5q50 0 80.5 -32t30.5 -76t-32.5 -76.5t-78.5 -32.5q-50 0 -80.5 34t-30.5 75zM526 1186q0 47 33.5 77.5t77.5 30.5q50 0 80.5 -32.5t30.5 -75.5q0 -45 -33 -77t-78 -32 q-46 0 -78.5 33.5t-32.5 75.5zM526 1401q0 48 34 79t77 31q48 0 79.5 -33.5t31.5 -76.5q0 -45 -33 -77t-78 -32q-46 0 -78.5 33.5t-32.5 75.5zM745 109q0 46 33 77t74 31q48 0 79.5 -32.5t31.5 -75.5q0 -46 -33.5 -78.5t-77.5 -32.5t-75.5 34t-31.5 77zM745 971 q0 47 32.5 77.5t74.5 30.5q49 0 80 -32.5t31 -75.5q0 -45 -33 -77t-78 -32q-48 0 -77.5 33.5t-29.5 75.5zM961 109q0 46 32 77t76 31q48 0 79.5 -32.5t31.5 -75.5q0 -45 -34 -78t-77 -33q-45 0 -76.5 34t-31.5 77zM961 971q0 48 32 78t76 30q49 0 80 -32.5t31 -75.5 q0 -44 -33.5 -76.5t-77.5 -32.5q-48 0 -78 34t-30 75zM1176 324q0 50 33.5 81t74.5 31q45 0 76 -34t31 -78q0 -46 -32.5 -77.5t-74.5 -31.5q-45 0 -76.5 33.5t-31.5 75.5z" />
<glyph unicode="u" d="M98 324q0 50 34 81t75 31q46 0 76 -34t30 -78q0 -46 -31.5 -77.5t-74.5 -31.5q-45 0 -77 33.5t-32 75.5zM98 539q0 49 33 77.5t76 28.5q49 0 77.5 -30.5t28.5 -75.5q0 -46 -31 -76.5t-75 -30.5q-48 0 -78.5 32.5t-30.5 74.5zM98 756q0 47 33 75.5t76 28.5q50 0 78 -30.5 t28 -73.5q0 -48 -31 -79.5t-75 -31.5q-48 0 -78.5 34t-30.5 77zM98 971q0 51 33 79.5t76 28.5q49 0 77.5 -32t28.5 -76q0 -47 -31.5 -78t-74.5 -31q-49 0 -79 33.5t-30 75.5zM311 109q0 46 33.5 77t77.5 31q46 0 76 -32.5t30 -75.5q0 -45 -32 -78t-74 -33q-46 0 -78.5 34 t-32.5 77zM526 109q0 47 33.5 77.5t77.5 30.5q49 0 80 -32.5t31 -75.5q0 -45 -33 -78t-78 -33q-46 0 -78.5 34t-32.5 77zM745 109q0 46 33 77t74 31q48 0 79.5 -32.5t31.5 -75.5q0 -46 -33.5 -78.5t-77.5 -32.5t-75.5 34t-31.5 77zM961 324q0 48 32 80t76 32 q46 0 78.5 -34.5t32.5 -77.5q0 -44 -34 -76.5t-77 -32.5q-44 0 -76 34t-32 75zM1176 109q0 49 33 78.5t75 29.5q46 0 76.5 -32.5t30.5 -75.5q0 -48 -32 -79.5t-75 -31.5q-45 0 -76.5 33.5t-31.5 77.5zM1176 324q0 50 33.5 81t74.5 31q45 0 76 -34t31 -78q0 -46 -32.5 -77.5 t-74.5 -31.5q-45 0 -76.5 33.5t-31.5 75.5zM1176 539q0 50 32.5 78t75.5 28q48 0 77.5 -31t29.5 -75q0 -46 -32 -76.5t-75 -30.5q-47 0 -77.5 32.5t-30.5 74.5zM1176 756q0 47 32.5 75.5t75.5 28.5q49 0 78 -31t29 -73q0 -48 -32 -79.5t-75 -31.5q-47 0 -77.5 33.5 t-30.5 77.5zM1176 971q0 51 32.5 79.5t75.5 28.5q48 0 77.5 -32.5t29.5 -75.5q0 -46 -32.5 -77.5t-74.5 -31.5q-48 0 -78 33t-30 76z" />
<glyph unicode="v" d="M98 539q0 49 33 77.5t76 28.5q49 0 77.5 -30.5t28.5 -75.5q0 -46 -31 -76.5t-75 -30.5q-48 0 -78.5 32.5t-30.5 74.5zM98 756q0 47 33 75.5t76 28.5q50 0 78 -30.5t28 -73.5q0 -48 -31 -79.5t-75 -31.5q-48 0 -78.5 34t-30.5 77zM98 971q0 51 33 79.5t76 28.5 q49 0 77.5 -32t28.5 -76q0 -47 -31.5 -78t-74.5 -31q-49 0 -79 33.5t-30 75.5zM311 324q0 48 33.5 80t77.5 32t75 -34.5t31 -77.5q0 -44 -32 -76.5t-74 -32.5q-46 0 -78.5 34t-32.5 75zM526 109q0 47 33.5 77.5t77.5 30.5q49 0 80 -32.5t31 -75.5q0 -45 -33 -78t-78 -33 q-46 0 -78.5 34t-32.5 77zM745 109q0 46 33 77t74 31q48 0 79.5 -32.5t31.5 -75.5q0 -46 -33.5 -78.5t-77.5 -32.5t-75.5 34t-31.5 77zM961 324q0 48 32 80t76 32q46 0 78.5 -34.5t32.5 -77.5q0 -44 -34 -76.5t-77 -32.5q-44 0 -76 34t-32 75zM1176 539q0 50 32.5 78 t75.5 28q48 0 77.5 -31t29.5 -75q0 -46 -32 -76.5t-75 -30.5q-47 0 -77.5 32.5t-30.5 74.5zM1176 756q0 47 32.5 75.5t75.5 28.5q49 0 78 -31t29 -73q0 -48 -32 -79.5t-75 -31.5q-47 0 -77.5 33.5t-30.5 77.5zM1176 971q0 51 32.5 79.5t75.5 28.5q48 0 77.5 -32.5 t29.5 -75.5q0 -46 -32.5 -77.5t-74.5 -31.5q-48 0 -78 33t-30 76z" />
<glyph unicode="w" d="M195 109q0 46 32.5 77t73.5 31q48 0 79.5 -32.5t31.5 -75.5q0 -45 -33 -78t-78 -33q-44 0 -75 34t-31 77zM195 326q0 48 32.5 80t73.5 32q46 0 78.5 -34.5t32.5 -77.5q0 -44 -33.5 -76.5t-77.5 -32.5t-75 34t-31 75zM195 541q0 47 32 76.5t74 29.5q49 0 80 -31.5 t31 -74.5q0 -44 -32.5 -75.5t-78.5 -31.5q-47 0 -76.5 32.5t-29.5 74.5zM195 758q0 45 31.5 74.5t74.5 29.5q50 0 80.5 -31.5t30.5 -72.5q0 -46 -32.5 -78.5t-78.5 -32.5q-47 0 -76.5 33.5t-29.5 77.5zM195 973q0 47 32 77.5t74 30.5q49 0 80 -32.5t31 -75.5 q0 -44 -32.5 -76.5t-78.5 -32.5q-48 0 -77 33.5t-29 75.5zM410 109q0 48 32 78t76 30q50 0 80.5 -32t30.5 -76q0 -46 -32.5 -78.5t-78.5 -32.5t-77 34t-31 77zM627 326q0 48 32.5 80t75.5 32q45 0 77 -34t32 -78q0 -45 -33.5 -77t-75.5 -32q-46 0 -77 33.5t-31 75.5z M627 541q0 47 32.5 76.5t75.5 29.5q48 0 78.5 -31t30.5 -75q0 -45 -32.5 -76t-76.5 -31q-49 0 -78.5 32.5t-29.5 74.5zM842 109q0 46 32.5 77t75.5 31q46 0 78.5 -33t32.5 -75q0 -45 -33 -78t-78 -33q-46 0 -77 34t-31 77zM1057 109q0 49 33 78.5t77 29.5t74.5 -32.5 t30.5 -75.5q0 -48 -32 -79.5t-73 -31.5q-46 0 -78 33.5t-32 77.5zM1057 326q0 50 33.5 81t76.5 31t74 -34t31 -78q0 -46 -32 -77.5t-73 -31.5q-46 0 -78 33t-32 76zM1057 541q0 49 33 77.5t77 28.5q46 0 75.5 -31t29.5 -75q0 -46 -32 -76.5t-73 -30.5q-49 0 -79.5 32.5 t-30.5 74.5zM1057 758q0 47 33 75.5t77 28.5q47 0 76 -31t29 -73q0 -48 -32 -79.5t-73 -31.5q-49 0 -79.5 33.5t-30.5 77.5zM1057 973q0 51 32.5 79.5t77.5 28.5q46 0 75.5 -32.5t29.5 -75.5q0 -46 -32 -77.5t-73 -31.5q-50 0 -80 33t-30 76z" />
<glyph unicode="x" d="M98 109q0 48 33 78t76 30q47 0 76.5 -32.5t29.5 -75.5q0 -48 -31 -79.5t-75 -31.5q-45 0 -77 33.5t-32 77.5zM98 971q0 51 33 79.5t76 28.5q49 0 77.5 -32t28.5 -76q0 -47 -31.5 -78t-74.5 -31q-49 0 -79 33.5t-30 75.5zM311 324q0 48 33.5 80t77.5 32t75 -34.5t31 -77.5 q0 -44 -32 -76.5t-74 -32.5q-46 0 -78.5 34t-32.5 75zM311 756q0 44 33.5 74t77.5 30q48 0 77 -31.5t29 -72.5q0 -46 -31.5 -78.5t-74.5 -32.5q-49 0 -80 33.5t-31 77.5zM526 539q0 48 33.5 77t77.5 29q50 0 80.5 -31.5t30.5 -74.5q0 -44 -32.5 -75.5t-78.5 -31.5 q-49 0 -80 32.5t-31 74.5zM745 539q0 47 32.5 76.5t74.5 29.5q50 0 80.5 -31t30.5 -75q0 -45 -33 -76t-78 -31q-47 0 -77 32.5t-30 74.5zM961 324q0 48 32 80t76 32q46 0 78.5 -34.5t32.5 -77.5q0 -44 -34 -76.5t-77 -32.5q-44 0 -76 34t-32 75zM961 756q0 45 32 74.5 t76 29.5q50 0 80.5 -31.5t30.5 -72.5q0 -45 -33 -78t-78 -33q-47 0 -77.5 33.5t-30.5 77.5zM1176 109q0 49 33 78.5t75 29.5q46 0 76.5 -32.5t30.5 -75.5q0 -48 -32 -79.5t-75 -31.5q-45 0 -76.5 33.5t-31.5 77.5zM1176 971q0 51 32.5 79.5t75.5 28.5q48 0 77.5 -32.5 t29.5 -75.5q0 -46 -32.5 -77.5t-74.5 -31.5q-48 0 -78 33t-30 76z" />
<glyph unicode="y" d="M98 539q0 49 33 77.5t76 28.5q49 0 77.5 -30.5t28.5 -75.5q0 -46 -31 -76.5t-75 -30.5q-48 0 -78.5 32.5t-30.5 74.5zM98 756q0 47 33 75.5t76 28.5q50 0 78 -30.5t28 -73.5q0 -48 -31 -79.5t-75 -31.5q-48 0 -78.5 34t-30.5 77zM98 969q0 51 33 79.5t76 28.5 q49 0 77.5 -32t28.5 -76q0 -47 -31.5 -78t-74.5 -31q-49 0 -79 33.5t-30 75.5zM311 -106q0 43 33.5 74.5t77.5 31.5q52 0 79 -31.5t27 -74.5q0 -44 -31.5 -75.5t-74.5 -31.5q-49 0 -80 32.5t-31 74.5zM311 324q0 48 33.5 80t77.5 32t75 -34.5t31 -77.5q0 -44 -32 -76.5 t-74 -32.5q-46 0 -78.5 34t-32.5 75zM526 -106q0 46 34 77t77 31q52 0 81.5 -33t29.5 -75q0 -44 -32.5 -75.5t-78.5 -31.5q-49 0 -80 32.5t-31 74.5zM526 324q0 49 34.5 80.5t76.5 31.5q48 0 79.5 -34.5t31.5 -77.5q0 -44 -33.5 -76.5t-77.5 -32.5q-46 0 -78.5 34t-32.5 75z M745 -106q0 45 32.5 76.5t74.5 31.5q50 0 80.5 -32.5t30.5 -75.5q0 -45 -33 -76t-78 -31q-47 0 -77 32.5t-30 74.5zM745 324q0 48 32.5 80t74.5 32q46 0 78.5 -34t32.5 -78q0 -45 -33.5 -77t-77.5 -32t-75.5 34t-31.5 75zM961 -106q0 45 32.5 76.5t75.5 31.5 q50 0 80.5 -33.5t30.5 -74.5q0 -44 -33 -75.5t-78 -31.5q-47 0 -77.5 32.5t-30.5 74.5zM961 539q0 48 31.5 77t76.5 29q49 0 80 -31.5t31 -74.5q0 -44 -33 -75.5t-78 -31.5q-47 0 -77.5 32.5t-30.5 74.5zM1176 109q0 49 33 78.5t75 29.5q46 0 76.5 -32.5t30.5 -75.5 q0 -48 -32 -79.5t-75 -31.5q-45 0 -76.5 33.5t-31.5 77.5zM1176 324q0 50 33.5 81t74.5 31q45 0 76 -34t31 -78q0 -46 -32.5 -77.5t-74.5 -31.5q-45 0 -76.5 33.5t-31.5 75.5zM1176 539q0 50 32.5 78t75.5 28q48 0 77.5 -31t29.5 -75q0 -46 -32 -76.5t-75 -30.5 q-47 0 -77.5 32.5t-30.5 74.5zM1176 756q0 47 32.5 75.5t75.5 28.5q49 0 78 -31t29 -73q0 -48 -32 -79.5t-75 -31.5q-47 0 -77.5 33.5t-30.5 77.5zM1176 969q0 51 32.5 79.5t75.5 28.5q48 0 77.5 -32.5t29.5 -75.5q0 -46 -32.5 -77.5t-74.5 -31.5q-48 0 -78 33t-30 76z" />
<glyph unicode="z" d="M98 109q0 48 33 78t76 30q47 0 76.5 -32.5t29.5 -75.5q0 -48 -31 -79.5t-75 -31.5q-45 0 -77 33.5t-32 77.5zM98 971q0 51 33 79.5t76 28.5q49 0 77.5 -32t28.5 -76q0 -47 -31.5 -78t-74.5 -31q-49 0 -79 33.5t-30 75.5zM311 109q0 46 33.5 77t77.5 31q46 0 76 -32.5 t30 -75.5q0 -45 -32 -78t-74 -33q-46 0 -78.5 34t-32.5 77zM311 326q0 48 33.5 80t77.5 32t75 -34.5t31 -77.5q0 -44 -32 -76.5t-74 -32.5q-46 0 -78.5 34t-32.5 75zM311 971q0 48 33 78t78 30q47 0 76.5 -32.5t29.5 -75.5q0 -44 -31.5 -76.5t-74.5 -32.5q-50 0 -80.5 34 t-30.5 75zM526 109q0 47 33.5 77.5t77.5 30.5q49 0 80 -32.5t31 -75.5q0 -45 -33 -78t-78 -33q-46 0 -78.5 34t-32.5 77zM526 539q0 48 33.5 77t77.5 29q50 0 80.5 -31.5t30.5 -74.5q0 -44 -32.5 -75.5t-78.5 -31.5q-49 0 -80 32.5t-31 74.5zM526 971q0 49 33.5 78.5 t77.5 29.5q50 0 80.5 -32t30.5 -76t-32.5 -76.5t-78.5 -32.5q-50 0 -80.5 34t-30.5 75zM745 109q0 46 33 77t74 31q48 0 79.5 -32.5t31.5 -75.5q0 -46 -33.5 -78.5t-77.5 -32.5t-75.5 34t-31.5 77zM745 539q0 47 32.5 76.5t74.5 29.5q50 0 80.5 -31t30.5 -75q0 -45 -33 -76 t-78 -31q-47 0 -77 32.5t-30 74.5zM745 971q0 47 32.5 77.5t74.5 30.5q49 0 80 -32.5t31 -75.5q0 -45 -33 -77t-78 -32q-48 0 -77.5 33.5t-29.5 75.5zM961 109q0 46 32 77t76 31q48 0 79.5 -32.5t31.5 -75.5q0 -45 -34 -78t-77 -33q-45 0 -76.5 34t-31.5 77zM961 758 q0 45 32 74.5t76 29.5q50 0 80.5 -31.5t30.5 -72.5q0 -45 -33 -78t-78 -33q-47 0 -77.5 33.5t-30.5 77.5zM961 971q0 48 32 78t76 30q49 0 80 -32.5t31 -75.5q0 -44 -33.5 -76.5t-77.5 -32.5q-48 0 -78 34t-30 75zM1176 971q0 51 32.5 79.5t75.5 28.5q48 0 77.5 -32.5 t29.5 -75.5q0 -46 -32.5 -77.5t-74.5 -31.5q-48 0 -78 33t-30 76zM1178 109q0 49 33 78.5t75 29.5q46 0 76.5 -32.5t30.5 -75.5q0 -48 -32 -79.5t-75 -31.5q-45 0 -76.5 33.5t-31.5 77.5z" />
<glyph unicode="{" d="M170 756q0 47 33 75.5t76 28.5q49 0 77.5 -31t28.5 -73q0 -48 -31.5 -79.5t-74.5 -31.5q-48 0 -78.5 34t-30.5 77zM383 324q0 48 33.5 80t75.5 32q46 0 78 -34.5t32 -77.5q0 -44 -33.5 -76.5t-76.5 -32.5q-44 0 -76.5 34t-32.5 75zM383 539q0 47 33.5 76.5t75.5 29.5 q49 0 79.5 -31.5t30.5 -74.5q0 -44 -32.5 -75.5t-77.5 -31.5q-48 0 -78.5 32.5t-30.5 74.5zM383 756q0 44 33 74t76 30q50 0 80 -31.5t30 -72.5q0 -46 -33 -78.5t-77 -32.5q-48 0 -78.5 34t-30.5 77zM383 971q0 47 33.5 77.5t75.5 30.5q49 0 79.5 -32.5t30.5 -75.5 q0 -44 -33 -76.5t-77 -32.5q-48 0 -78.5 34t-30.5 75zM383 1186q0 46 33.5 77t75.5 31q49 0 79.5 -33t30.5 -75q0 -45 -33 -77t-77 -32q-45 0 -77 33.5t-32 75.5zM600 109q0 48 32 78t75 30q50 0 81 -32t31 -76q0 -46 -32.5 -78.5t-79.5 -32.5q-44 0 -75.5 34t-31.5 77z M600 1401q0 49 32.5 79.5t74.5 30.5q49 0 80.5 -33.5t31.5 -76.5q0 -46 -32.5 -77.5t-79.5 -31.5q-45 0 -76 33.5t-31 75.5zM817 109q0 46 32.5 77t76.5 31q46 0 76 -32.5t30 -75.5q0 -46 -32 -78.5t-74 -32.5q-48 0 -78.5 34t-30.5 77zM817 1401q0 48 32.5 79t76.5 31 q45 0 75.5 -33t30.5 -77q0 -46 -32 -77.5t-74 -31.5q-48 0 -78.5 33t-30.5 76zM1030 109q0 46 34 77t77 31q46 0 78 -33t32 -75q0 -45 -34 -78t-76 -33q-46 0 -78.5 34t-32.5 77zM1030 1401q0 48 34 79t77 31q45 0 77.5 -34t32.5 -76q0 -45 -34 -77t-76 -32 q-46 0 -78.5 33.5t-32.5 75.5z" />
<glyph unicode="|" d="M575 -106q0 46 33 77t76 31q53 0 82 -32.5t29 -75.5q0 -45 -32 -76t-79 -31q-49 0 -79 32.5t-30 74.5zM575 109q0 48 33 78t76 30q50 0 80.5 -32t30.5 -76q0 -46 -32.5 -78.5t-78.5 -32.5t-77.5 34t-31.5 77zM575 326q0 49 33.5 80.5t75.5 31.5q49 0 80 -34t31 -78 t-32.5 -76.5t-78.5 -32.5t-77.5 33.5t-31.5 75.5zM575 541q0 49 32.5 77.5t76.5 28.5q52 0 81.5 -31t29.5 -75q0 -45 -32 -76t-79 -31q-49 0 -79 32.5t-30 74.5zM575 758q0 45 33 74.5t76 29.5q53 0 82 -31t29 -73q0 -46 -32 -78.5t-79 -32.5q-49 0 -79 33.5t-30 77.5z M575 973q0 49 32.5 78.5t76.5 29.5q51 0 81 -32t30 -76q0 -45 -32 -77t-79 -32q-49 0 -79 33.5t-30 75.5zM575 1188q0 48 33 78t76 30q51 0 81 -32.5t30 -75.5q0 -46 -32.5 -77.5t-78.5 -31.5t-77.5 33t-31.5 76zM575 1405q0 49 33.5 80t75.5 31q49 0 80 -33.5t31 -77.5 q0 -46 -32.5 -77.5t-78.5 -31.5t-77.5 33t-31.5 76z" />
<glyph unicode="}" d="M229 109q0 42 32.5 75t78.5 33q43 0 76 -31t33 -77q0 -43 -31.5 -77t-77.5 -34q-43 0 -77 33t-34 78zM229 1401q0 43 32.5 76.5t78.5 33.5q43 0 76 -31t33 -79q0 -43 -31.5 -76t-77.5 -33q-44 0 -77.5 32t-33.5 77zM446 109q0 43 31.5 75.5t77.5 32.5q43 0 76 -31t33 -77 q0 -43 -31.5 -77t-77.5 -34q-42 0 -75.5 32.5t-33.5 78.5zM446 1401q0 44 32 77t77 33q43 0 76 -31t33 -79q0 -43 -31.5 -76t-77.5 -33q-43 0 -76 31.5t-33 77.5zM662 109q0 44 30 76t80 32q44 0 76.5 -30t32.5 -78q0 -43 -31.5 -77t-77.5 -34t-78 32.5t-32 78.5zM662 1401 q0 44 30.5 77t79.5 33q43 0 76 -30.5t33 -79.5q0 -43 -31.5 -76t-77.5 -33t-78 31.5t-32 77.5zM879 324q0 43 32 77.5t78 34.5q42 0 74.5 -32t32.5 -80q0 -41 -31.5 -75t-75.5 -34q-43 0 -76.5 32.5t-33.5 76.5zM879 539q0 43 30.5 74.5t79.5 31.5q42 0 74.5 -29.5 t32.5 -76.5q0 -42 -30 -74.5t-77 -32.5q-45 0 -77.5 31.5t-32.5 75.5zM879 756q0 41 30 72.5t80 31.5q43 0 75 -30t32 -74t-30 -77.5t-77 -33.5q-45 0 -77.5 32.5t-32.5 78.5zM879 971q0 43 30.5 75.5t79.5 32.5q42 0 74.5 -30.5t32.5 -77.5q0 -42 -29.5 -75.5t-77.5 -33.5 q-44 0 -77 32.5t-33 76.5zM879 1186q0 42 30.5 75t79.5 33q41 0 74 -31t33 -77q0 -42 -31 -75.5t-76 -33.5q-44 0 -77 32t-33 77zM1094 756q0 42 29.5 73t76.5 31q44 0 77.5 -28.5t33.5 -75.5q0 -43 -31.5 -77t-79.5 -34q-42 0 -74 31.5t-32 79.5z" />
<glyph unicode="~" d="M319 1219q0 48 34.5 80t80.5 32q49 0 80 -34t31 -78q0 -45 -34 -79t-77 -34q-49 0 -82 35t-33 78zM543 1440q0 50 34 83t76 33q51 0 84 -35t33 -81t-35 -78.5t-82 -32.5q-46 0 -78 33.5t-32 77.5zM768 1219q0 48 33 80t76 32q49 0 81.5 -34t32.5 -78q0 -46 -35 -79.5 t-79 -33.5q-46 0 -77.5 35t-31.5 78zM989 1440q0 50 32.5 83t76.5 33q49 0 81.5 -35t32.5 -81q0 -45 -34 -78t-80 -33q-48 0 -78.5 33t-30.5 78z" />
<glyph unicode="&#xa0;" d="M0 0z" />
<glyph unicode="&#xa1;" d="M592 106q0 44 31.5 76.5t74.5 32.5q45 0 77 -32t32 -77q0 -44 -31.5 -76t-77.5 -32q-43 0 -74.5 32t-31.5 76zM592 -109q0 44 31.5 76.5t74.5 32.5q45 0 77 -32t32 -77t-32 -77.5t-77 -32.5q-43 0 -74.5 33t-31.5 77zM592 322q0 42 29.5 75t76.5 33q46 0 77.5 -32 t31.5 -76q0 -46 -31.5 -77.5t-77.5 -31.5q-43 0 -74.5 32t-31.5 77zM592 537q0 45 31.5 76.5t74.5 31.5q46 0 77.5 -31t31.5 -77q0 -44 -31.5 -74.5t-77.5 -30.5q-43 0 -74.5 30.5t-31.5 74.5zM592 1184q0 44 31.5 77t74.5 33q45 0 77 -32.5t32 -77.5t-32 -77t-77 -32 q-43 0 -74.5 32.5t-31.5 76.5z" />
<glyph unicode="&#xa2;" d="M98 324q0 50 34 81t75 31q46 0 76 -34t30 -78q0 -46 -31.5 -77.5t-74.5 -31.5q-45 0 -77 33.5t-32 75.5zM98 539q0 49 33 77.5t76 28.5q49 0 77.5 -30.5t28.5 -75.5q0 -46 -31 -76.5t-75 -30.5q-48 0 -78.5 32.5t-30.5 74.5zM98 756q0 47 33 75.5t76 28.5q50 0 78 -30.5 t28 -73.5q0 -48 -31 -79.5t-75 -31.5q-48 0 -78.5 34t-30.5 77zM311 109q0 46 33.5 77t77.5 31q46 0 76 -32.5t30 -75.5q0 -45 -32 -78t-74 -33q-46 0 -78.5 34t-32.5 77zM311 971q0 48 33 78t78 30q47 0 76.5 -32.5t29.5 -75.5q0 -44 -31.5 -76.5t-74.5 -32.5 q-50 0 -80.5 34t-30.5 75zM526 109q0 47 33.5 77.5t77.5 30.5q49 0 80 -32.5t31 -75.5q0 -45 -33 -78t-78 -33q-46 0 -78.5 34t-32.5 77zM526 971q0 49 33.5 78.5t77.5 29.5q50 0 80.5 -32t30.5 -76t-32.5 -76.5t-78.5 -32.5q-50 0 -80.5 34t-30.5 75zM637 -100q0 46 32 77 t76 31q50 0 79.5 -32t29.5 -76q0 -46 -31.5 -78.5t-77.5 -32.5t-77 34t-31 77zM637 1194q0 48 32 78.5t76 30.5q49 0 79 -32t30 -77q0 -44 -32.5 -75.5t-76.5 -31.5q-49 0 -78.5 32.5t-29.5 74.5zM745 109q0 46 33 77t74 31q48 0 79.5 -32.5t31.5 -75.5q0 -46 -33.5 -78.5 t-77.5 -32.5t-75.5 34t-31.5 77zM745 971q0 47 32.5 77.5t74.5 30.5q49 0 80 -32.5t31 -75.5q0 -45 -33 -77t-78 -32q-48 0 -77.5 33.5t-29.5 75.5zM961 109q0 46 32 77t76 31q48 0 79.5 -32.5t31.5 -75.5q0 -45 -34 -78t-77 -33q-45 0 -76.5 34t-31.5 77zM961 971 q0 48 32 78t76 30q49 0 80 -32.5t31 -75.5q0 -44 -33.5 -76.5t-77.5 -32.5q-48 0 -78 34t-30 75z" />
<glyph unicode="&#xa3;" d="M84 113q0 46 32.5 77t76.5 31q48 0 78 -32.5t30 -75.5q0 -45 -32.5 -78t-75.5 -33q-48 0 -78.5 34t-30.5 77zM98 975q0 51 33 79.5t76 28.5q49 0 77.5 -32t28.5 -76q0 -47 -31.5 -78t-74.5 -31q-49 0 -79 33.5t-30 75.5zM307 113q0 48 34 78t77 30q45 0 75.5 -32.5 t30.5 -75.5q0 -48 -32 -79.5t-74 -31.5q-45 0 -78 34t-33 77zM307 328q0 50 34 81t77 31t74.5 -34t31.5 -78q0 -46 -32.5 -77.5t-73.5 -31.5q-45 0 -78 33.5t-33 75.5zM307 543q0 48 34 77t77 29q46 0 76 -31t30 -75q0 -46 -32.5 -76.5t-73.5 -30.5q-48 0 -79.5 32.5 t-31.5 74.5zM307 760q0 47 34 75.5t77 28.5q47 0 76.5 -31t29.5 -73q0 -48 -32 -79.5t-74 -31.5q-48 0 -79.5 34t-31.5 77zM307 975q0 51 33.5 79.5t77.5 28.5q46 0 76 -32.5t30 -75.5q0 -46 -32.5 -77.5t-73.5 -31.5q-49 0 -80 33.5t-31 75.5zM307 1190q0 47 34.5 77.5 t76.5 30.5q46 0 76 -32.5t30 -75.5q0 -48 -32 -78.5t-74 -30.5q-45 0 -78 33t-33 76zM307 1405q0 50 34 80.5t77 30.5t74.5 -33.5t31.5 -77.5q0 -48 -32 -78.5t-74 -30.5q-45 0 -78 33t-33 76zM522 113q0 46 33 77t76 31q46 0 77 -32.5t31 -75.5q0 -45 -32.5 -78t-75.5 -33 q-46 0 -77.5 34t-31.5 77zM526 975q0 51 33 79.5t76 28.5q46 0 76 -32.5t30 -75.5q0 -46 -32.5 -77.5t-73.5 -31.5q-49 0 -79 33.5t-30 75.5zM530 1626q0 50 35 81.5t76 31.5q43 0 75 -34.5t32 -78.5q0 -46 -33 -77t-74 -31q-45 0 -78 32.5t-33 75.5zM737 113q0 48 33 78 t76 30q50 0 80 -32t30 -76q0 -46 -32 -78.5t-78 -32.5t-77.5 34t-31.5 77zM954 113q0 46 33.5 77t75.5 31q46 0 78.5 -33t32.5 -75q0 -46 -34 -78.5t-77 -32.5q-45 0 -77 34.5t-32 76.5zM1165 334q0 49 32.5 79.5t74.5 30.5q48 0 78 -33.5t30 -76.5q0 -46 -32 -78.5 t-76 -32.5q-45 0 -76 33.5t-31 77.5z" />
<glyph unicode="&#xa5;" d="M195 971q0 48 32 78t74 30q49 0 80 -32.5t31 -75.5q0 -44 -32.5 -76.5t-78.5 -32.5q-48 0 -77 33.5t-29 75.5zM195 1186q0 46 32.5 77t73.5 31q49 0 80 -33t31 -75q0 -45 -33 -77t-78 -32q-44 0 -75 33t-31 76zM195 1401q0 48 32 79t74 31q46 0 78.5 -33.5t32.5 -76.5 q0 -45 -33 -77t-78 -32q-44 0 -75 33t-31 76zM410 324q0 48 32 80t76 32q45 0 77 -34t32 -78q0 -45 -33.5 -77t-75.5 -32q-46 0 -77 33.5t-31 75.5zM410 760q0 46 32 75t76 29q53 0 82 -31t29 -73q0 -46 -32 -78.5t-79 -32.5q-49 0 -78.5 33.5t-29.5 77.5zM627 109 q0 46 32.5 77t75.5 31q46 0 77.5 -32.5t31.5 -75.5q0 -46 -33.5 -78.5t-75.5 -32.5q-46 0 -77 34t-31 77zM627 324q0 48 32.5 80t75.5 32q45 0 77 -34t32 -78q0 -45 -33.5 -77t-75.5 -32q-46 0 -77 33.5t-31 75.5zM627 543q0 47 32.5 76.5t75.5 29.5q48 0 78.5 -31t30.5 -75 q0 -45 -32.5 -76t-76.5 -31q-49 0 -78.5 32.5t-29.5 74.5zM627 760q0 45 32 74.5t76 29.5q49 0 79 -31t30 -73q0 -46 -32.5 -78.5t-76.5 -32.5q-49 0 -78.5 33.5t-29.5 77.5zM842 760q0 45 32 74.5t76 29.5q49 0 80 -31.5t31 -72.5q0 -46 -32.5 -78.5t-78.5 -32.5 q-49 0 -78.5 33.5t-29.5 77.5zM844 324q0 48 32.5 80t75.5 32q44 0 76.5 -34.5t32.5 -77.5q0 -45 -33 -77t-76 -32q-46 0 -77 33.5t-31 75.5zM1057 971q0 51 32.5 79.5t77.5 28.5q46 0 75.5 -32.5t29.5 -75.5q0 -46 -32 -77.5t-73 -31.5q-50 0 -80 33t-30 76zM1057 1186 q0 49 33 78.5t77 29.5q46 0 75.5 -32.5t29.5 -75.5q0 -48 -31.5 -78.5t-73.5 -30.5q-46 0 -78 32.5t-32 76.5zM1057 1401q0 50 33.5 80t76.5 30t74 -33t31 -77q0 -46 -32 -77.5t-73 -31.5q-46 0 -78 32.5t-32 76.5z" />
<glyph unicode="&#xa8;" d="M299 1401q0 48 34 79t77 31q48 0 79 -33.5t31 -76.5q0 -45 -32.5 -77t-77.5 -32q-46 0 -78.5 33.5t-32.5 75.5zM961 1401q0 48 32 79t76 31q46 0 78.5 -33.5t32.5 -76.5q0 -45 -33.5 -77t-77.5 -32q-45 0 -76.5 33.5t-31.5 75.5z" />
<glyph unicode="&#xad;" d="M201 745q0 47 32.5 76t73.5 29q49 0 79 -31.5t30 -73.5q0 -46 -32.5 -77t-76.5 -31q-46 0 -76 32.5t-30 75.5zM414 745q0 45 31.5 75t76.5 30q50 0 79.5 -32t29.5 -73q0 -44 -32.5 -76t-76.5 -32q-49 0 -78.5 32t-29.5 76zM629 745q0 46 32.5 75.5t75.5 29.5 q53 0 82 -31.5t29 -73.5q0 -45 -32 -76.5t-79 -31.5q-49 0 -78.5 32t-29.5 76zM846 745q0 45 32 75t76 30q48 0 78.5 -31.5t30.5 -73.5q0 -45 -32.5 -76.5t-76.5 -31.5q-49 0 -78.5 32t-29.5 76zM1061 745q0 45 32.5 75t77.5 30q49 0 79 -32t30 -73q0 -44 -33 -76t-76 -32 q-50 0 -80 32t-30 76z" />
<glyph unicode="&#xb0;" d="M322 1190q0 45 32.5 75.5t77.5 30.5q48 0 77.5 -32.5t29.5 -73.5q0 -44 -32 -76.5t-75 -32.5q-49 0 -79.5 33.5t-30.5 75.5zM322 1405q0 49 32.5 78.5t77.5 29.5q48 0 77.5 -32t29.5 -76t-32 -75.5t-75 -31.5q-50 0 -80 33t-30 74zM539 1190q0 45 32.5 75.5t75.5 30.5 q50 0 80.5 -32.5t30.5 -73.5q0 -44 -33.5 -76.5t-77.5 -32.5q-47 0 -77.5 33.5t-30.5 75.5zM539 1405q0 49 33 78.5t75 29.5q49 0 80 -32t31 -76t-33 -75.5t-78 -31.5q-48 0 -78 33t-30 74z" />
<glyph unicode="&#xb1;" horiz-adv-x="1124" d="M90 39v139h946v-139h-946zM90 539v139h404v250h139v-250h403v-139h-403v-250h-139v250h-404z" />
<glyph unicode="&#xb4;" d="M655 1405q0 49 33.5 78.5t77.5 29.5q46 0 75 -32.5t29 -75.5q0 -49 -31 -79t-73 -30q-46 0 -78.5 32.5t-32.5 76.5zM872 1620q0 51 33.5 82t75.5 31q46 0 77.5 -34.5t31.5 -78.5q0 -46 -33 -77.5t-76 -31.5q-45 0 -77 33.5t-32 75.5z" />
<glyph unicode="&#xb5;" horiz-adv-x="1179" d="M150 -285q0 5 0.5 19.5t1.5 43t2 56.5q4 132 4 182q0 117 -2 207q-4 180 -4 195v502h188v-607q0 -143 29 -194q25 -46 102 -49q119 0 195 163q74 161 77 420v267h189v-672q0 -92 18 -135q18 -40 60 -43q41 0 65 43q23 44 23 125v28h43q0 -10 2 -18v-27q0 -114 -49 -178 q-44 -58 -136 -61q-100 0 -155 88q-50 81 -53 264q-47 -182 -125 -266q-77 -83 -199 -86q-88 0 -150 53q-57 54 -81 158q0 -31 -2 -58q0 -136 65 -289q66 -160 66 -188q0 -41 -23 -64q-19 -19 -63 -22q-48 0 -68 35q-17 28 -20 108z" />
<glyph unicode="&#xb7;" d="M582 774q0 47 32.5 77t73.5 30q49 0 79 -32t30 -75q0 -48 -33 -78t-76 -30q-45 0 -75.5 33t-30.5 75z" />
<glyph unicode="&#xb8;" d="M530 -109q0 45 33.5 76t77.5 31q48 0 78.5 -33t30.5 -74q0 -44 -33 -76t-76 -32q-49 0 -80 33t-31 75z" />
<glyph unicode="&#xbf;" d="M70 109q0 43 31.5 75.5t76.5 32.5q43 0 74 -30t31 -78q0 -44 -29 -76.5t-76 -32.5q-43 0 -75.5 30t-32.5 79zM283 -106q0 43 31 75.5t77 32.5q44 0 76.5 -31.5t32.5 -76.5q0 -43 -31.5 -77t-77.5 -34q-43 0 -75.5 31.5t-32.5 79.5zM498 -106q0 43 31 75.5t79 32.5 q45 0 77 -31.5t32 -76.5q0 -43 -30.5 -77t-78.5 -34q-43 0 -76.5 31t-33.5 80zM498 756q0 42 30 74t80 32q46 0 77.5 -31t31.5 -75t-29.5 -76.5t-79.5 -32.5q-45 0 -77.5 30t-32.5 79zM498 1186q0 43 31 76.5t79 33.5q44 0 76.5 -32t32.5 -78q0 -44 -30 -76.5t-79 -32.5 q-44 0 -77 30.5t-33 78.5zM715 -106q0 42 32 75t78 33q41 0 74 -31t33 -77q0 -43 -31.5 -77t-75.5 -34q-43 0 -76.5 31.5t-33.5 79.5zM715 539q0 43 30.5 75.5t79.5 32.5q43 0 75 -31t32 -77q0 -42 -30 -73.5t-77 -31.5q-44 0 -77 30t-33 75zM932 -106q0 43 30.5 75.5 t75.5 32.5q44 0 78.5 -31.5t34.5 -76.5q0 -42 -33.5 -76.5t-79.5 -34.5q-42 0 -74 31.5t-32 79.5zM932 539q0 43 29.5 75.5t76.5 32.5q45 0 79 -31.5t34 -76.5q0 -41 -31.5 -73t-81.5 -32q-42 0 -74 30t-32 75zM1147 109q0 43 31.5 75.5t76.5 32.5q43 0 75 -30t32 -78 q0 -43 -30 -76t-77 -33q-43 0 -75.5 30t-32.5 79zM1147 324q0 42 29.5 75t78.5 33q43 0 75 -31t32 -77q0 -43 -30 -76t-77 -33q-44 0 -76 29t-32 80z" />
<glyph unicode="&#xc0;" d="M98 109q0 48 33 78t76 30q47 0 76.5 -32.5t29.5 -75.5q0 -48 -31 -79.5t-75 -31.5q-45 0 -77 33.5t-32 77.5zM98 324q0 50 34 81t75 31q46 0 76 -34t30 -78q0 -46 -31.5 -77.5t-74.5 -31.5q-45 0 -77 33.5t-32 75.5zM98 539q0 49 33 77.5t76 28.5q49 0 77.5 -30.5 t28.5 -75.5q0 -46 -31 -76.5t-75 -30.5q-48 0 -78.5 32.5t-30.5 74.5zM98 756q0 47 33 75.5t76 28.5q50 0 78 -30.5t28 -73.5q0 -48 -31 -79.5t-75 -31.5q-48 0 -78.5 34t-30.5 77zM98 971q0 51 33 79.5t76 28.5q49 0 77.5 -32t28.5 -76q0 -47 -31.5 -78t-74.5 -31 q-55 0 -82 33.5t-27 75.5zM311 756q0 44 33.5 74t77.5 30q48 0 77 -31.5t29 -72.5q0 -46 -31.5 -78.5t-74.5 -32.5q-49 0 -80 33.5t-31 77.5zM311 1186q0 46 33.5 77t77.5 31q47 0 76.5 -33t29.5 -75q0 -45 -32 -77t-74 -32q-46 0 -78.5 33.5t-32.5 75.5zM526 756 q0 45 34 74.5t77 29.5q52 0 81.5 -31t29.5 -73q0 -46 -32.5 -78.5t-78.5 -32.5q-49 0 -80 33.5t-31 77.5zM526 1401q0 48 34 79t77 31q48 0 79.5 -33.5t31.5 -76.5q0 -45 -33 -77t-78 -32q-46 0 -78.5 33.5t-32.5 75.5zM532 1835q0 46 34 78.5t75 32.5q49 0 81 -34.5 t32 -76.5q0 -44 -35 -76.5t-78 -32.5q-45 0 -77 33.5t-32 75.5zM745 756q0 44 32 74t75 30q50 0 80.5 -31t30.5 -73q0 -47 -33 -79t-78 -32q-47 0 -77 33.5t-30 77.5zM745 1401q0 48 32.5 79t74.5 31q46 0 78.5 -33t32.5 -77q0 -46 -33.5 -77.5t-77.5 -31.5q-45 0 -76 33.5 t-31 75.5zM750 1620q0 52 31.5 80.5t74.5 28.5q48 0 77.5 -32t29.5 -77q0 -46 -31.5 -76.5t-75.5 -30.5q-48 0 -77 32t-29 75zM961 756q0 45 32 74.5t76 29.5q50 0 80.5 -31.5t30.5 -72.5q0 -45 -33 -78t-78 -33q-47 0 -77.5 33.5t-30.5 77.5zM961 1186q0 46 32 77t76 31 q49 0 80 -33t31 -75q0 -45 -33.5 -77t-77.5 -32q-45 0 -76.5 33.5t-31.5 75.5zM1176 109q0 49 33 78.5t75 29.5q46 0 76.5 -32.5t30.5 -75.5q0 -48 -32 -79.5t-75 -31.5q-45 0 -76.5 33.5t-31.5 77.5zM1176 324q0 50 33.5 81t74.5 31q45 0 76 -34t31 -78q0 -46 -32.5 -77.5 t-74.5 -31.5q-45 0 -76.5 33.5t-31.5 75.5zM1176 539q0 50 32.5 78t75.5 28q48 0 77.5 -31t29.5 -75q0 -46 -32 -76.5t-75 -30.5q-47 0 -77.5 32.5t-30.5 74.5zM1176 756q0 47 32.5 75.5t75.5 28.5q49 0 78 -31t29 -73q0 -48 -32 -79.5t-75 -31.5q-47 0 -77.5 33.5 t-30.5 77.5zM1176 971q0 51 32.5 79.5t75.5 28.5q48 0 77.5 -32.5t29.5 -75.5q0 -46 -32.5 -77.5t-74.5 -31.5q-48 0 -78 33t-30 76z" />
<glyph unicode="&#xc1;" d="M98 109q0 48 33 78t76 30q47 0 76.5 -32.5t29.5 -75.5q0 -48 -31 -79.5t-75 -31.5q-45 0 -77 33.5t-32 77.5zM98 324q0 50 34 81t75 31q46 0 76 -34t30 -78q0 -46 -31.5 -77.5t-74.5 -31.5q-45 0 -77 33.5t-32 75.5zM98 539q0 49 33 77.5t76 28.5q49 0 77.5 -30.5 t28.5 -75.5q0 -46 -31 -76.5t-75 -30.5q-48 0 -78.5 32.5t-30.5 74.5zM98 756q0 47 33 75.5t76 28.5q50 0 78 -30.5t28 -73.5q0 -48 -31 -79.5t-75 -31.5q-48 0 -78.5 34t-30.5 77zM98 971q0 51 33 79.5t76 28.5q49 0 77.5 -32t28.5 -76q0 -47 -31.5 -78t-74.5 -31 q-55 0 -82 33.5t-27 75.5zM311 756q0 44 33.5 74t77.5 30q48 0 77 -31.5t29 -72.5q0 -46 -31.5 -78.5t-74.5 -32.5q-49 0 -80 33.5t-31 77.5zM311 1186q0 46 33.5 77t77.5 31q47 0 76.5 -33t29.5 -75q0 -45 -32 -77t-74 -32q-46 0 -78.5 33.5t-32.5 75.5zM524 1620 q0 49 33.5 79t77.5 30q45 0 74.5 -33t29.5 -76q0 -49 -31 -79t-73 -30q-46 0 -78.5 32.5t-32.5 76.5zM526 756q0 45 34 74.5t77 29.5q52 0 81.5 -31t29.5 -73q0 -46 -32.5 -78.5t-78.5 -32.5q-49 0 -80 33.5t-31 77.5zM526 1401q0 48 34 79t77 31q48 0 79.5 -33.5 t31.5 -76.5q0 -45 -33 -77t-78 -32q-46 0 -78.5 33.5t-32.5 75.5zM741 1835q0 51 33.5 82t75.5 31q46 0 77 -34.5t31 -78.5q0 -46 -32.5 -77.5t-75.5 -31.5q-45 0 -77 33.5t-32 75.5zM745 756q0 44 32 74t75 30q50 0 80.5 -31t30.5 -73q0 -47 -33 -79t-78 -32 q-47 0 -77 33.5t-30 77.5zM745 1401q0 48 32.5 79t74.5 31q46 0 78.5 -33t32.5 -77q0 -46 -33.5 -77.5t-77.5 -31.5q-45 0 -76 33.5t-31 75.5zM961 756q0 45 32 74.5t76 29.5q50 0 80.5 -31.5t30.5 -72.5q0 -45 -33 -78t-78 -33q-47 0 -77.5 33.5t-30.5 77.5zM961 1186 q0 46 32 77t76 31q49 0 80 -33t31 -75q0 -45 -33.5 -77t-77.5 -32q-45 0 -76.5 33.5t-31.5 75.5zM1176 109q0 49 33 78.5t75 29.5q46 0 76.5 -32.5t30.5 -75.5q0 -48 -32 -79.5t-75 -31.5q-45 0 -76.5 33.5t-31.5 77.5zM1176 324q0 50 33.5 81t74.5 31q45 0 76 -34t31 -78 q0 -46 -32.5 -77.5t-74.5 -31.5q-45 0 -76.5 33.5t-31.5 75.5zM1176 539q0 50 32.5 78t75.5 28q48 0 77.5 -31t29.5 -75q0 -46 -32 -76.5t-75 -30.5q-47 0 -77.5 32.5t-30.5 74.5zM1176 756q0 47 32.5 75.5t75.5 28.5q49 0 78 -31t29 -73q0 -48 -32 -79.5t-75 -31.5 q-47 0 -77.5 33.5t-30.5 77.5zM1176 971q0 51 32.5 79.5t75.5 28.5q48 0 77.5 -32.5t29.5 -75.5q0 -46 -32.5 -77.5t-74.5 -31.5q-48 0 -78 33t-30 76z" />
<glyph unicode="&#xc2;" d="M98 109q0 48 33 78t76 30q47 0 76.5 -32.5t29.5 -75.5q0 -48 -31 -79.5t-75 -31.5q-45 0 -77 33.5t-32 77.5zM98 324q0 50 34 81t75 31q46 0 76 -34t30 -78q0 -46 -31.5 -77.5t-74.5 -31.5q-45 0 -77 33.5t-32 75.5zM98 539q0 49 33 77.5t76 28.5q49 0 77.5 -30.5 t28.5 -75.5q0 -46 -31 -76.5t-75 -30.5q-48 0 -78.5 32.5t-30.5 74.5zM98 756q0 47 33 75.5t76 28.5q50 0 78 -30.5t28 -73.5q0 -48 -31 -79.5t-75 -31.5q-48 0 -78.5 34t-30.5 77zM98 971q0 51 33 79.5t76 28.5q49 0 77.5 -32t28.5 -76q0 -47 -31.5 -78t-74.5 -31 q-55 0 -82 33.5t-27 75.5zM311 756q0 44 33.5 74t77.5 30q48 0 77 -31.5t29 -72.5q0 -46 -31.5 -78.5t-74.5 -32.5q-49 0 -80 33.5t-31 77.5zM311 1186q0 46 33.5 77t77.5 31q47 0 76.5 -33t29.5 -75q0 -45 -32 -77t-74 -32q-46 0 -78.5 33.5t-32.5 75.5zM416 1630 q0 48 33.5 78.5t76.5 30.5q50 0 80.5 -33t30.5 -76q0 -45 -33 -76.5t-78 -31.5q-46 0 -78 33t-32 75zM526 756q0 45 34 74.5t77 29.5q52 0 81.5 -31t29.5 -73q0 -46 -32.5 -78.5t-78.5 -32.5q-49 0 -80 33.5t-31 77.5zM526 1401q0 48 34 79t77 31q48 0 79.5 -33.5 t31.5 -76.5q0 -45 -33 -77t-78 -32q-46 0 -78.5 33.5t-32.5 75.5zM635 1845q0 48 32 78.5t74 30.5q46 0 78.5 -32.5t32.5 -76.5q0 -46 -33.5 -77t-77.5 -31q-45 0 -75.5 32.5t-30.5 75.5zM745 756q0 44 32 74t75 30q50 0 80.5 -31t30.5 -73q0 -47 -33 -79t-78 -32 q-47 0 -77 33.5t-30 77.5zM745 1401q0 48 32.5 79t74.5 31q46 0 78.5 -33t32.5 -77q0 -46 -33.5 -77.5t-77.5 -31.5q-45 0 -76 33.5t-31 75.5zM850 1630q0 46 32 77.5t76 31.5q49 0 80 -33.5t31 -75.5q0 -45 -33.5 -76.5t-77.5 -31.5q-45 0 -76.5 33t-31.5 75zM961 756 q0 45 32 74.5t76 29.5q50 0 80.5 -31.5t30.5 -72.5q0 -45 -33 -78t-78 -33q-47 0 -77.5 33.5t-30.5 77.5zM961 1186q0 46 32 77t76 31q49 0 80 -33t31 -75q0 -45 -33.5 -77t-77.5 -32q-45 0 -76.5 33.5t-31.5 75.5zM1176 109q0 49 33 78.5t75 29.5q46 0 76.5 -32.5 t30.5 -75.5q0 -48 -32 -79.5t-75 -31.5q-45 0 -76.5 33.5t-31.5 77.5zM1176 324q0 50 33.5 81t74.5 31q45 0 76 -34t31 -78q0 -46 -32.5 -77.5t-74.5 -31.5q-45 0 -76.5 33.5t-31.5 75.5zM1176 539q0 50 32.5 78t75.5 28q48 0 77.5 -31t29.5 -75q0 -46 -32 -76.5t-75 -30.5 q-47 0 -77.5 32.5t-30.5 74.5zM1176 756q0 47 32.5 75.5t75.5 28.5q49 0 78 -31t29 -73q0 -48 -32 -79.5t-75 -31.5q-47 0 -77.5 33.5t-30.5 77.5zM1176 971q0 51 32.5 79.5t75.5 28.5q48 0 77.5 -32.5t29.5 -75.5q0 -46 -32.5 -77.5t-74.5 -31.5q-48 0 -78 33t-30 76z" />
<glyph unicode="&#xc3;" d="M98 109q0 48 33 78t76 30q47 0 76.5 -32.5t29.5 -75.5q0 -48 -31 -79.5t-75 -31.5q-45 0 -77 33.5t-32 77.5zM98 324q0 50 34 81t75 31q46 0 76 -34t30 -78q0 -46 -31.5 -77.5t-74.5 -31.5q-45 0 -77 33.5t-32 75.5zM98 539q0 49 33 77.5t76 28.5q49 0 77.5 -30.5 t28.5 -75.5q0 -46 -31 -76.5t-75 -30.5q-48 0 -78.5 32.5t-30.5 74.5zM98 756q0 47 33 75.5t76 28.5q50 0 78 -30.5t28 -73.5q0 -48 -31 -79.5t-75 -31.5q-48 0 -78.5 34t-30.5 77zM98 971q0 51 33 79.5t76 28.5q49 0 77.5 -32t28.5 -76q0 -47 -31.5 -78t-74.5 -31 q-55 0 -82 33.5t-27 75.5zM301 1626q0 46 33.5 77.5t77.5 31.5q47 0 76.5 -33.5t29.5 -75.5q0 -45 -32 -76.5t-74 -31.5q-46 0 -78.5 33t-32.5 75zM311 756q0 44 33.5 74t77.5 30q48 0 77 -31.5t29 -72.5q0 -46 -31.5 -78.5t-74.5 -32.5q-49 0 -80 33.5t-31 77.5zM311 1186 q0 46 33.5 77t77.5 31q47 0 76.5 -33t29.5 -75q0 -45 -32 -77t-74 -32q-46 0 -78.5 33.5t-32.5 75.5zM516 1841q0 49 34.5 80t76.5 31q48 0 79 -34t31 -77q0 -45 -32.5 -76.5t-77.5 -31.5q-46 0 -78.5 33t-32.5 75zM526 756q0 45 34 74.5t77 29.5q52 0 81.5 -31t29.5 -73 q0 -46 -32.5 -78.5t-78.5 -32.5q-49 0 -80 33.5t-31 77.5zM526 1401q0 48 34 79t77 31q48 0 79.5 -33.5t31.5 -76.5q0 -45 -33 -77t-78 -32q-46 0 -78.5 33.5t-32.5 75.5zM735 1626q0 46 33 77.5t74 31.5q49 0 79.5 -33t30.5 -76q0 -46 -33 -77t-77 -31q-45 0 -76 33t-31 75 zM745 756q0 44 32 74t75 30q50 0 80.5 -31t30.5 -73q0 -47 -33 -79t-78 -32q-47 0 -77 33.5t-30 77.5zM745 1401q0 48 32.5 79t74.5 31q46 0 78.5 -33t32.5 -77q0 -46 -33.5 -77.5t-77.5 -31.5q-45 0 -76 33.5t-31 75.5zM950 1841q0 48 32.5 79.5t76.5 31.5q46 0 78 -34 t32 -77q0 -45 -33 -76.5t-77 -31.5q-45 0 -77 33t-32 75zM961 756q0 45 32 74.5t76 29.5q50 0 80.5 -31.5t30.5 -72.5q0 -45 -33 -78t-78 -33q-47 0 -77.5 33.5t-30.5 77.5zM961 1186q0 46 32 77t76 31q49 0 80 -33t31 -75q0 -45 -33.5 -77t-77.5 -32q-45 0 -76.5 33.5 t-31.5 75.5zM1176 109q0 49 33 78.5t75 29.5q46 0 76.5 -32.5t30.5 -75.5q0 -48 -32 -79.5t-75 -31.5q-45 0 -76.5 33.5t-31.5 77.5zM1176 324q0 50 33.5 81t74.5 31q45 0 76 -34t31 -78q0 -46 -32.5 -77.5t-74.5 -31.5q-45 0 -76.5 33.5t-31.5 75.5zM1176 539q0 50 32.5 78 t75.5 28q48 0 77.5 -31t29.5 -75q0 -46 -32 -76.5t-75 -30.5q-47 0 -77.5 32.5t-30.5 74.5zM1176 756q0 47 32.5 75.5t75.5 28.5q49 0 78 -31t29 -73q0 -48 -32 -79.5t-75 -31.5q-47 0 -77.5 33.5t-30.5 77.5zM1176 971q0 51 32.5 79.5t75.5 28.5q48 0 77.5 -32.5 t29.5 -75.5q0 -46 -32.5 -77.5t-74.5 -31.5q-48 0 -78 33t-30 76z" />
<glyph unicode="&#xc4;" d="M98 109q0 48 33 78t76 30q47 0 76.5 -32.5t29.5 -75.5q0 -48 -31 -79.5t-75 -31.5q-45 0 -77 33.5t-32 77.5zM98 324q0 50 34 81t75 31q46 0 76 -34t30 -78q0 -46 -31.5 -77.5t-74.5 -31.5q-45 0 -77 33.5t-32 75.5zM98 539q0 49 33 77.5t76 28.5q49 0 77.5 -30.5 t28.5 -75.5q0 -46 -31 -76.5t-75 -30.5q-48 0 -78.5 32.5t-30.5 74.5zM98 756q0 47 33 75.5t76 28.5q50 0 78 -30.5t28 -73.5q0 -48 -31 -79.5t-75 -31.5q-48 0 -78.5 34t-30.5 77zM98 971q0 51 33 79.5t76 28.5q49 0 77.5 -32t28.5 -76q0 -47 -31.5 -78t-74.5 -31 q-55 0 -82 33.5t-27 75.5zM307 1620q0 49 34.5 80t76.5 31q48 0 79 -34t31 -77q0 -45 -32.5 -77t-77.5 -32q-46 0 -78.5 33.5t-32.5 75.5zM311 756q0 44 33.5 74t77.5 30q48 0 77 -31.5t29 -72.5q0 -46 -31.5 -78.5t-74.5 -32.5q-49 0 -80 33.5t-31 77.5zM311 1186 q0 46 33.5 77t77.5 31q47 0 76.5 -33t29.5 -75q0 -45 -32 -77t-74 -32q-46 0 -78.5 33.5t-32.5 75.5zM526 756q0 45 34 74.5t77 29.5q52 0 81.5 -31t29.5 -73q0 -46 -32.5 -78.5t-78.5 -32.5q-49 0 -80 33.5t-31 77.5zM526 1401q0 48 34 79t77 31q48 0 79.5 -33.5 t31.5 -76.5q0 -45 -33 -77t-78 -32q-46 0 -78.5 33.5t-32.5 75.5zM745 756q0 44 32 74t75 30q50 0 80.5 -31t30.5 -73q0 -47 -33 -79t-78 -32q-47 0 -77 33.5t-30 77.5zM745 1401q0 48 32.5 79t74.5 31q46 0 78.5 -33t32.5 -77q0 -46 -33.5 -77.5t-77.5 -31.5 q-45 0 -76 33.5t-31 75.5zM961 756q0 45 32 74.5t76 29.5q50 0 80.5 -31.5t30.5 -72.5q0 -45 -33 -78t-78 -33q-47 0 -77.5 33.5t-30.5 77.5zM961 1186q0 46 32 77t76 31q49 0 80 -33t31 -75q0 -45 -33.5 -77t-77.5 -32q-45 0 -76.5 33.5t-31.5 75.5zM969 1620q0 48 32 79.5 t76 31.5q46 0 78.5 -34t32.5 -77q0 -45 -33.5 -77t-77.5 -32q-45 0 -76.5 33.5t-31.5 75.5zM1176 109q0 49 33 78.5t75 29.5q46 0 76.5 -32.5t30.5 -75.5q0 -48 -32 -79.5t-75 -31.5q-45 0 -76.5 33.5t-31.5 77.5zM1176 324q0 50 33.5 81t74.5 31q45 0 76 -34t31 -78 q0 -46 -32.5 -77.5t-74.5 -31.5q-45 0 -76.5 33.5t-31.5 75.5zM1176 539q0 50 32.5 78t75.5 28q48 0 77.5 -31t29.5 -75q0 -46 -32 -76.5t-75 -30.5q-47 0 -77.5 32.5t-30.5 74.5zM1176 756q0 47 32.5 75.5t75.5 28.5q49 0 78 -31t29 -73q0 -48 -32 -79.5t-75 -31.5 q-47 0 -77.5 33.5t-30.5 77.5zM1176 971q0 51 32.5 79.5t75.5 28.5q48 0 77.5 -32.5t29.5 -75.5q0 -46 -32.5 -77.5t-74.5 -31.5q-48 0 -78 33t-30 76z" />
<glyph unicode="&#xc5;" d="M98 109q0 48 33 78t76 30q47 0 76.5 -32.5t29.5 -75.5q0 -48 -31 -79.5t-75 -31.5q-45 0 -77 33.5t-32 77.5zM98 324q0 50 34 81t75 31q46 0 76 -34t30 -78q0 -46 -31.5 -77.5t-74.5 -31.5q-45 0 -77 33.5t-32 75.5zM98 539q0 49 33 77.5t76 28.5q49 0 77.5 -30.5 t28.5 -75.5q0 -46 -31 -76.5t-75 -30.5q-48 0 -78.5 32.5t-30.5 74.5zM98 756q0 47 33 75.5t76 28.5q50 0 78 -30.5t28 -73.5q0 -48 -31 -79.5t-75 -31.5q-48 0 -78.5 34t-30.5 77zM98 971q0 51 33 79.5t76 28.5q49 0 77.5 -32t28.5 -76q0 -47 -31.5 -78t-74.5 -31 q-55 0 -82 33.5t-27 75.5zM311 756q0 44 33.5 74t77.5 30q48 0 77 -31.5t29 -72.5q0 -46 -31.5 -78.5t-74.5 -32.5q-49 0 -80 33.5t-31 77.5zM311 1186q0 46 33.5 77t77.5 31q47 0 76.5 -33t29.5 -75q0 -45 -32 -77t-74 -32q-46 0 -78.5 33.5t-32.5 75.5zM526 756 q0 45 34 74.5t77 29.5q52 0 81.5 -31t29.5 -73q0 -46 -32.5 -78.5t-78.5 -32.5q-49 0 -80 33.5t-31 77.5zM526 1401q0 48 34 79t77 31q48 0 79.5 -33.5t31.5 -76.5q0 -45 -33 -77t-78 -32q-46 0 -78.5 33.5t-32.5 75.5zM530 1624q0 45 32.5 76t74.5 31q51 0 81 -32.5 t30 -74.5q0 -44 -32.5 -76t-78.5 -32q-47 0 -77 33t-30 75zM530 1839q0 49 32.5 79t74.5 30q50 0 80.5 -32t30.5 -77q0 -44 -32.5 -75t-78.5 -31q-48 0 -77.5 32.5t-29.5 73.5zM745 756q0 44 32 74t75 30q50 0 80.5 -31t30.5 -73q0 -47 -33 -79t-78 -32q-47 0 -77 33.5 t-30 77.5zM745 1401q0 48 32.5 79t74.5 31q46 0 78.5 -33t32.5 -77q0 -46 -33.5 -77.5t-77.5 -31.5q-45 0 -76 33.5t-31 75.5zM748 1624q0 45 31.5 76t76.5 31q50 0 79.5 -32.5t29.5 -74.5q0 -44 -32.5 -76t-76.5 -32q-47 0 -77.5 33t-30.5 75zM748 1839q0 49 31.5 79 t76.5 30q49 0 79 -32t30 -77q0 -44 -32 -75t-77 -31q-48 0 -78 32.5t-30 73.5zM961 756q0 45 32 74.5t76 29.5q50 0 80.5 -31.5t30.5 -72.5q0 -45 -33 -78t-78 -33q-47 0 -77.5 33.5t-30.5 77.5zM961 1186q0 46 32 77t76 31q49 0 80 -33t31 -75q0 -45 -33.5 -77t-77.5 -32 q-45 0 -76.5 33.5t-31.5 75.5zM1176 109q0 49 33 78.5t75 29.5q46 0 76.5 -32.5t30.5 -75.5q0 -48 -32 -79.5t-75 -31.5q-45 0 -76.5 33.5t-31.5 77.5zM1176 324q0 50 33.5 81t74.5 31q45 0 76 -34t31 -78q0 -46 -32.5 -77.5t-74.5 -31.5q-45 0 -76.5 33.5t-31.5 75.5z M1176 539q0 50 32.5 78t75.5 28q48 0 77.5 -31t29.5 -75q0 -46 -32 -76.5t-75 -30.5q-47 0 -77.5 32.5t-30.5 74.5zM1176 756q0 47 32.5 75.5t75.5 28.5q49 0 78 -31t29 -73q0 -48 -32 -79.5t-75 -31.5q-47 0 -77.5 33.5t-30.5 77.5zM1176 971q0 51 32.5 79.5t75.5 28.5 q48 0 77.5 -32.5t29.5 -75.5q0 -46 -32.5 -77.5t-74.5 -31.5q-48 0 -78 33t-30 76z" />
<glyph unicode="&#xc6;" d="M98 109q0 48 33 78t76 30q47 0 76.5 -32.5t29.5 -75.5q0 -48 -31 -79.5t-75 -31.5q-45 0 -77 33.5t-32 77.5zM98 324q0 50 34 81t75 31q46 0 76 -34t30 -78q0 -46 -31.5 -77.5t-74.5 -31.5q-45 0 -77 33.5t-32 75.5zM98 539q0 49 33 77.5t76 28.5q49 0 77.5 -30.5 t28.5 -75.5q0 -46 -31 -76.5t-75 -30.5q-48 0 -78.5 32.5t-30.5 74.5zM98 756q0 47 33 75.5t76 28.5q50 0 78 -30.5t28 -73.5q0 -48 -31 -79.5t-75 -31.5q-48 0 -78.5 34t-30.5 77zM98 971q0 51 33 79.5t76 28.5q49 0 77.5 -32t28.5 -76q0 -47 -31.5 -78t-74.5 -31 q-55 0 -82 33.5t-27 75.5zM311 756q0 44 33.5 74t77.5 30q48 0 77 -31.5t29 -72.5q0 -46 -31.5 -78.5t-74.5 -32.5q-49 0 -80 33.5t-31 77.5zM311 1186q0 46 33.5 77t77.5 31q47 0 76.5 -33t29.5 -75q0 -45 -32 -77t-74 -32q-46 0 -78.5 33.5t-32.5 75.5zM526 756 q0 45 34 74.5t77 29.5q52 0 81.5 -31t29.5 -73q0 -46 -32.5 -78.5t-78.5 -32.5q-49 0 -80 33.5t-31 77.5zM526 1401q0 48 34 79t77 31q48 0 79.5 -33.5t31.5 -76.5q0 -45 -33 -77t-78 -32q-46 0 -78.5 33.5t-32.5 75.5zM752 109q0 48 32.5 78t73.5 30q48 0 78.5 -32.5 t30.5 -75.5q0 -48 -32.5 -79.5t-76.5 -31.5q-43 0 -74.5 33.5t-31.5 77.5zM752 324q0 50 33 81t73 31q46 0 77.5 -34t31.5 -78q0 -46 -32.5 -77.5t-76.5 -31.5q-43 0 -74.5 33.5t-31.5 75.5zM752 539q0 49 32 77.5t74 28.5q49 0 79 -31t30 -75q0 -46 -32.5 -76.5 t-76.5 -30.5q-46 0 -76 32.5t-30 74.5zM752 756q0 47 32.5 75.5t73.5 28.5q50 0 79.5 -31t29.5 -73q0 -48 -32.5 -79.5t-76.5 -31.5q-46 0 -76 34t-30 77zM752 971q0 51 32 79.5t74 28.5q49 0 79 -32.5t30 -75.5q0 -46 -32.5 -77.5t-76.5 -31.5q-47 0 -76.5 33.5t-29.5 75.5 zM752 1186q0 48 32.5 78t73.5 30q49 0 79 -32.5t30 -75.5q0 -48 -32.5 -78.5t-76.5 -30.5t-75 33t-31 76zM752 1401q0 49 33 79.5t73 30.5q46 0 77.5 -33t31.5 -77q0 -46 -32.5 -77.5t-76.5 -31.5t-75 33t-31 76zM965 109q0 46 32 77t76 31q48 0 78.5 -32.5t30.5 -75.5 q0 -45 -33 -78t-76 -33q-45 0 -76.5 34t-31.5 77zM965 756q0 45 31.5 74.5t76.5 29.5q50 0 79.5 -31.5t29.5 -72.5q0 -46 -32.5 -78.5t-76.5 -32.5q-47 0 -77.5 33.5t-30.5 77.5zM965 1401q0 48 32 79t76 31q46 0 77.5 -33.5t31.5 -76.5q0 -45 -33 -77t-76 -32 q-45 0 -76.5 33.5t-31.5 75.5zM1180 109q0 48 32.5 78t75.5 30q50 0 80.5 -32t30.5 -76q0 -46 -32.5 -78.5t-78.5 -32.5t-77 34t-31 77zM1180 756q0 46 32.5 75t75.5 29q53 0 82 -31t29 -73q0 -46 -32 -78.5t-79 -32.5q-49 0 -78.5 33.5t-29.5 77.5zM1180 1401q0 49 33 79.5 t75 30.5q49 0 80 -33.5t31 -76.5q0 -46 -32.5 -77.5t-78.5 -31.5t-77 33t-31 76z" />
<glyph unicode="&#xc7;" d="M98 324q0 50 34 81t75 31q46 0 76 -34t30 -78q0 -46 -31.5 -77.5t-74.5 -31.5q-45 0 -77 33.5t-32 75.5zM98 539q0 49 33 77.5t76 28.5q49 0 77.5 -30.5t28.5 -75.5q0 -46 -31 -76.5t-75 -30.5q-48 0 -78.5 32.5t-30.5 74.5zM98 756q0 47 33 75.5t76 28.5q50 0 78 -30.5 t28 -73.5q0 -48 -31 -79.5t-75 -31.5q-48 0 -78.5 34t-30.5 77zM98 971q0 51 33 79.5t76 28.5q49 0 77.5 -32t28.5 -76q0 -47 -31.5 -78t-74.5 -31q-49 0 -79 33.5t-30 75.5zM98 1186q0 48 33 78t76 30q49 0 77.5 -32t28.5 -76q0 -48 -31 -78.5t-75 -30.5q-45 0 -77 33 t-32 76zM311 109q0 46 33.5 77t77.5 31q46 0 76 -32.5t30 -75.5q0 -45 -32 -78t-74 -33q-46 0 -78.5 34t-32.5 77zM311 1401q0 48 33.5 79t77.5 31t75 -33.5t31 -76.5q0 -45 -32 -77t-74 -32q-46 0 -78.5 33.5t-32.5 75.5zM526 109q0 47 33.5 77.5t77.5 30.5q49 0 80 -32.5 t31 -75.5q0 -45 -33 -78t-78 -33q-46 0 -78.5 34t-32.5 77zM526 1401q0 48 34 79t77 31q48 0 79.5 -33.5t31.5 -76.5q0 -45 -33 -77t-78 -32q-46 0 -78.5 33.5t-32.5 75.5zM745 109q0 46 33 77t74 31q48 0 79.5 -32.5t31.5 -75.5q0 -46 -33.5 -78.5t-77.5 -32.5t-75.5 34 t-31.5 77zM745 1401q0 48 32.5 79t74.5 31q46 0 78.5 -33t32.5 -77q0 -46 -33.5 -77.5t-77.5 -31.5q-45 0 -76 33.5t-31 75.5zM752 -109q0 45 33 76t77 31q48 0 78.5 -33t30.5 -74q0 -44 -33 -76t-76 -32q-49 0 -79.5 33t-30.5 75zM961 109q0 46 32 77t76 31 q48 0 79.5 -32.5t31.5 -75.5q0 -45 -34 -78t-77 -33q-45 0 -76.5 34t-31.5 77zM961 1401q0 48 32 79t76 31q46 0 78.5 -33.5t32.5 -76.5q0 -45 -33.5 -77t-77.5 -32q-45 0 -76.5 33.5t-31.5 75.5zM1176 324q0 50 33.5 81t74.5 31q45 0 76 -34t31 -78q0 -46 -32.5 -77.5 t-74.5 -31.5q-45 0 -76.5 33.5t-31.5 75.5zM1176 1186q0 49 33 78.5t75 29.5q48 0 77.5 -32.5t29.5 -75.5q0 -48 -32 -78.5t-75 -30.5q-45 0 -76.5 32.5t-31.5 76.5z" />
<glyph unicode="&#xc8;" d="M98 109q0 48 33 78t76 30q47 0 76.5 -32.5t29.5 -75.5q0 -48 -31 -79.5t-75 -31.5q-45 0 -77 33.5t-32 77.5zM98 324q0 50 34 81t75 31q46 0 76 -34t30 -78q0 -46 -31.5 -77.5t-74.5 -31.5q-45 0 -77 33.5t-32 75.5zM98 539q0 49 33 77.5t76 28.5q49 0 77.5 -30.5 t28.5 -75.5q0 -46 -31 -76.5t-75 -30.5q-48 0 -78.5 32.5t-30.5 74.5zM98 756q0 47 33 75.5t76 28.5q50 0 78 -30.5t28 -73.5q0 -48 -31 -79.5t-75 -31.5q-48 0 -78.5 34t-30.5 77zM98 971q0 51 33 79.5t76 28.5q49 0 77.5 -32t28.5 -76q0 -47 -31.5 -78t-74.5 -31 q-49 0 -79 33.5t-30 75.5zM98 1186q0 48 33 78t76 30q49 0 77.5 -32t28.5 -76q0 -48 -31 -78.5t-75 -30.5q-45 0 -77 33t-32 76zM98 1401q0 49 33.5 79.5t75.5 30.5q46 0 76 -33t30 -77q0 -47 -31.5 -78t-74.5 -31q-45 0 -77 33t-32 76zM311 109q0 46 33.5 77t77.5 31 q46 0 76 -32.5t30 -75.5q0 -45 -32 -78t-74 -33q-46 0 -78.5 34t-32.5 77zM311 756q0 44 33.5 74t77.5 30q48 0 77 -31.5t29 -72.5q0 -46 -31.5 -78.5t-74.5 -32.5q-49 0 -80 33.5t-31 77.5zM311 1401q0 48 33.5 79t77.5 31t75 -33.5t31 -76.5q0 -45 -32 -77t-74 -32 q-46 0 -78.5 33.5t-32.5 75.5zM526 109q0 47 33.5 77.5t77.5 30.5q49 0 80 -32.5t31 -75.5q0 -45 -33 -78t-78 -33q-46 0 -78.5 34t-32.5 77zM526 756q0 45 34 74.5t77 29.5q52 0 81.5 -31t29.5 -73q0 -46 -32.5 -78.5t-78.5 -32.5q-49 0 -80 33.5t-31 77.5zM526 1401 q0 48 34 79t77 31q48 0 79.5 -33.5t31.5 -76.5q0 -45 -33 -77t-78 -32q-46 0 -78.5 33.5t-32.5 75.5zM530 1837q0 46 34 78.5t75 32.5q49 0 81 -34.5t32 -76.5q0 -43 -34.5 -75.5t-78.5 -32.5q-45 0 -77 33t-32 75zM745 109q0 46 33 77t74 31q48 0 79.5 -32.5t31.5 -75.5 q0 -46 -33.5 -78.5t-77.5 -32.5t-75.5 34t-31.5 77zM745 756q0 44 32 74t75 30q50 0 80.5 -31t30.5 -73q0 -47 -33 -79t-78 -32q-47 0 -77 33.5t-30 77.5zM745 1401q0 48 32.5 79t74.5 31q46 0 78.5 -33t32.5 -77q0 -46 -33.5 -77.5t-77.5 -31.5q-45 0 -76 33.5t-31 75.5z M748 1622q0 52 31.5 80.5t74.5 28.5q48 0 77.5 -32t29.5 -77q0 -46 -31.5 -76t-75.5 -30q-48 0 -77 31.5t-29 74.5zM961 109q0 46 32 77t76 31q48 0 79.5 -32.5t31.5 -75.5q0 -45 -34 -78t-77 -33q-45 0 -76.5 34t-31.5 77zM961 1401q0 48 32 79t76 31q46 0 78.5 -33.5 t32.5 -76.5q0 -45 -33.5 -77t-77.5 -32q-45 0 -76.5 33.5t-31.5 75.5zM1176 109q0 49 33 78.5t75 29.5q46 0 76.5 -32.5t30.5 -75.5q0 -48 -32 -79.5t-75 -31.5q-45 0 -76.5 33.5t-31.5 77.5zM1176 1401q0 50 33 80t75 30q45 0 76 -33t31 -77q0 -46 -32.5 -77.5t-74.5 -31.5 q-45 0 -76.5 32.5t-31.5 76.5z" />
<glyph unicode="&#xc9;" d="M98 109q0 48 33 78t76 30q47 0 76.5 -32.5t29.5 -75.5q0 -48 -31 -79.5t-75 -31.5q-45 0 -77 33.5t-32 77.5zM98 324q0 50 34 81t75 31q46 0 76 -34t30 -78q0 -46 -31.5 -77.5t-74.5 -31.5q-45 0 -77 33.5t-32 75.5zM98 539q0 49 33 77.5t76 28.5q49 0 77.5 -30.5 t28.5 -75.5q0 -46 -31 -76.5t-75 -30.5q-48 0 -78.5 32.5t-30.5 74.5zM98 756q0 47 33 75.5t76 28.5q50 0 78 -30.5t28 -73.5q0 -48 -31 -79.5t-75 -31.5q-48 0 -78.5 34t-30.5 77zM98 971q0 51 33 79.5t76 28.5q49 0 77.5 -32t28.5 -76q0 -47 -31.5 -78t-74.5 -31 q-49 0 -79 33.5t-30 75.5zM98 1186q0 48 33 78t76 30q49 0 77.5 -32t28.5 -76q0 -48 -31 -78.5t-75 -30.5q-45 0 -77 33t-32 76zM98 1401q0 49 33.5 79.5t75.5 30.5q46 0 76 -33t30 -77q0 -47 -31.5 -78t-74.5 -31q-45 0 -77 33t-32 76zM311 109q0 46 33.5 77t77.5 31 q46 0 76 -32.5t30 -75.5q0 -45 -32 -78t-74 -33q-46 0 -78.5 34t-32.5 77zM311 756q0 44 33.5 74t77.5 30q48 0 77 -31.5t29 -72.5q0 -46 -31.5 -78.5t-74.5 -32.5q-49 0 -80 33.5t-31 77.5zM311 1401q0 48 33.5 79t77.5 31t75 -33.5t31 -76.5q0 -45 -32 -77t-74 -32 q-46 0 -78.5 33.5t-32.5 75.5zM526 109q0 47 33.5 77.5t77.5 30.5q49 0 80 -32.5t31 -75.5q0 -45 -33 -78t-78 -33q-46 0 -78.5 34t-32.5 77zM526 756q0 45 34 74.5t77 29.5q52 0 81.5 -31t29.5 -73q0 -46 -32.5 -78.5t-78.5 -32.5q-49 0 -80 33.5t-31 77.5zM526 1401 q0 48 34 79t77 31q48 0 79.5 -33.5t31.5 -76.5q0 -45 -33 -77t-78 -32q-46 0 -78.5 33.5t-32.5 75.5zM745 109q0 46 33 77t74 31q48 0 79.5 -32.5t31.5 -75.5q0 -46 -33.5 -78.5t-77.5 -32.5t-75.5 34t-31.5 77zM745 756q0 44 32 74t75 30q50 0 80.5 -31t30.5 -73 q0 -47 -33 -79t-78 -32q-47 0 -77 33.5t-30 77.5zM745 1401q0 48 32.5 79t74.5 31q46 0 78.5 -33t32.5 -77q0 -46 -33.5 -77.5t-77.5 -31.5q-45 0 -76 33.5t-31 75.5zM752 1622q0 49 33 79t77 30q46 0 75.5 -33t29.5 -76q0 -49 -31.5 -79t-73.5 -30q-46 0 -78 32.5t-32 76.5 zM961 109q0 46 32 77t76 31q48 0 79.5 -32.5t31.5 -75.5q0 -45 -34 -78t-77 -33q-45 0 -76.5 34t-31.5 77zM961 1401q0 48 32 79t76 31q46 0 78.5 -33.5t32.5 -76.5q0 -45 -33.5 -77t-77.5 -32q-45 0 -76.5 33.5t-31.5 75.5zM969 1837q0 51 33 82t75 31q46 0 77.5 -34.5 t31.5 -78.5q0 -46 -33 -77t-76 -31q-45 0 -76.5 33t-31.5 75zM1176 109q0 49 33 78.5t75 29.5q46 0 76.5 -32.5t30.5 -75.5q0 -48 -32 -79.5t-75 -31.5q-45 0 -76.5 33.5t-31.5 77.5zM1176 1401q0 50 33 80t75 30q45 0 76 -33t31 -77q0 -46 -32.5 -77.5t-74.5 -31.5 q-45 0 -76.5 32.5t-31.5 76.5z" />
<glyph unicode="&#xca;" d="M98 109q0 48 33 78t76 30q47 0 76.5 -32.5t29.5 -75.5q0 -48 -31 -79.5t-75 -31.5q-45 0 -77 33.5t-32 77.5zM98 324q0 50 34 81t75 31q46 0 76 -34t30 -78q0 -46 -31.5 -77.5t-74.5 -31.5q-45 0 -77 33.5t-32 75.5zM98 539q0 49 33 77.5t76 28.5q49 0 77.5 -30.5 t28.5 -75.5q0 -46 -31 -76.5t-75 -30.5q-48 0 -78.5 32.5t-30.5 74.5zM98 756q0 47 33 75.5t76 28.5q50 0 78 -30.5t28 -73.5q0 -48 -31 -79.5t-75 -31.5q-48 0 -78.5 34t-30.5 77zM98 971q0 51 33 79.5t76 28.5q49 0 77.5 -32t28.5 -76q0 -47 -31.5 -78t-74.5 -31 q-49 0 -79 33.5t-30 75.5zM98 1186q0 48 33 78t76 30q49 0 77.5 -32t28.5 -76q0 -48 -31 -78.5t-75 -30.5q-45 0 -77 33t-32 76zM98 1401q0 49 33.5 79.5t75.5 30.5q46 0 76 -33t30 -77q0 -47 -31.5 -78t-74.5 -31q-45 0 -77 33t-32 76zM311 109q0 46 33.5 77t77.5 31 q46 0 76 -32.5t30 -75.5q0 -45 -32 -78t-74 -33q-46 0 -78.5 34t-32.5 77zM311 756q0 44 33.5 74t77.5 30q48 0 77 -31.5t29 -72.5q0 -46 -31.5 -78.5t-74.5 -32.5q-49 0 -80 33.5t-31 77.5zM311 1401q0 48 33.5 79t77.5 31t75 -33.5t31 -76.5q0 -45 -32 -77t-74 -32 q-46 0 -78.5 33.5t-32.5 75.5zM410 1626q0 48 33.5 78.5t76.5 30.5q50 0 80.5 -33t30.5 -76q0 -45 -33 -76.5t-78 -31.5q-46 0 -78 33t-32 75zM526 109q0 47 33.5 77.5t77.5 30.5q49 0 80 -32.5t31 -75.5q0 -45 -33 -78t-78 -33q-46 0 -78.5 34t-32.5 77zM526 756 q0 45 34 74.5t77 29.5q52 0 81.5 -31t29.5 -73q0 -46 -32.5 -78.5t-78.5 -32.5q-49 0 -80 33.5t-31 77.5zM526 1401q0 48 34 79t77 31q48 0 79.5 -33.5t31.5 -76.5q0 -45 -33 -77t-78 -32q-46 0 -78.5 33.5t-32.5 75.5zM629 1841q0 48 32 78.5t74 30.5q46 0 78.5 -32.5 t32.5 -76.5q0 -46 -33.5 -77t-77.5 -31q-45 0 -75.5 32.5t-30.5 75.5zM745 109q0 46 33 77t74 31q48 0 79.5 -32.5t31.5 -75.5q0 -46 -33.5 -78.5t-77.5 -32.5t-75.5 34t-31.5 77zM745 756q0 44 32 74t75 30q50 0 80.5 -31t30.5 -73q0 -47 -33 -79t-78 -32q-47 0 -77 33.5 t-30 77.5zM745 1401q0 48 32.5 79t74.5 31q46 0 78.5 -33t32.5 -77q0 -46 -33.5 -77.5t-77.5 -31.5q-45 0 -76 33.5t-31 75.5zM844 1626q0 46 32 77.5t76 31.5q49 0 80 -33.5t31 -75.5q0 -45 -33.5 -76.5t-77.5 -31.5q-45 0 -76.5 33t-31.5 75zM961 109q0 46 32 77t76 31 q48 0 79.5 -32.5t31.5 -75.5q0 -45 -34 -78t-77 -33q-45 0 -76.5 34t-31.5 77zM961 1401q0 48 32 79t76 31q46 0 78.5 -33.5t32.5 -76.5q0 -45 -33.5 -77t-77.5 -32q-45 0 -76.5 33.5t-31.5 75.5zM1176 109q0 49 33 78.5t75 29.5q46 0 76.5 -32.5t30.5 -75.5 q0 -48 -32 -79.5t-75 -31.5q-45 0 -76.5 33.5t-31.5 77.5zM1176 1401q0 50 33 80t75 30q45 0 76 -33t31 -77q0 -46 -32.5 -77.5t-74.5 -31.5q-45 0 -76.5 32.5t-31.5 76.5z" />
<glyph unicode="&#xcb;" d="M98 109q0 48 33 78t76 30q47 0 76.5 -32.5t29.5 -75.5q0 -48 -31 -79.5t-75 -31.5q-45 0 -77 33.5t-32 77.5zM98 324q0 50 34 81t75 31q46 0 76 -34t30 -78q0 -46 -31.5 -77.5t-74.5 -31.5q-45 0 -77 33.5t-32 75.5zM98 539q0 49 33 77.5t76 28.5q49 0 77.5 -30.5 t28.5 -75.5q0 -46 -31 -76.5t-75 -30.5q-48 0 -78.5 32.5t-30.5 74.5zM98 756q0 47 33 75.5t76 28.5q50 0 78 -30.5t28 -73.5q0 -48 -31 -79.5t-75 -31.5q-48 0 -78.5 34t-30.5 77zM98 971q0 51 33 79.5t76 28.5q49 0 77.5 -32t28.5 -76q0 -47 -31.5 -78t-74.5 -31 q-49 0 -79 33.5t-30 75.5zM98 1186q0 48 33 78t76 30q49 0 77.5 -32t28.5 -76q0 -48 -31 -78.5t-75 -30.5q-45 0 -77 33t-32 76zM98 1401q0 49 33.5 79.5t75.5 30.5q46 0 76 -33t30 -77q0 -47 -31.5 -78t-74.5 -31q-45 0 -77 33t-32 76zM299 1845q0 49 34.5 80t76.5 31 q48 0 79 -34t31 -77q0 -45 -32.5 -76.5t-77.5 -31.5q-46 0 -78.5 33t-32.5 75zM311 109q0 46 33.5 77t77.5 31q46 0 76 -32.5t30 -75.5q0 -45 -32 -78t-74 -33q-46 0 -78.5 34t-32.5 77zM311 756q0 44 33.5 74t77.5 30q48 0 77 -31.5t29 -72.5q0 -46 -31.5 -78.5 t-74.5 -32.5q-49 0 -80 33.5t-31 77.5zM311 1401q0 48 33.5 79t77.5 31t75 -33.5t31 -76.5q0 -45 -32 -77t-74 -32q-46 0 -78.5 33.5t-32.5 75.5zM526 109q0 47 33.5 77.5t77.5 30.5q49 0 80 -32.5t31 -75.5q0 -45 -33 -78t-78 -33q-46 0 -78.5 34t-32.5 77zM526 756 q0 45 34 74.5t77 29.5q52 0 81.5 -31t29.5 -73q0 -46 -32.5 -78.5t-78.5 -32.5q-49 0 -80 33.5t-31 77.5zM526 1401q0 48 34 79t77 31q48 0 79.5 -33.5t31.5 -76.5q0 -45 -33 -77t-78 -32q-46 0 -78.5 33.5t-32.5 75.5zM745 109q0 46 33 77t74 31q48 0 79.5 -32.5 t31.5 -75.5q0 -46 -33.5 -78.5t-77.5 -32.5t-75.5 34t-31.5 77zM745 756q0 44 32 74t75 30q50 0 80.5 -31t30.5 -73q0 -47 -33 -79t-78 -32q-47 0 -77 33.5t-30 77.5zM745 1401q0 48 32.5 79t74.5 31q46 0 78.5 -33t32.5 -77q0 -46 -33.5 -77.5t-77.5 -31.5q-45 0 -76 33.5 t-31 75.5zM961 109q0 46 32 77t76 31q48 0 79.5 -32.5t31.5 -75.5q0 -45 -34 -78t-77 -33q-45 0 -76.5 34t-31.5 77zM961 1401q0 48 32 79t76 31q46 0 78.5 -33.5t32.5 -76.5q0 -45 -33.5 -77t-77.5 -32q-45 0 -76.5 33.5t-31.5 75.5zM961 1845q0 48 32 79.5t76 31.5 q46 0 78.5 -34t32.5 -77q0 -45 -33.5 -76.5t-77.5 -31.5q-45 0 -76.5 33t-31.5 75zM1176 109q0 49 33 78.5t75 29.5q46 0 76.5 -32.5t30.5 -75.5q0 -48 -32 -79.5t-75 -31.5q-45 0 -76.5 33.5t-31.5 77.5zM1176 1401q0 50 33 80t75 30q45 0 76 -33t31 -77q0 -46 -32.5 -77.5 t-74.5 -31.5q-45 0 -76.5 32.5t-31.5 76.5z" />
<glyph unicode="&#xcc;" d="M403 1847q0 46 34 78.5t75 32.5q49 0 81 -34.5t32 -76.5q0 -43 -34.5 -75.5t-78.5 -32.5q-45 0 -77 33t-32 75zM410 109q0 48 32 78t76 30q50 0 80.5 -32t30.5 -76q0 -46 -32.5 -78.5t-78.5 -32.5t-77 34t-31 77zM410 1401q0 49 32.5 79.5t75.5 30.5q49 0 80 -33.5 t31 -76.5q0 -46 -32.5 -77.5t-78.5 -31.5t-77 33t-31 76zM621 1632q0 52 31.5 80.5t74.5 28.5q48 0 77.5 -32t29.5 -77q0 -46 -31.5 -76t-75.5 -30q-49 0 -77.5 31.5t-28.5 74.5zM627 109q0 46 32.5 77t75.5 31q46 0 77.5 -32.5t31.5 -75.5q0 -46 -33.5 -78.5t-75.5 -32.5 q-46 0 -77 34t-31 77zM627 324q0 48 32.5 80t75.5 32q45 0 77 -34t32 -78q0 -45 -33.5 -77t-75.5 -32q-46 0 -77 33.5t-31 75.5zM627 539q0 47 32.5 76.5t75.5 29.5q48 0 78.5 -31t30.5 -75q0 -45 -32.5 -76t-76.5 -31q-49 0 -78.5 32.5t-29.5 74.5zM627 756q0 45 32 74.5 t76 29.5q49 0 79 -31t30 -73q0 -46 -32.5 -78.5t-76.5 -32.5q-49 0 -78.5 33.5t-29.5 77.5zM627 971q0 48 32.5 78t75.5 30q48 0 78.5 -32.5t30.5 -75.5q0 -45 -33 -77t-76 -32q-49 0 -78.5 33.5t-29.5 75.5zM627 1186q0 46 32.5 77t75.5 31q48 0 78.5 -32.5t30.5 -75.5 q0 -46 -33 -77.5t-76 -31.5q-46 0 -77 33t-31 76zM627 1401q0 48 32.5 79t75.5 31q45 0 77 -33t32 -77q0 -46 -33 -77.5t-76 -31.5q-46 0 -77 33t-31 76zM842 109q0 46 32.5 77t75.5 31q46 0 78.5 -33t32.5 -75q0 -45 -33 -78t-78 -33q-46 0 -77 34t-31 77zM842 1401 q0 48 32.5 79t75.5 31q45 0 78 -34t33 -76q0 -45 -33 -77t-78 -32q-46 0 -77 33t-31 76z" />
<glyph unicode="&#xcd;" d="M410 109q0 48 32 78t76 30q50 0 80.5 -32t30.5 -76q0 -46 -32.5 -78.5t-78.5 -32.5t-77 34t-31 77zM410 1401q0 49 32.5 79.5t75.5 30.5q49 0 80 -33.5t31 -76.5q0 -46 -32.5 -77.5t-78.5 -31.5t-77 33t-31 76zM621 1620q0 49 33 79t77 30q46 0 75.5 -33t29.5 -76 q0 -49 -31.5 -79t-73.5 -30q-46 0 -78 32.5t-32 76.5zM627 109q0 46 32.5 77t75.5 31q46 0 77.5 -32.5t31.5 -75.5q0 -46 -33.5 -78.5t-75.5 -32.5q-46 0 -77 34t-31 77zM627 324q0 48 32.5 80t75.5 32q45 0 77 -34t32 -78q0 -45 -33.5 -77t-75.5 -32q-46 0 -77 33.5 t-31 75.5zM627 539q0 47 32.5 76.5t75.5 29.5q48 0 78.5 -31t30.5 -75q0 -45 -32.5 -76t-76.5 -31q-49 0 -78.5 32.5t-29.5 74.5zM627 756q0 45 32 74.5t76 29.5q49 0 79 -31t30 -73q0 -46 -32.5 -78.5t-76.5 -32.5q-49 0 -78.5 33.5t-29.5 77.5zM627 971q0 48 32.5 78 t75.5 30q48 0 78.5 -32.5t30.5 -75.5q0 -45 -33 -77t-76 -32q-49 0 -78.5 33.5t-29.5 75.5zM627 1186q0 46 32.5 77t75.5 31q48 0 78.5 -32.5t30.5 -75.5q0 -46 -33 -77.5t-76 -31.5q-46 0 -77 33t-31 76zM627 1401q0 48 32.5 79t75.5 31q45 0 77 -33t32 -77 q0 -46 -33 -77.5t-76 -31.5q-46 0 -77 33t-31 76zM838 1835q0 51 33 82t75 31q46 0 77.5 -34.5t31.5 -78.5q0 -46 -33 -77.5t-76 -31.5q-45 0 -76.5 33.5t-31.5 75.5zM842 109q0 46 32.5 77t75.5 31q46 0 78.5 -33t32.5 -75q0 -45 -33 -78t-78 -33q-46 0 -77 34t-31 77z M842 1401q0 48 32.5 79t75.5 31q45 0 78 -34t33 -76q0 -45 -33 -77t-78 -32q-46 0 -77 33t-31 76z" />
<glyph unicode="&#xce;" d="M406 1622q0 48 33.5 78.5t76.5 30.5q50 0 80.5 -33t30.5 -76q0 -45 -33 -77t-78 -32q-46 0 -78 33t-32 76zM410 109q0 48 32 78t76 30q50 0 80.5 -32t30.5 -76q0 -46 -32.5 -78.5t-78.5 -32.5t-77 34t-31 77zM410 1401q0 49 32.5 79.5t75.5 30.5q49 0 80 -33.5t31 -76.5 q0 -46 -32.5 -77.5t-78.5 -31.5t-77 33t-31 76zM625 1837q0 48 32 78.5t74 30.5q46 0 78.5 -32.5t32.5 -76.5q0 -46 -33.5 -77t-77.5 -31q-45 0 -75.5 32.5t-30.5 75.5zM627 109q0 46 32.5 77t75.5 31q46 0 77.5 -32.5t31.5 -75.5q0 -46 -33.5 -78.5t-75.5 -32.5 q-46 0 -77 34t-31 77zM627 324q0 48 32.5 80t75.5 32q45 0 77 -34t32 -78q0 -45 -33.5 -77t-75.5 -32q-46 0 -77 33.5t-31 75.5zM627 539q0 47 32.5 76.5t75.5 29.5q48 0 78.5 -31t30.5 -75q0 -45 -32.5 -76t-76.5 -31q-49 0 -78.5 32.5t-29.5 74.5zM627 756q0 45 32 74.5 t76 29.5q49 0 79 -31t30 -73q0 -46 -32.5 -78.5t-76.5 -32.5q-49 0 -78.5 33.5t-29.5 77.5zM627 971q0 48 32.5 78t75.5 30q48 0 78.5 -32.5t30.5 -75.5q0 -45 -33 -77t-76 -32q-49 0 -78.5 33.5t-29.5 75.5zM627 1186q0 46 32.5 77t75.5 31q48 0 78.5 -32.5t30.5 -75.5 q0 -46 -33 -77.5t-76 -31.5q-46 0 -77 33t-31 76zM627 1401q0 48 32.5 79t75.5 31q45 0 77 -33t32 -77q0 -46 -33 -77.5t-76 -31.5q-46 0 -77 33t-31 76zM840 1622q0 46 32 77.5t76 31.5q49 0 80 -33.5t31 -75.5q0 -45 -33.5 -77t-77.5 -32q-45 0 -76.5 33.5t-31.5 75.5z M842 109q0 46 32.5 77t75.5 31q46 0 78.5 -33t32.5 -75q0 -45 -33 -78t-78 -33q-46 0 -77 34t-31 77zM842 1401q0 48 32.5 79t75.5 31q45 0 78 -34t33 -76q0 -45 -33 -77t-78 -32q-46 0 -77 33t-31 76z" />
<glyph unicode="&#xcf;" d="M317 1841q0 49 34.5 80t76.5 31q48 0 79.5 -34t31.5 -77q0 -45 -33 -76.5t-78 -31.5q-46 0 -78.5 33t-32.5 75zM410 109q0 48 32 78t76 30q50 0 80.5 -32t30.5 -76q0 -46 -32.5 -78.5t-78.5 -32.5t-77 34t-31 77zM410 1401q0 49 32.5 79.5t75.5 30.5q49 0 80 -33.5 t31 -76.5q0 -46 -32.5 -77.5t-78.5 -31.5t-77 33t-31 76zM627 109q0 46 32.5 77t75.5 31q46 0 77.5 -32.5t31.5 -75.5q0 -46 -33.5 -78.5t-75.5 -32.5q-46 0 -77 34t-31 77zM627 324q0 48 32.5 80t75.5 32q45 0 77 -34t32 -78q0 -45 -33.5 -77t-75.5 -32q-46 0 -77 33.5 t-31 75.5zM627 539q0 47 32.5 76.5t75.5 29.5q48 0 78.5 -31t30.5 -75q0 -45 -32.5 -76t-76.5 -31q-49 0 -78.5 32.5t-29.5 74.5zM627 756q0 45 32 74.5t76 29.5q49 0 79 -31t30 -73q0 -46 -32.5 -78.5t-76.5 -32.5q-49 0 -78.5 33.5t-29.5 77.5zM627 971q0 48 32.5 78 t75.5 30q48 0 78.5 -32.5t30.5 -75.5q0 -45 -33 -77t-76 -32q-49 0 -78.5 33.5t-29.5 75.5zM627 1186q0 46 32.5 77t75.5 31q48 0 78.5 -32.5t30.5 -75.5q0 -46 -33 -77.5t-76 -31.5q-46 0 -77 33t-31 76zM627 1401q0 48 32.5 79t75.5 31q45 0 77 -33t32 -77 q0 -46 -33 -77.5t-76 -31.5q-46 0 -77 33t-31 76zM842 109q0 46 32.5 77t75.5 31q46 0 78.5 -33t32.5 -75q0 -45 -33 -78t-78 -33q-46 0 -77 34t-31 77zM842 1401q0 48 32.5 79t75.5 31q45 0 78 -34t33 -76q0 -45 -33 -77t-78 -32q-46 0 -77 33t-31 76zM979 1841 q0 48 32 79.5t76 31.5q46 0 78.5 -34t32.5 -77q0 -45 -33.5 -76.5t-77.5 -31.5q-45 0 -76.5 33t-31.5 75z" />
<glyph unicode="&#xd1;" d="M94 756q0 47 33 75.5t76 28.5q50 0 78 -30.5t28 -73.5q0 -48 -31 -79.5t-75 -31.5q-48 0 -78.5 34t-30.5 77zM98 109q0 48 33 78t76 30q47 0 76.5 -32.5t29.5 -75.5q0 -48 -31 -79.5t-75 -31.5q-45 0 -77 33.5t-32 77.5zM98 324q0 50 34 81t75 31q46 0 76 -34t30 -78 q0 -46 -31.5 -77.5t-74.5 -31.5q-45 0 -77 33.5t-32 75.5zM98 539q0 49 33 77.5t76 28.5q49 0 77.5 -30.5t28.5 -75.5q0 -46 -31 -76.5t-75 -30.5q-48 0 -78.5 32.5t-30.5 74.5zM98 971q0 51 33 79.5t76 28.5q49 0 77.5 -32t28.5 -76q0 -47 -31.5 -78t-74.5 -31 q-49 0 -79 33.5t-30 75.5zM98 1186q0 48 33 78t76 30q49 0 77.5 -32t28.5 -76q0 -48 -31 -78.5t-75 -30.5q-45 0 -77 33t-32 76zM98 1401q0 49 33.5 79.5t75.5 30.5q46 0 76 -33t30 -77q0 -47 -31.5 -78t-74.5 -31q-45 0 -77 33t-32 76zM311 1186q0 46 33.5 77t77.5 31 q47 0 76.5 -33t29.5 -75q0 -45 -32 -77t-74 -32q-46 0 -78.5 33.5t-32.5 75.5zM416 1620q0 46 33 77.5t77 31.5q47 0 77 -33.5t30 -75.5q0 -45 -32.5 -77t-74.5 -32q-46 0 -78 33t-32 76zM526 971q0 49 33.5 78.5t77.5 29.5q50 0 80.5 -32t30.5 -76t-32.5 -76.5t-78.5 -32.5 q-50 0 -80.5 34t-30.5 75zM631 1835q0 49 34 80t76 31q48 0 79.5 -34t31.5 -77q0 -45 -33 -77t-78 -32q-46 0 -78 33t-32 76zM745 756q0 44 32 74t75 30q50 0 80.5 -31t30.5 -73q0 -47 -33 -79t-78 -32q-47 0 -77 33.5t-30 77.5zM850 1620q0 46 32.5 77.5t73.5 31.5 q49 0 80 -33t31 -76q0 -46 -33.5 -77.5t-77.5 -31.5t-75 33t-31 76zM961 539q0 48 31.5 77t76.5 29q49 0 80 -31.5t31 -74.5q0 -44 -33 -75.5t-78 -31.5q-47 0 -77.5 32.5t-30.5 74.5zM1065 1835q0 48 32.5 79.5t76.5 31.5q46 0 78 -34t32 -77q0 -45 -33 -77t-77 -32 q-45 0 -77 33.5t-32 75.5zM1176 109q0 49 33 78.5t75 29.5q46 0 76.5 -32.5t30.5 -75.5q0 -48 -32 -79.5t-75 -31.5q-45 0 -76.5 33.5t-31.5 77.5zM1176 324q0 50 33.5 81t74.5 31q45 0 76 -34t31 -78q0 -46 -32.5 -77.5t-74.5 -31.5q-45 0 -76.5 33.5t-31.5 75.5zM1176 539 q0 50 32.5 78t75.5 28q48 0 77.5 -31t29.5 -75q0 -46 -32 -76.5t-75 -30.5q-47 0 -77.5 32.5t-30.5 74.5zM1176 756q0 47 32.5 75.5t75.5 28.5q49 0 78 -31t29 -73q0 -48 -32 -79.5t-75 -31.5q-47 0 -77.5 33.5t-30.5 77.5zM1176 971q0 51 32.5 79.5t75.5 28.5 q48 0 77.5 -32.5t29.5 -75.5q0 -46 -32.5 -77.5t-74.5 -31.5q-48 0 -78 33t-30 76zM1176 1186q0 49 33 78.5t75 29.5q48 0 77.5 -32.5t29.5 -75.5q0 -48 -32 -78.5t-75 -30.5q-45 0 -76.5 32.5t-31.5 76.5zM1176 1401q0 50 33 80t75 30q45 0 76 -33t31 -77 q0 -46 -32.5 -77.5t-74.5 -31.5q-45 0 -76.5 32.5t-31.5 76.5z" />
<glyph unicode="&#xd2;" d="M98 330q0 50 34 81t75 31q46 0 76 -34t30 -78q0 -46 -31.5 -77.5t-74.5 -31.5q-45 0 -77 33.5t-32 75.5zM98 545q0 48 33 77t76 29q49 0 77.5 -30.5t28.5 -75.5q0 -46 -31 -76.5t-75 -30.5q-48 0 -78.5 32.5t-30.5 74.5zM98 762q0 47 33 75.5t76 28.5q50 0 78 -30.5 t28 -73.5q0 -48 -31 -79.5t-75 -31.5q-48 0 -78.5 34t-30.5 77zM98 971q0 51 33 79.5t76 28.5q49 0 77.5 -32t28.5 -76q0 -47 -31.5 -78t-74.5 -31q-49 0 -79 33.5t-30 75.5zM98 1186q0 48 33 78t76 30q49 0 77.5 -32t28.5 -76q0 -48 -31 -78.5t-75 -30.5q-45 0 -77 33 t-32 76zM311 109q0 46 33.5 77t77.5 31q46 0 76 -32.5t30 -75.5q0 -45 -32 -78t-74 -33q-46 0 -78.5 34t-32.5 77zM311 1401q0 48 33.5 79t77.5 31t75 -33.5t31 -76.5q0 -45 -32 -77t-74 -32q-46 0 -78.5 33.5t-32.5 75.5zM526 109q0 47 33.5 77.5t77.5 30.5q49 0 80 -32.5 t31 -75.5q0 -45 -33 -78t-78 -33q-46 0 -78.5 34t-32.5 77zM526 1401q0 48 34 79t77 31q48 0 79.5 -33.5t31.5 -76.5q0 -45 -33 -77t-78 -32q-46 0 -78.5 33.5t-32.5 75.5zM526 1835q0 46 34 78.5t75 32.5q49 0 81 -34.5t32 -76.5q0 -44 -35 -76.5t-78 -32.5q-45 0 -77 33.5 t-32 75.5zM743 1620q0 52 32 80.5t75 28.5q48 0 77 -32t29 -77q0 -46 -31 -76.5t-75 -30.5q-49 0 -78 32.5t-29 74.5zM745 109q0 46 33 77t74 31q48 0 79.5 -32.5t31.5 -75.5q0 -46 -33.5 -78.5t-77.5 -32.5t-75.5 34t-31.5 77zM745 1401q0 48 32.5 79t74.5 31 q46 0 78.5 -33t32.5 -77q0 -46 -33.5 -77.5t-77.5 -31.5q-45 0 -76 33.5t-31 75.5zM961 109q0 46 32 77t76 31q48 0 79.5 -32.5t31.5 -75.5q0 -45 -34 -78t-77 -33q-45 0 -76.5 34t-31.5 77zM961 1401q0 48 32 79t76 31q46 0 78.5 -33.5t32.5 -76.5q0 -45 -33.5 -77 t-77.5 -32q-45 0 -76.5 33.5t-31.5 75.5zM1176 330q0 50 33.5 81t74.5 31q45 0 76 -34t31 -78q0 -46 -32.5 -77.5t-74.5 -31.5q-45 0 -76.5 33.5t-31.5 75.5zM1176 545q0 48 32.5 77t75.5 29q48 0 77.5 -31t29.5 -75q0 -46 -32 -76.5t-75 -30.5q-47 0 -77.5 32.5t-30.5 74.5 zM1176 762q0 47 32.5 75.5t75.5 28.5q49 0 78 -31t29 -73q0 -48 -32 -79.5t-75 -31.5q-47 0 -77.5 33.5t-30.5 77.5zM1176 971q0 51 32.5 79.5t75.5 28.5q48 0 77.5 -32.5t29.5 -75.5q0 -46 -32.5 -77.5t-74.5 -31.5q-48 0 -78 33t-30 76zM1176 1186q0 49 33 78.5t75 29.5 q48 0 77.5 -32.5t29.5 -75.5q0 -48 -32 -78.5t-75 -30.5q-45 0 -76.5 32.5t-31.5 76.5z" />
<glyph unicode="&#xd3;" d="M98 330q0 50 34 81t75 31q46 0 76 -34t30 -78q0 -46 -31.5 -77.5t-74.5 -31.5q-45 0 -77 33.5t-32 75.5zM98 545q0 48 33 77t76 29q49 0 77.5 -30.5t28.5 -75.5q0 -46 -31 -76.5t-75 -30.5q-48 0 -78.5 32.5t-30.5 74.5zM98 762q0 47 33 75.5t76 28.5q50 0 78 -30.5 t28 -73.5q0 -48 -31 -79.5t-75 -31.5q-48 0 -78.5 34t-30.5 77zM98 971q0 51 33 79.5t76 28.5q49 0 77.5 -32t28.5 -76q0 -47 -31.5 -78t-74.5 -31q-49 0 -79 33.5t-30 75.5zM98 1186q0 48 33 78t76 30q49 0 77.5 -32t28.5 -76q0 -48 -31 -78.5t-75 -30.5q-45 0 -77 33 t-32 76zM311 109q0 46 33.5 77t77.5 31q46 0 76 -32.5t30 -75.5q0 -45 -32 -78t-74 -33q-46 0 -78.5 34t-32.5 77zM311 1401q0 48 33.5 79t77.5 31t75 -33.5t31 -76.5q0 -45 -32 -77t-74 -32q-46 0 -78.5 33.5t-32.5 75.5zM526 109q0 47 33.5 77.5t77.5 30.5q49 0 80 -32.5 t31 -75.5q0 -45 -33 -78t-78 -33q-46 0 -78.5 34t-32.5 77zM526 1401q0 48 34 79t77 31q48 0 79.5 -33.5t31.5 -76.5q0 -45 -33 -77t-78 -32q-46 0 -78.5 33.5t-32.5 75.5zM530 1634q0 49 33.5 79t77.5 30q45 0 74.5 -33t29.5 -76q0 -49 -31 -78.5t-73 -29.5q-47 0 -79 32 t-32 76zM745 109q0 46 33 77t74 31q48 0 79.5 -32.5t31.5 -75.5q0 -46 -33.5 -78.5t-77.5 -32.5t-75.5 34t-31.5 77zM745 1401q0 48 32.5 79t74.5 31q46 0 78.5 -33t32.5 -77q0 -46 -33.5 -77.5t-77.5 -31.5q-45 0 -76 33.5t-31 75.5zM748 1849q0 51 33 82t75 31 q46 0 77.5 -34.5t31.5 -78.5q0 -46 -33 -77t-76 -31q-45 0 -76.5 33t-31.5 75zM961 109q0 46 32 77t76 31q48 0 79.5 -32.5t31.5 -75.5q0 -45 -34 -78t-77 -33q-45 0 -76.5 34t-31.5 77zM961 1401q0 48 32 79t76 31q46 0 78.5 -33.5t32.5 -76.5q0 -45 -33.5 -77t-77.5 -32 q-45 0 -76.5 33.5t-31.5 75.5zM1176 330q0 50 33.5 81t74.5 31q45 0 76 -34t31 -78q0 -46 -32.5 -77.5t-74.5 -31.5q-45 0 -76.5 33.5t-31.5 75.5zM1176 545q0 48 32.5 77t75.5 29q48 0 77.5 -31t29.5 -75q0 -46 -32 -76.5t-75 -30.5q-47 0 -77.5 32.5t-30.5 74.5zM1176 762 q0 47 32.5 75.5t75.5 28.5q49 0 78 -31t29 -73q0 -48 -32 -79.5t-75 -31.5q-47 0 -77.5 33.5t-30.5 77.5zM1176 971q0 51 32.5 79.5t75.5 28.5q48 0 77.5 -32.5t29.5 -75.5q0 -46 -32.5 -77.5t-74.5 -31.5q-48 0 -78 33t-30 76zM1176 1186q0 49 33 78.5t75 29.5 q48 0 77.5 -32.5t29.5 -75.5q0 -48 -32 -78.5t-75 -30.5q-45 0 -76.5 32.5t-31.5 76.5z" />
<glyph unicode="&#xd4;" d="M98 330q0 50 34 81t75 31q46 0 76 -34t30 -78q0 -46 -31.5 -77.5t-74.5 -31.5q-45 0 -77 33.5t-32 75.5zM98 545q0 48 33 77t76 29q49 0 77.5 -30.5t28.5 -75.5q0 -46 -31 -76.5t-75 -30.5q-48 0 -78.5 32.5t-30.5 74.5zM98 762q0 47 33 75.5t76 28.5q50 0 78 -30.5 t28 -73.5q0 -48 -31 -79.5t-75 -31.5q-48 0 -78.5 34t-30.5 77zM98 971q0 51 33 79.5t76 28.5q49 0 77.5 -32t28.5 -76q0 -47 -31.5 -78t-74.5 -31q-49 0 -79 33.5t-30 75.5zM98 1186q0 48 33 78t76 30q49 0 77.5 -32t28.5 -76q0 -48 -31 -78.5t-75 -30.5q-45 0 -77 33 t-32 76zM311 109q0 46 33.5 77t77.5 31q46 0 76 -32.5t30 -75.5q0 -45 -32 -78t-74 -33q-46 0 -78.5 34t-32.5 77zM311 1401q0 48 33.5 79t77.5 31t75 -33.5t31 -76.5q0 -45 -32 -77t-74 -32q-46 0 -78.5 33.5t-32.5 75.5zM418 1626q0 48 33.5 78.5t76.5 30.5q50 0 80.5 -33 t30.5 -76q0 -45 -33 -76.5t-78 -31.5q-46 0 -78 33t-32 75zM526 109q0 47 33.5 77.5t77.5 30.5q49 0 80 -32.5t31 -75.5q0 -45 -33 -78t-78 -33q-46 0 -78.5 34t-32.5 77zM526 1401q0 48 34 79t77 31q48 0 79.5 -33.5t31.5 -76.5q0 -45 -33 -77t-78 -32q-46 0 -78.5 33.5 t-32.5 75.5zM637 1841q0 48 32 78.5t74 30.5q46 0 78.5 -32.5t32.5 -76.5q0 -46 -33.5 -77t-77.5 -31q-45 0 -75.5 32.5t-30.5 75.5zM745 109q0 46 33 77t74 31q48 0 79.5 -32.5t31.5 -75.5q0 -46 -33.5 -78.5t-77.5 -32.5t-75.5 34t-31.5 77zM745 1401q0 48 32.5 79 t74.5 31q46 0 78.5 -33t32.5 -77q0 -46 -33.5 -77.5t-77.5 -31.5q-45 0 -76 33.5t-31 75.5zM852 1626q0 46 32.5 77.5t76.5 31.5q49 0 79.5 -33.5t30.5 -75.5q0 -45 -33 -76.5t-77 -31.5q-45 0 -77 33t-32 75zM961 109q0 46 32 77t76 31q48 0 79.5 -32.5t31.5 -75.5 q0 -45 -34 -78t-77 -33q-45 0 -76.5 34t-31.5 77zM961 1401q0 48 32 79t76 31q46 0 78.5 -33.5t32.5 -76.5q0 -45 -33.5 -77t-77.5 -32q-45 0 -76.5 33.5t-31.5 75.5zM1176 330q0 50 33.5 81t74.5 31q45 0 76 -34t31 -78q0 -46 -32.5 -77.5t-74.5 -31.5q-45 0 -76.5 33.5 t-31.5 75.5zM1176 545q0 48 32.5 77t75.5 29q48 0 77.5 -31t29.5 -75q0 -46 -32 -76.5t-75 -30.5q-47 0 -77.5 32.5t-30.5 74.5zM1176 762q0 47 32.5 75.5t75.5 28.5q49 0 78 -31t29 -73q0 -48 -32 -79.5t-75 -31.5q-47 0 -77.5 33.5t-30.5 77.5zM1176 971q0 51 32.5 79.5 t75.5 28.5q48 0 77.5 -32.5t29.5 -75.5q0 -46 -32.5 -77.5t-74.5 -31.5q-48 0 -78 33t-30 76zM1176 1186q0 49 33 78.5t75 29.5q48 0 77.5 -32.5t29.5 -75.5q0 -48 -32 -78.5t-75 -30.5q-45 0 -76.5 32.5t-31.5 76.5z" />
<glyph unicode="&#xd5;" d="M98 330q0 50 34 81t75 31q46 0 76 -34t30 -78q0 -46 -31.5 -77.5t-74.5 -31.5q-45 0 -77 33.5t-32 75.5zM98 545q0 48 33 77t76 29q49 0 77.5 -30.5t28.5 -75.5q0 -46 -31 -76.5t-75 -30.5q-48 0 -78.5 32.5t-30.5 74.5zM98 762q0 47 33 75.5t76 28.5q50 0 78 -30.5 t28 -73.5q0 -48 -31 -79.5t-75 -31.5q-48 0 -78.5 34t-30.5 77zM98 971q0 51 33 79.5t76 28.5q49 0 77.5 -32t28.5 -76q0 -47 -31.5 -78t-74.5 -31q-49 0 -79 33.5t-30 75.5zM98 1186q0 48 33 78t76 30q49 0 77.5 -32t28.5 -76q0 -48 -31 -78.5t-75 -30.5q-45 0 -77 33 t-32 76zM311 109q0 46 33.5 77t77.5 31q46 0 76 -32.5t30 -75.5q0 -45 -32 -78t-74 -33q-46 0 -78.5 34t-32.5 77zM311 1401q0 48 33.5 79t77.5 31t75 -33.5t31 -76.5q0 -45 -32 -77t-74 -32q-46 0 -78.5 33.5t-32.5 75.5zM322 1626q0 46 33 77.5t77 31.5q47 0 77 -33.5 t30 -75.5q0 -45 -32.5 -76.5t-74.5 -31.5q-46 0 -78 33t-32 75zM526 109q0 47 33.5 77.5t77.5 30.5q49 0 80 -32.5t31 -75.5q0 -45 -33 -78t-78 -33q-46 0 -78.5 34t-32.5 77zM526 1401q0 48 34 79t77 31q48 0 79.5 -33.5t31.5 -76.5q0 -45 -33 -77t-78 -32 q-46 0 -78.5 33.5t-32.5 75.5zM537 1841q0 49 34 80t76 31q48 0 79.5 -34t31.5 -77q0 -45 -33 -76.5t-78 -31.5q-46 0 -78 33t-32 75zM745 109q0 46 33 77t74 31q48 0 79.5 -32.5t31.5 -75.5q0 -46 -33.5 -78.5t-77.5 -32.5t-75.5 34t-31.5 77zM745 1401q0 48 32.5 79 t74.5 31q46 0 78.5 -33t32.5 -77q0 -46 -33.5 -77.5t-77.5 -31.5q-45 0 -76 33.5t-31 75.5zM756 1626q0 46 32.5 77.5t73.5 31.5q49 0 80 -33t31 -76q0 -46 -33.5 -77t-77.5 -31q-45 0 -75.5 32.5t-30.5 75.5zM961 109q0 46 32 77t76 31q48 0 79.5 -32.5t31.5 -75.5 q0 -45 -34 -78t-77 -33q-45 0 -76.5 34t-31.5 77zM961 1401q0 48 32 79t76 31q46 0 78.5 -33.5t32.5 -76.5q0 -45 -33.5 -77t-77.5 -32q-45 0 -76.5 33.5t-31.5 75.5zM971 1841q0 48 32 79.5t76 31.5q46 0 78.5 -34t32.5 -77q0 -45 -33.5 -76.5t-77.5 -31.5q-45 0 -76.5 33 t-31.5 75zM1176 330q0 50 33.5 81t74.5 31q45 0 76 -34t31 -78q0 -46 -32.5 -77.5t-74.5 -31.5q-45 0 -76.5 33.5t-31.5 75.5zM1176 545q0 48 32.5 77t75.5 29q48 0 77.5 -31t29.5 -75q0 -46 -32 -76.5t-75 -30.5q-47 0 -77.5 32.5t-30.5 74.5zM1176 762q0 47 32.5 75.5 t75.5 28.5q49 0 78 -31t29 -73q0 -48 -32 -79.5t-75 -31.5q-47 0 -77.5 33.5t-30.5 77.5zM1176 971q0 51 32.5 79.5t75.5 28.5q48 0 77.5 -32.5t29.5 -75.5q0 -46 -32.5 -77.5t-74.5 -31.5q-48 0 -78 33t-30 76zM1176 1186q0 49 33 78.5t75 29.5q48 0 77.5 -32.5t29.5 -75.5 q0 -48 -32 -78.5t-75 -30.5q-45 0 -76.5 32.5t-31.5 76.5z" />
<glyph unicode="&#xd6;" d="M98 330q0 50 34 81t75 31q46 0 76 -34t30 -78q0 -46 -31.5 -77.5t-74.5 -31.5q-45 0 -77 33.5t-32 75.5zM98 545q0 48 33 77t76 29q49 0 77.5 -30.5t28.5 -75.5q0 -46 -31 -76.5t-75 -30.5q-48 0 -78.5 32.5t-30.5 74.5zM98 762q0 47 33 75.5t76 28.5q50 0 78 -30.5 t28 -73.5q0 -48 -31 -79.5t-75 -31.5q-48 0 -78.5 34t-30.5 77zM98 971q0 51 33 79.5t76 28.5q49 0 77.5 -32t28.5 -76q0 -47 -31.5 -78t-74.5 -31q-49 0 -79 33.5t-30 75.5zM98 1186q0 48 33 78t76 30q49 0 77.5 -32t28.5 -76q0 -48 -31 -78.5t-75 -30.5q-45 0 -77 33 t-32 76zM301 1847q0 49 34.5 80t76.5 31q48 0 79 -34t31 -77q0 -45 -32.5 -76.5t-77.5 -31.5q-46 0 -78.5 33t-32.5 75zM311 109q0 46 33.5 77t77.5 31q46 0 76 -32.5t30 -75.5q0 -45 -32 -78t-74 -33q-46 0 -78.5 34t-32.5 77zM311 1401q0 48 33.5 79t77.5 31t75 -33.5 t31 -76.5q0 -45 -32 -77t-74 -32q-46 0 -78.5 33.5t-32.5 75.5zM526 109q0 47 33.5 77.5t77.5 30.5q49 0 80 -32.5t31 -75.5q0 -45 -33 -78t-78 -33q-46 0 -78.5 34t-32.5 77zM526 1401q0 48 34 79t77 31q48 0 79.5 -33.5t31.5 -76.5q0 -45 -33 -77t-78 -32 q-46 0 -78.5 33.5t-32.5 75.5zM745 109q0 46 33 77t74 31q48 0 79.5 -32.5t31.5 -75.5q0 -46 -33.5 -78.5t-77.5 -32.5t-75.5 34t-31.5 77zM745 1401q0 48 32.5 79t74.5 31q46 0 78.5 -33t32.5 -77q0 -46 -33.5 -77.5t-77.5 -31.5q-45 0 -76 33.5t-31 75.5zM961 109 q0 46 32 77t76 31q48 0 79.5 -32.5t31.5 -75.5q0 -45 -34 -78t-77 -33q-45 0 -76.5 34t-31.5 77zM961 1401q0 48 32 79t76 31q46 0 78.5 -33.5t32.5 -76.5q0 -45 -33.5 -77t-77.5 -32q-45 0 -76.5 33.5t-31.5 75.5zM963 1847q0 48 32 79.5t76 31.5q46 0 78.5 -34t32.5 -77 q0 -45 -33.5 -76.5t-77.5 -31.5q-45 0 -76.5 33t-31.5 75zM1176 330q0 50 33.5 81t74.5 31q45 0 76 -34t31 -78q0 -46 -32.5 -77.5t-74.5 -31.5q-45 0 -76.5 33.5t-31.5 75.5zM1176 545q0 48 32.5 77t75.5 29q48 0 77.5 -31t29.5 -75q0 -46 -32 -76.5t-75 -30.5 q-47 0 -77.5 32.5t-30.5 74.5zM1176 762q0 47 32.5 75.5t75.5 28.5q49 0 78 -31t29 -73q0 -48 -32 -79.5t-75 -31.5q-47 0 -77.5 33.5t-30.5 77.5zM1176 971q0 51 32.5 79.5t75.5 28.5q48 0 77.5 -32.5t29.5 -75.5q0 -46 -32.5 -77.5t-74.5 -31.5q-48 0 -78 33t-30 76z M1176 1186q0 49 33 78.5t75 29.5q48 0 77.5 -32.5t29.5 -75.5q0 -48 -32 -78.5t-75 -30.5q-45 0 -76.5 32.5t-31.5 76.5z" />
<glyph unicode="&#xd8;" d="M98 324q0 50 34 81t75 31q46 0 76 -34t30 -78q0 -46 -31.5 -77.5t-74.5 -31.5q-45 0 -77 33.5t-32 75.5zM98 539q0 49 33 77.5t76 28.5q49 0 77.5 -30.5t28.5 -75.5q0 -46 -31 -76.5t-75 -30.5q-48 0 -78.5 32.5t-30.5 74.5zM98 756q0 47 33 75.5t76 28.5q50 0 78 -30.5 t28 -73.5q0 -48 -31 -79.5t-75 -31.5q-48 0 -78.5 34t-30.5 77zM98 971q0 51 33 79.5t76 28.5q49 0 77.5 -32t28.5 -76q0 -47 -31.5 -78t-74.5 -31q-49 0 -79 33.5t-30 75.5zM98 1186q0 48 33 78t76 30q49 0 77.5 -32t28.5 -76q0 -48 -31 -78.5t-75 -30.5q-45 0 -77 33 t-32 76zM311 109q0 46 33.5 77t77.5 31q46 0 76 -32.5t30 -75.5q0 -45 -32 -78t-74 -33q-46 0 -78.5 34t-32.5 77zM311 539q0 48 33 77t78 29q48 0 77 -31.5t29 -74.5q0 -44 -31.5 -75.5t-74.5 -31.5q-49 0 -80 32.5t-31 74.5zM311 1401q0 48 33.5 79t77.5 31t75 -33.5 t31 -76.5q0 -45 -32 -77t-74 -32q-46 0 -78.5 33.5t-32.5 75.5zM526 109q0 47 33.5 77.5t77.5 30.5q49 0 80 -32.5t31 -75.5q0 -45 -33 -78t-78 -33q-46 0 -78.5 34t-32.5 77zM526 756q0 45 34 74.5t77 29.5q52 0 81.5 -31t29.5 -73q0 -46 -32.5 -78.5t-78.5 -32.5 q-49 0 -80 33.5t-31 77.5zM526 1401q0 48 34 79t77 31q48 0 79.5 -33.5t31.5 -76.5q0 -45 -33 -77t-78 -32q-46 0 -78.5 33.5t-32.5 75.5zM745 109q0 46 33 77t74 31q48 0 79.5 -32.5t31.5 -75.5q0 -46 -33.5 -78.5t-77.5 -32.5t-75.5 34t-31.5 77zM745 1401q0 48 32.5 79 t74.5 31q46 0 78.5 -33t32.5 -77q0 -46 -33.5 -77.5t-77.5 -31.5q-45 0 -76 33.5t-31 75.5zM764 971q0 48 32 78t74 30q49 0 81 -32.5t32 -75.5q0 -44 -33.5 -76.5t-79.5 -32.5q-48 0 -77 33.5t-29 75.5zM969 324q0 50 33 81t75 31q45 0 76 -34t31 -78q0 -46 -32.5 -77.5 t-74.5 -31.5q-46 0 -77 33t-31 76zM969 539q0 50 32 78t76 28q48 0 77.5 -31t29.5 -75q0 -46 -32 -76.5t-75 -30.5q-47 0 -77.5 32.5t-30.5 74.5zM969 756q0 47 32 75.5t76 28.5q49 0 78 -31t29 -73q0 -48 -32 -79.5t-75 -31.5q-47 0 -77.5 33.5t-30.5 77.5zM969 971 q0 51 32 79.5t76 28.5q48 0 77.5 -32.5t29.5 -75.5q0 -46 -32.5 -77.5t-74.5 -31.5q-47 0 -77.5 33.5t-30.5 75.5zM969 1188q0 49 31.5 78.5t76.5 29.5q49 0 80 -32t31 -76t-33 -75.5t-78 -31.5q-48 0 -78 33t-30 74zM1178 1401q0 49 32 78.5t76 29.5q49 0 80 -32t31 -76 t-33 -75.5t-78 -31.5q-49 0 -78.5 32.5t-29.5 74.5z" />
<glyph unicode="&#xd9;" d="M98 315q0 50 34 81.5t75 31.5q46 0 76 -34t30 -79q0 -46 -31 -77t-75 -31q-45 0 -77 33t-32 75zM98 530q0 50 33 79.5t76 29.5q49 0 77.5 -32t28.5 -77q0 -46 -31 -76t-75 -30q-48 0 -78.5 32t-30.5 74zM98 748q0 47 33 75.5t76 28.5q50 0 78 -30.5t28 -73.5 q0 -46 -31.5 -77.5t-74.5 -31.5q-48 0 -78.5 33t-30.5 76zM98 961q0 51 33 79.5t76 28.5q49 0 77.5 -32t28.5 -76q0 -47 -31.5 -78t-74.5 -31q-49 0 -79 33.5t-30 75.5zM98 1178q0 48 33 78t76 30q49 0 77.5 -32t28.5 -76q0 -48 -31 -78.5t-75 -30.5q-45 0 -77 33t-32 76z M98 1393q0 49 33.5 79.5t75.5 30.5q46 0 76 -33t30 -77q0 -47 -31.5 -78t-74.5 -31q-45 0 -77 33.5t-32 75.5zM311 100q0 46 33.5 77.5t77.5 31.5q46 0 76 -33t30 -76q0 -44 -32 -77t-74 -33q-46 0 -78.5 33.5t-32.5 76.5zM526 100q0 48 34 78.5t77 30.5q49 0 80 -33t31 -76 q0 -44 -33.5 -77t-77.5 -33q-46 0 -78.5 33.5t-32.5 76.5zM545 1841q0 46 33.5 77.5t74.5 31.5q49 0 81 -33t32 -76q0 -44 -34.5 -75t-78.5 -31q-45 0 -76.5 32t-31.5 74zM745 100q0 46 33 77.5t74 31.5q48 0 79.5 -33t31.5 -76q0 -45 -33.5 -77.5t-77.5 -32.5t-75.5 33.5 t-31.5 76.5zM762 1626q0 52 32 81.5t74 29.5q48 0 78.5 -33t30.5 -78t-32.5 -75.5t-76.5 -30.5q-47 0 -76.5 32t-29.5 74zM961 100q0 46 32 77.5t76 31.5q48 0 79.5 -33t31.5 -76q0 -44 -34 -77t-77 -33q-45 0 -76.5 34t-31.5 76zM1176 315q0 50 33.5 81.5t74.5 31.5 q45 0 76 -34.5t31 -78.5q0 -46 -32 -77t-75 -31q-45 0 -76.5 33t-31.5 75zM1176 530q0 50 32.5 79.5t75.5 29.5q48 0 77.5 -32t29.5 -77q0 -46 -32 -76t-75 -30q-48 0 -78 32t-30 74zM1176 748q0 47 32.5 75.5t75.5 28.5q49 0 78 -31t29 -73q0 -46 -32.5 -77.5t-74.5 -31.5 q-48 0 -78 33t-30 76zM1176 961q0 51 32.5 79.5t75.5 28.5q48 0 77.5 -32.5t29.5 -75.5q0 -46 -32.5 -77.5t-74.5 -31.5q-48 0 -78 33t-30 76zM1176 1178q0 49 33 78.5t75 29.5q48 0 77.5 -32.5t29.5 -75.5q0 -48 -32 -78.5t-75 -30.5q-45 0 -76.5 32.5t-31.5 76.5z M1176 1393q0 50 33 80t75 30q45 0 76 -33t31 -77q0 -46 -32.5 -77.5t-74.5 -31.5q-45 0 -76.5 33.5t-31.5 75.5z" />
<glyph unicode="&#xda;" d="M98 324q0 50 34 81t75 31q46 0 76 -34t30 -78q0 -46 -31.5 -77.5t-74.5 -31.5q-45 0 -77 33.5t-32 75.5zM98 539q0 49 33 77.5t76 28.5q49 0 77.5 -30.5t28.5 -75.5q0 -46 -31 -76.5t-75 -30.5q-48 0 -78.5 32.5t-30.5 74.5zM98 756q0 47 33 75.5t76 28.5q50 0 78 -30.5 t28 -73.5q0 -48 -31 -79.5t-75 -31.5q-48 0 -78.5 34t-30.5 77zM98 969q0 51 33 79.5t76 28.5q49 0 77.5 -32t28.5 -76q0 -47 -31.5 -78t-74.5 -31q-49 0 -79 33.5t-30 75.5zM98 1186q0 48 33 78t76 30q49 0 77.5 -32t28.5 -76q0 -48 -31 -78.5t-75 -30.5q-45 0 -77 33 t-32 76zM98 1401q0 49 33.5 79.5t75.5 30.5q46 0 76 -33t30 -77q0 -47 -31.5 -78t-74.5 -31q-45 0 -77 33t-32 76zM311 109q0 46 33.5 77t77.5 31q46 0 76 -32.5t30 -75.5q0 -45 -32 -78t-74 -33q-46 0 -78.5 34t-32.5 77zM508 1612q0 49 33 78.5t77 29.5q46 0 75.5 -32.5 t29.5 -75.5q0 -49 -31.5 -79t-73.5 -30q-46 0 -78 32.5t-32 76.5zM526 109q0 47 33.5 77.5t77.5 30.5q49 0 80 -32.5t31 -75.5q0 -45 -33 -78t-78 -33q-46 0 -78.5 34t-32.5 77zM725 1827q0 51 33.5 81.5t75.5 30.5q46 0 77 -34t31 -78q0 -46 -32.5 -77.5t-75.5 -31.5 q-45 0 -77 33.5t-32 75.5zM745 109q0 46 33 77t74 31q48 0 79.5 -32.5t31.5 -75.5q0 -46 -33.5 -78.5t-77.5 -32.5t-75.5 34t-31.5 77zM961 109q0 46 32 77t76 31q48 0 79.5 -32.5t31.5 -75.5q0 -45 -34 -78t-77 -33q-45 0 -76.5 34t-31.5 77zM1176 324q0 50 33.5 81 t74.5 31q45 0 76 -34t31 -78q0 -46 -32.5 -77.5t-74.5 -31.5q-45 0 -76.5 33.5t-31.5 75.5zM1176 539q0 50 32.5 78t75.5 28q48 0 77.5 -31t29.5 -75q0 -46 -32 -76.5t-75 -30.5q-47 0 -77.5 32.5t-30.5 74.5zM1176 756q0 47 32.5 75.5t75.5 28.5q49 0 78 -31t29 -73 q0 -48 -32 -79.5t-75 -31.5q-47 0 -77.5 33.5t-30.5 77.5zM1176 969q0 51 32.5 79.5t75.5 28.5q48 0 77.5 -32.5t29.5 -75.5q0 -46 -32.5 -77.5t-74.5 -31.5q-48 0 -78 33t-30 76zM1176 1186q0 49 33 78.5t75 29.5q48 0 77.5 -32.5t29.5 -75.5q0 -48 -32 -78.5t-75 -30.5 q-45 0 -76.5 32.5t-31.5 76.5zM1176 1401q0 50 33 80t75 30q45 0 76 -33t31 -77q0 -46 -32.5 -77.5t-74.5 -31.5q-45 0 -76.5 32.5t-31.5 76.5z" />
<glyph unicode="&#xdb;" d="M98 324q0 50 34 81t75 31q46 0 76 -34t30 -78q0 -46 -31.5 -77.5t-74.5 -31.5q-45 0 -77 33.5t-32 75.5zM98 539q0 49 33 77.5t76 28.5q49 0 77.5 -30.5t28.5 -75.5q0 -46 -31 -76.5t-75 -30.5q-48 0 -78.5 32.5t-30.5 74.5zM98 756q0 47 33 75.5t76 28.5q50 0 78 -30.5 t28 -73.5q0 -48 -31 -79.5t-75 -31.5q-48 0 -78.5 34t-30.5 77zM98 969q0 51 33 79.5t76 28.5q49 0 77.5 -32t28.5 -76q0 -47 -31.5 -78t-74.5 -31q-49 0 -79 33.5t-30 75.5zM98 1186q0 48 33 78t76 30q49 0 77.5 -32t28.5 -76q0 -48 -31 -78.5t-75 -30.5q-45 0 -77 33 t-32 76zM98 1401q0 49 33.5 79.5t75.5 30.5q46 0 76 -33t30 -77q0 -47 -31.5 -78t-74.5 -31q-45 0 -77 33t-32 76zM311 109q0 46 33.5 77t77.5 31q46 0 76 -32.5t30 -75.5q0 -45 -32 -78t-74 -33q-46 0 -78.5 34t-32.5 77zM424 1622q0 48 34 78.5t77 30.5q50 0 80 -33 t30 -76q0 -45 -32.5 -77t-77.5 -32q-46 0 -78.5 33.5t-32.5 75.5zM526 109q0 47 33.5 77.5t77.5 30.5q49 0 80 -32.5t31 -75.5q0 -45 -33 -78t-78 -33q-46 0 -78.5 34t-32.5 77zM643 1837q0 48 32.5 78.5t74.5 30.5q46 0 78 -32.5t32 -76.5q0 -46 -33 -77t-77 -31 q-45 0 -76 33t-31 75zM745 109q0 46 33 77t74 31q48 0 79.5 -32.5t31.5 -75.5q0 -46 -33.5 -78.5t-77.5 -32.5t-75.5 34t-31.5 77zM858 1622q0 46 32.5 77.5t76.5 31.5q49 0 79.5 -33.5t30.5 -75.5q0 -45 -33 -77t-77 -32q-45 0 -77 33.5t-32 75.5zM961 109q0 46 32 77 t76 31q48 0 79.5 -32.5t31.5 -75.5q0 -45 -34 -78t-77 -33q-45 0 -76.5 34t-31.5 77zM1176 324q0 50 33.5 81t74.5 31q45 0 76 -34t31 -78q0 -46 -32.5 -77.5t-74.5 -31.5q-45 0 -76.5 33.5t-31.5 75.5zM1176 539q0 50 32.5 78t75.5 28q48 0 77.5 -31t29.5 -75 q0 -46 -32 -76.5t-75 -30.5q-47 0 -77.5 32.5t-30.5 74.5zM1176 756q0 47 32.5 75.5t75.5 28.5q49 0 78 -31t29 -73q0 -48 -32 -79.5t-75 -31.5q-47 0 -77.5 33.5t-30.5 77.5zM1176 969q0 51 32.5 79.5t75.5 28.5q48 0 77.5 -32.5t29.5 -75.5q0 -46 -32.5 -77.5t-74.5 -31.5 q-48 0 -78 33t-30 76zM1176 1186q0 49 33 78.5t75 29.5q48 0 77.5 -32.5t29.5 -75.5q0 -48 -32 -78.5t-75 -30.5q-45 0 -76.5 32.5t-31.5 76.5zM1176 1401q0 50 33 80t75 30q45 0 76 -33t31 -77q0 -46 -32.5 -77.5t-74.5 -31.5q-45 0 -76.5 32.5t-31.5 76.5z" />
<glyph unicode="&#xdc;" d="M98 324q0 50 34 81t75 31q46 0 76 -34t30 -78q0 -46 -31.5 -77.5t-74.5 -31.5q-45 0 -77 33.5t-32 75.5zM98 539q0 49 33 77.5t76 28.5q49 0 77.5 -30.5t28.5 -75.5q0 -46 -31 -76.5t-75 -30.5q-48 0 -78.5 32.5t-30.5 74.5zM98 756q0 47 33 75.5t76 28.5q50 0 78 -30.5 t28 -73.5q0 -48 -31 -79.5t-75 -31.5q-48 0 -78.5 34t-30.5 77zM98 969q0 51 33 79.5t76 28.5q49 0 77.5 -32t28.5 -76q0 -47 -31.5 -78t-74.5 -31q-49 0 -79 33.5t-30 75.5zM98 1186q0 48 33 78t76 30q49 0 77.5 -32t28.5 -76q0 -48 -31 -78.5t-75 -30.5q-45 0 -77 33 t-32 76zM98 1401q0 49 33.5 79.5t75.5 30.5q46 0 76 -33t30 -77q0 -47 -31.5 -78t-74.5 -31q-45 0 -77 33t-32 76zM289 1847q0 49 34 80t76 31q48 0 79.5 -34t31.5 -77q0 -45 -33 -76.5t-78 -31.5q-46 0 -78 33t-32 75zM311 109q0 46 33.5 77t77.5 31q46 0 76 -32.5 t30 -75.5q0 -45 -32 -78t-74 -33q-46 0 -78.5 34t-32.5 77zM526 109q0 47 33.5 77.5t77.5 30.5q49 0 80 -32.5t31 -75.5q0 -45 -33 -78t-78 -33q-46 0 -78.5 34t-32.5 77zM745 109q0 46 33 77t74 31q48 0 79.5 -32.5t31.5 -75.5q0 -46 -33.5 -78.5t-77.5 -32.5t-75.5 34 t-31.5 77zM950 1847q0 48 32.5 79.5t76.5 31.5q46 0 78 -34t32 -77q0 -45 -33 -76.5t-77 -31.5q-45 0 -77 33t-32 75zM961 109q0 46 32 77t76 31q48 0 79.5 -32.5t31.5 -75.5q0 -45 -34 -78t-77 -33q-45 0 -76.5 34t-31.5 77zM1176 324q0 50 33.5 81t74.5 31q45 0 76 -34 t31 -78q0 -46 -32.5 -77.5t-74.5 -31.5q-45 0 -76.5 33.5t-31.5 75.5zM1176 539q0 50 32.5 78t75.5 28q48 0 77.5 -31t29.5 -75q0 -46 -32 -76.5t-75 -30.5q-47 0 -77.5 32.5t-30.5 74.5zM1176 756q0 47 32.5 75.5t75.5 28.5q49 0 78 -31t29 -73q0 -48 -32 -79.5t-75 -31.5 q-47 0 -77.5 33.5t-30.5 77.5zM1176 969q0 51 32.5 79.5t75.5 28.5q48 0 77.5 -32.5t29.5 -75.5q0 -46 -32.5 -77.5t-74.5 -31.5q-48 0 -78 33t-30 76zM1176 1186q0 49 33 78.5t75 29.5q48 0 77.5 -32.5t29.5 -75.5q0 -48 -32 -78.5t-75 -30.5q-45 0 -76.5 32.5t-31.5 76.5z M1176 1401q0 50 33 80t75 30q45 0 76 -33t31 -77q0 -46 -32.5 -77.5t-74.5 -31.5q-45 0 -76.5 32.5t-31.5 76.5z" />
</font>
</defs>
</svg>
